CSLSans-ExtraLightItalic.ufo
<glyph name="percent" format="2">
  <advance width="887"/>
  <unicode hex="0025"/>
  <outline>
    <contour>
      <point x="624" y="13" type="qcurve"/>
      <point x="730" y="14"/>
      <point x="759" y="156" type="qcurve"/>
      <point x="765" y="178"/>
      <point x="768" y="199" type="qcurve"/>
      <point x="772" y="222"/>
      <point x="772" y="243" type="qcurve" smooth="yes"/>
      <point x="772" y="288"/>
      <point x="750" y="318" type="qcurve"/>
      <point x="729" y="349"/>
      <point x="685" y="349" type="qcurve" smooth="yes"/>
      <point x="679" y="349" type="line"/>
      <point x="576" y="347"/>
      <point x="546" y="207" type="qcurve" smooth="yes"/>
      <point x="542" y="186"/>
      <point x="538" y="164" type="qcurve" smooth="yes"/>
      <point x="534" y="143"/>
      <point x="534" y="119" type="qcurve" smooth="yes"/>
      <point x="534" y="75"/>
      <point x="555" y="44" type="qcurve"/>
      <point x="578" y="14"/>
    </contour>
    <contour>
      <point x="239" y="349" type="qcurve"/>
      <point x="346" y="350"/>
      <point x="374" y="492" type="qcurve"/>
      <point x="380" y="514"/>
      <point x="383" y="535" type="qcurve"/>
      <point x="387" y="558"/>
      <point x="387" y="578" type="qcurve" smooth="yes"/>
      <point x="387" y="583" type="line" smooth="yes"/>
      <point x="387" y="625"/>
      <point x="366" y="654" type="qcurve"/>
      <point x="346" y="685"/>
      <point x="300" y="685" type="qcurve" smooth="yes"/>
      <point x="296" y="685" type="line" smooth="yes"/>
      <point x="192" y="685"/>
      <point x="162" y="542" type="qcurve"/>
      <point x="160" y="522"/>
      <point x="154" y="500" type="qcurve"/>
      <point x="150" y="479"/>
      <point x="149" y="455" type="qcurve"/>
      <point x="149" y="411"/>
      <point x="170" y="380" type="qcurve"/>
      <point x="192" y="350"/>
    </contour>
    <contour>
      <point x="622" y="-12" type="qcurve" smooth="yes"/>
      <point x="566" y="-12"/>
      <point x="534" y="26" type="qcurve"/>
      <point x="504" y="65"/>
      <point x="503" y="123" type="qcurve"/>
      <point x="504" y="220"/>
      <point x="544" y="290" type="qcurve" smooth="yes"/>
      <point x="592" y="374"/>
      <point x="684" y="374" type="qcurve" smooth="yes"/>
      <point x="741" y="374"/>
      <point x="771" y="336" type="qcurve" smooth="yes"/>
      <point x="802" y="298"/>
      <point x="802" y="239" type="qcurve" smooth="yes"/>
      <point x="802" y="143"/>
      <point x="762" y="73" type="qcurve"/>
      <point x="716" y="-12"/>
    </contour>
    <contour>
      <point x="237" y="324" type="qcurve" smooth="yes"/>
      <point x="181" y="324"/>
      <point x="150" y="362" type="qcurve"/>
      <point x="120" y="401"/>
      <point x="119" y="458" type="qcurve"/>
      <point x="120" y="554"/>
      <point x="159" y="625" type="qcurve" smooth="yes"/>
      <point x="206" y="710"/>
      <point x="299" y="710" type="qcurve" smooth="yes"/>
      <point x="356" y="710"/>
      <point x="386" y="672" type="qcurve"/>
      <point x="417" y="635"/>
      <point x="417" y="579" type="qcurve" smooth="yes"/>
      <point x="417" y="576" type="line" smooth="yes"/>
      <point x="417" y="482"/>
      <point x="377" y="409" type="qcurve" smooth="yes"/>
      <point x="330" y="324"/>
    </contour>
    <contour>
      <point x="140" y="0" type="line"/>
      <point x="745" y="698" type="line"/>
      <point x="782" y="698" type="line"/>
      <point x="177" y="0" type="line"/>
    </contour>
  </outline>
</glyph>
<glyph name="parenleft" format="2">
  <advance width="330"/>
  <unicode hex="0028"/>
  <outline>
    <contour>
      <point x="215" y="-138" type="line"/>
      <point x="164" y="-75"/>
      <point x="132" y="17" type="qcurve" smooth="yes"/>
      <point x="100" y="110"/>
      <point x="100" y="224" type="qcurve" smooth="yes"/>
      <point x="100" y="389"/>
      <point x="180" y="539" type="qcurve" smooth="yes"/>
      <point x="256" y="680"/>
      <point x="367" y="760" type="qcurve"/>
      <point x="405" y="760" type="line"/>
      <point x="309" y="691"/>
      <point x="240" y="585" type="qcurve" smooth="yes"/>
      <point x="171" y="480"/>
      <point x="147" y="357" type="qcurve" smooth="yes"/>
      <point x="139" y="311" type="line" smooth="yes"/>
      <point x="131" y="270"/>
      <point x="131" y="222" type="qcurve" smooth="yes"/>
      <point x="131" y="6"/>
      <point x="247" y="-138" type="qcurve"/>
    </contour>
  </outline>
</glyph>
<glyph name="comma" format="2">
  <advance width="248"/>
  <unicode hex="002C"/>
  <outline>
    <contour>
      <point x="-30" y="-144" type="line"/>
      <point x="44" y="-80"/>
      <point x="71" y="-5" type="qcurve"/>
      <point x="42" y="-2"/>
      <point x="42" y="18" type="qcurve" smooth="yes"/>
      <point x="42" y="24"/>
      <point x="43" y="28" type="qcurve"/>
      <point x="44" y="33"/>
      <point x="44" y="35" type="qcurve"/>
      <point x="45" y="37"/>
      <point x="45" y="38" type="qcurve" smooth="yes"/>
      <point x="45" y="39" type="line"/>
      <point x="48" y="50"/>
      <point x="55" y="59" type="qcurve"/>
      <point x="64" y="68"/>
      <point x="83" y="68" type="qcurve" smooth="yes"/>
      <point x="114" y="68"/>
      <point x="114" y="44" type="qcurve" smooth="yes"/>
      <point x="114" y="38"/>
      <point x="112" y="29" type="qcurve"/>
      <point x="111" y="22" type="line"/>
      <point x="102" y="-20"/>
      <point x="72" y="-65" type="qcurve"/>
      <point x="44" y="-110"/>
      <point x="2" y="-144" type="qcurve"/>
    </contour>
  </outline>
</glyph>
<glyph name="period" format="2">
  <advance width="300"/>
  <unicode hex="002E"/>
  <outline>
    <contour>
      <point x="97" y="-7" type="qcurve"/>
      <point x="66" y="-7"/>
      <point x="66" y="17" type="qcurve" smooth="yes"/>
      <point x="66" y="26"/>
      <point x="69" y="39" type="qcurve"/>
      <point x="74" y="68"/>
      <point x="107" y="68" type="qcurve" smooth="yes"/>
      <point x="138" y="68"/>
      <point x="138" y="44" type="qcurve" smooth="yes"/>
      <point x="138" y="36"/>
      <point x="135" y="22" type="qcurve" smooth="yes"/>
      <point x="130" y="-6"/>
    </contour>
  </outline>
</glyph>
<glyph name="slash" format="2">
  <advance width="319"/>
  <unicode hex="002F"/>
  <outline>
    <contour>
      <point x="-75" y="-151" type="line"/>
      <point x="352" y="740" type="line"/>
      <point x="384" y="740" type="line"/>
      <point x="-43" y="-151" type="line"/>
    </contour>
  </outline>
</glyph>
<glyph name="zero" format="2">
  <advance width="600"/>
  <unicode hex="0030"/>
  <outline>
    <contour>
      <point x="254" y="-12" type="qcurve" smooth="yes"/>
      <point x="74" y="-12"/>
      <point x="73" y="221" type="qcurve" smooth="yes"/>
      <point x="74" y="323"/>
      <point x="104" y="440" type="qcurve" smooth="yes"/>
      <point x="134" y="552"/>
      <point x="202" y="629" type="qcurve" smooth="yes"/>
      <point x="274" y="710"/>
      <point x="377" y="710" type="qcurve" smooth="yes"/>
      <point x="558" y="710"/>
      <point x="558" y="477" type="qcurve" smooth="yes"/>
      <point x="558" y="376"/>
      <point x="528" y="259" type="qcurve"/>
      <point x="496" y="147"/>
      <point x="430" y="69" type="qcurve"/>
      <point x="356" y="-12"/>
    </contour>
    <contour>
      <point x="256" y="20" type="qcurve" smooth="yes"/>
      <point x="348" y="20"/>
      <point x="409" y="94" type="qcurve" smooth="yes"/>
      <point x="472" y="168"/>
      <point x="498" y="303" type="qcurve" smooth="yes"/>
      <point x="512" y="373" type="line"/>
      <point x="522" y="432"/>
      <point x="522" y="480" type="qcurve" smooth="yes"/>
      <point x="522" y="573"/>
      <point x="489" y="625" type="qcurve" smooth="yes"/>
      <point x="456" y="678"/>
      <point x="375" y="678" type="qcurve" smooth="yes"/>
      <point x="285" y="678"/>
      <point x="222" y="604" type="qcurve" smooth="yes"/>
      <point x="160" y="530"/>
      <point x="133" y="395" type="qcurve" smooth="yes"/>
      <point x="119" y="325" type="line"/>
      <point x="110" y="266"/>
      <point x="109" y="218" type="qcurve" smooth="yes"/>
      <point x="109" y="126"/>
      <point x="142" y="73" type="qcurve" smooth="yes"/>
      <point x="176" y="20"/>
    </contour>
  </outline>
</glyph>
<glyph name="two" format="2">
  <advance width="600"/>
  <unicode hex="0032"/>
  <outline>
    <contour>
      <point x="33" y="0" type="line"/>
      <point x="41" y="40" type="line"/>
      <point x="353" y="301" type="line" smooth="yes"/>
      <point x="473" y="399"/>
      <point x="495" y="489" type="qcurve"/>
      <point x="498" y="506" type="line"/>
      <point x="503" y="528"/>
      <point x="503" y="544" type="qcurve" smooth="yes"/>
      <point x="503" y="554" type="line" smooth="yes"/>
      <point x="503" y="605"/>
      <point x="471" y="640" type="qcurve"/>
      <point x="441" y="677"/>
      <point x="369" y="677" type="qcurve" smooth="yes"/>
      <point x="361" y="677" type="line"/>
      <point x="226" y="675"/>
      <point x="173" y="542" type="qcurve"/>
      <point x="142" y="554" type="line"/>
      <point x="206" y="710"/>
      <point x="368" y="710" type="qcurve" smooth="yes"/>
      <point x="454" y="710"/>
      <point x="498" y="665" type="qcurve"/>
      <point x="540" y="620"/>
      <point x="540" y="551" type="qcurve" smooth="yes"/>
      <point x="540" y="472"/>
      <point x="499" y="408" type="qcurve" smooth="yes"/>
      <point x="458" y="344"/>
      <point x="376" y="278" type="qcurve" smooth="yes"/>
      <point x="80" y="32" type="line"/>
      <point x="474" y="32" type="line"/>
      <point x="468" y="0" type="line"/>
    </contour>
  </outline>
</glyph>
<glyph name="five" format="2">
  <advance width="600"/>
  <unicode hex="0035"/>
  <outline>
    <contour>
      <point x="261" y="-12" type="qcurve" smooth="yes"/>
      <point x="191" y="-12"/>
      <point x="137" y="16" type="qcurve"/>
      <point x="84" y="46"/>
      <point x="60" y="99" type="qcurve"/>
      <point x="88" y="117" type="line"/>
      <point x="133" y="21"/>
      <point x="262" y="21" type="qcurve" smooth="yes"/>
      <point x="350" y="22"/>
      <point x="399" y="64" type="qcurve" smooth="yes"/>
      <point x="450" y="108"/>
      <point x="464" y="185" type="qcurve" smooth="yes"/>
      <point x="469" y="212"/>
      <point x="470" y="224" type="qcurve" smooth="yes"/>
      <point x="472" y="238"/>
      <point x="472" y="248" type="qcurve" smooth="yes"/>
      <point x="472" y="312"/>
      <point x="437" y="349" type="qcurve" smooth="yes"/>
      <point x="402" y="386"/>
      <point x="327" y="386" type="qcurve" smooth="yes"/>
      <point x="274" y="386"/>
      <point x="236" y="369" type="qcurve"/>
      <point x="200" y="351"/>
      <point x="164" y="317" type="qcurve"/>
      <point x="129" y="321" type="line"/>
      <point x="228" y="698" type="line"/>
      <point x="574" y="698" type="line"/>
      <point x="568" y="666" type="line"/>
      <point x="252" y="666" type="line"/>
      <point x="167" y="346" type="line"/>
      <point x="171" y="345" type="line"/>
      <point x="226" y="418"/>
      <point x="334" y="418" type="qcurve" smooth="yes"/>
      <point x="420" y="418"/>
      <point x="464" y="373" type="qcurve" smooth="yes"/>
      <point x="509" y="328"/>
      <point x="509" y="248" type="qcurve" smooth="yes"/>
      <point x="509" y="245" type="line" smooth="yes"/>
      <point x="509" y="127"/>
      <point x="442" y="58" type="qcurve" smooth="yes"/>
      <point x="374" y="-12"/>
    </contour>
  </outline>
</glyph>
<glyph name="eight" format="2">
  <advance width="600"/>
  <unicode hex="0038"/>
  <outline>
    <contour>
      <point x="250" y="-12" type="qcurve" smooth="yes"/>
      <point x="154" y="-12"/>
      <point x="101" y="34" type="qcurve"/>
      <point x="50" y="82"/>
      <point x="49" y="158" type="qcurve" smooth="yes"/>
      <point x="50" y="239"/>
      <point x="101" y="297" type="qcurve" smooth="yes"/>
      <point x="151" y="354"/>
      <point x="239" y="367" type="qcurve"/>
      <point x="239" y="372" type="line"/>
      <point x="142" y="400"/>
      <point x="139" y="503" type="qcurve"/>
      <point x="139" y="506" type="line"/>
      <point x="139" y="506"/>
      <point x="139" y="506" type="qcurve"/>
      <point x="139" y="506"/>
      <point x="139" y="506" type="qcurve"/>
      <point x="139" y="506"/>
      <point x="139" y="506" type="qcurve"/>
      <point x="139" y="506"/>
      <point x="139" y="506" type="qcurve"/>
      <point x="139" y="506"/>
      <point x="139" y="506" type="qcurve"/>
      <point x="139" y="506"/>
      <point x="139" y="506" type="qcurve"/>
      <point x="139" y="506"/>
      <point x="139" y="506" type="qcurve"/>
      <point x="139" y="507" type="line"/>
      <point x="139" y="507"/>
      <point x="139" y="507" type="qcurve"/>
      <point x="139" y="509" type="line" smooth="yes"/>
      <point x="139" y="599"/>
      <point x="204" y="654" type="qcurve" smooth="yes"/>
      <point x="270" y="710"/>
      <point x="372" y="710" type="qcurve" smooth="yes"/>
      <point x="460" y="710"/>
      <point x="506" y="669" type="qcurve" smooth="yes"/>
      <point x="553" y="629"/>
      <point x="553" y="562" type="qcurve" smooth="yes"/>
      <point x="553" y="556" type="line" smooth="yes"/>
      <point x="553" y="487"/>
      <point x="510" y="436" type="qcurve" smooth="yes"/>
      <point x="468" y="384"/>
      <point x="394" y="366" type="qcurve"/>
      <point x="393" y="362" type="line"/>
      <point x="509" y="332"/>
      <point x="509" y="214" type="qcurve" smooth="yes"/>
      <point x="509" y="209" type="line" smooth="yes"/>
      <point x="509" y="112"/>
      <point x="437" y="50" type="qcurve" smooth="yes"/>
      <point x="364" y="-12"/>
    </contour>
    <contour>
      <point x="324" y="382" type="qcurve" smooth="yes"/>
      <point x="400" y="382"/>
      <point x="449" y="417" type="qcurve" smooth="yes"/>
      <point x="506" y="457"/>
      <point x="515" y="538" type="qcurve" smooth="yes"/>
      <point x="517" y="560" type="line"/>
      <point x="512" y="678"/>
      <point x="368" y="678" type="qcurve" smooth="yes"/>
      <point x="293" y="678"/>
      <point x="243" y="643" type="qcurve" smooth="yes"/>
      <point x="186" y="604"/>
      <point x="177" y="522" type="qcurve" smooth="yes"/>
      <point x="175" y="500" type="line"/>
      <point x="180" y="382"/>
    </contour>
    <contour>
      <point x="251" y="20" type="qcurve" smooth="yes"/>
      <point x="335" y="20"/>
      <point x="395" y="61" type="qcurve" smooth="yes"/>
      <point x="462" y="108"/>
      <point x="471" y="195" type="qcurve" smooth="yes"/>
      <point x="473" y="217" type="line"/>
      <point x="473" y="217"/>
      <point x="473" y="217" type="qcurve"/>
      <point x="473" y="217"/>
      <point x="473" y="217" type="qcurve"/>
      <point x="473" y="217"/>
      <point x="473" y="217" type="qcurve"/>
      <point x="473" y="217"/>
      <point x="473" y="217" type="qcurve"/>
      <point x="473" y="220" type="line" smooth="yes"/>
      <point x="473" y="278"/>
      <point x="431" y="313" type="qcurve" smooth="yes"/>
      <point x="388" y="350"/>
      <point x="307" y="350" type="qcurve" smooth="yes"/>
      <point x="223" y="350"/>
      <point x="163" y="310" type="qcurve" smooth="yes"/>
      <point x="97" y="264"/>
      <point x="87" y="177" type="qcurve"/>
      <point x="85" y="153" type="line"/>
      <point x="85" y="94"/>
      <point x="127" y="57" type="qcurve" smooth="yes"/>
      <point x="170" y="20"/>
    </contour>
    <contour>
      <point x="473" y="218" type="qcurve"/>
      <point x="473" y="218"/>
      <point x="473" y="218" type="qcurve"/>
      <point x="473" y="218"/>
      <point x="473" y="218" type="qcurve"/>
      <point x="473" y="218"/>
    </contour>
    <contour>
      <point x="473" y="217" type="qcurve"/>
      <point x="473" y="217"/>
      <point x="473" y="217" type="qcurve"/>
      <point x="473" y="217"/>
    </contour>
  </outline>
</glyph>
<glyph name="colon" format="2">
  <advance width="300"/>
  <unicode hex="003A"/>
  <outline>
    <contour>
      <point x="192" y="425" type="qcurve"/>
      <point x="162" y="425"/>
      <point x="161" y="449" type="qcurve"/>
      <point x="161" y="458"/>
      <point x="164" y="471" type="qcurve" smooth="yes"/>
      <point x="170" y="500"/>
      <point x="202" y="500" type="qcurve" smooth="yes"/>
      <point x="233" y="500"/>
      <point x="233" y="477" type="qcurve"/>
      <point x="233" y="477"/>
      <point x="233" y="477" type="qcurve"/>
      <point x="233" y="477"/>
      <point x="233" y="477" type="qcurve"/>
      <point x="233" y="477"/>
      <point x="233" y="477" type="qcurve"/>
      <point x="233" y="477"/>
      <point x="233" y="476" type="qcurve"/>
      <point x="233" y="476"/>
      <point x="233" y="476" type="qcurve"/>
      <point x="233" y="468"/>
      <point x="230" y="454" type="qcurve"/>
      <point x="226" y="426"/>
    </contour>
    <contour>
      <point x="104" y="-7" type="qcurve"/>
      <point x="74" y="-7"/>
      <point x="73" y="17" type="qcurve"/>
      <point x="73" y="26"/>
      <point x="76" y="39" type="qcurve" smooth="yes"/>
      <point x="82" y="68"/>
      <point x="114" y="68" type="qcurve" smooth="yes"/>
      <point x="145" y="68"/>
      <point x="145" y="45" type="qcurve"/>
      <point x="145" y="45"/>
      <point x="145" y="45" type="qcurve"/>
      <point x="145" y="45"/>
      <point x="145" y="45" type="qcurve"/>
      <point x="145" y="45"/>
      <point x="145" y="45" type="qcurve"/>
      <point x="145" y="45"/>
      <point x="145" y="44" type="qcurve"/>
      <point x="145" y="44"/>
      <point x="145" y="44" type="qcurve"/>
      <point x="145" y="36"/>
      <point x="142" y="22" type="qcurve"/>
      <point x="138" y="-6"/>
    </contour>
  </outline>
</glyph>
<glyph name="semicolon" format="2">
  <advance width="266"/>
  <unicode hex="003B"/>
  <outline>
    <contour>
      <point x="-23" y="-144" type="line"/>
      <point x="52" y="-80"/>
      <point x="78" y="-5" type="qcurve"/>
      <point x="50" y="-2"/>
      <point x="49" y="18" type="qcurve"/>
      <point x="50" y="24"/>
      <point x="50" y="28" type="qcurve"/>
      <point x="51" y="31"/>
      <point x="51" y="33" type="qcurve" smooth="yes"/>
      <point x="51" y="35" type="line"/>
      <point x="52" y="38"/>
      <point x="52" y="39" type="qcurve"/>
      <point x="54" y="50"/>
      <point x="62" y="59" type="qcurve" smooth="yes"/>
      <point x="70" y="68"/>
      <point x="90" y="68" type="qcurve" smooth="yes"/>
      <point x="121" y="68"/>
      <point x="121" y="45" type="qcurve" smooth="yes"/>
      <point x="121" y="41" type="line" smooth="yes"/>
      <point x="121" y="36"/>
      <point x="119" y="29" type="qcurve"/>
      <point x="118" y="22" type="line"/>
      <point x="109" y="-20"/>
      <point x="79" y="-65" type="qcurve"/>
      <point x="51" y="-110"/>
      <point x="9" y="-144" type="qcurve"/>
    </contour>
    <contour>
      <point x="168" y="425" type="qcurve"/>
      <point x="138" y="425"/>
      <point x="137" y="449" type="qcurve"/>
      <point x="137" y="458"/>
      <point x="140" y="471" type="qcurve" smooth="yes"/>
      <point x="146" y="500"/>
      <point x="178" y="500" type="qcurve" smooth="yes"/>
      <point x="209" y="500"/>
      <point x="209" y="477" type="qcurve" smooth="yes"/>
      <point x="209" y="476" type="line" smooth="yes"/>
      <point x="209" y="468"/>
      <point x="206" y="454" type="qcurve"/>
      <point x="202" y="426"/>
    </contour>
  </outline>
</glyph>
<glyph name="question" format="2">
  <advance width="457"/>
  <unicode hex="003F"/>
  <outline>
    <contour>
      <point x="177" y="184" type="line"/>
      <point x="210" y="355" type="line"/>
      <point x="411" y="370"/>
      <point x="432" y="508" type="qcurve"/>
      <point x="437" y="527"/>
      <point x="437" y="546" type="qcurve" smooth="yes"/>
      <point x="437" y="547" type="line"/>
      <point x="437" y="547"/>
      <point x="437" y="547" type="qcurve"/>
      <point x="437" y="547"/>
      <point x="437" y="547" type="qcurve"/>
      <point x="437" y="549" type="line"/>
      <point x="437" y="549"/>
      <point x="437" y="549" type="qcurve"/>
      <point x="437" y="549"/>
      <point x="437" y="549" type="qcurve"/>
      <point x="437" y="552" type="line"/>
      <point x="434" y="678"/>
      <point x="299" y="678" type="qcurve" smooth="yes"/>
      <point x="229" y="678"/>
      <point x="187" y="643" type="qcurve" smooth="yes"/>
      <point x="146" y="608"/>
      <point x="120" y="546" type="qcurve"/>
      <point x="90" y="557" type="line"/>
      <point x="149" y="708"/>
      <point x="297" y="710" type="qcurve"/>
      <point x="306" y="710" type="line" smooth="yes"/>
      <point x="383" y="710"/>
      <point x="427" y="668" type="qcurve" smooth="yes"/>
      <point x="473" y="626"/>
      <point x="473" y="553" type="qcurve" smooth="yes"/>
      <point x="473" y="550" type="line" smooth="yes"/>
      <point x="473" y="460"/>
      <point x="416" y="401" type="qcurve" smooth="yes"/>
      <point x="359" y="342"/>
      <point x="239" y="327" type="qcurve"/>
      <point x="211" y="184" type="line"/>
    </contour>
    <contour>
      <point x="159" y="-7" type="qcurve"/>
      <point x="128" y="-7"/>
      <point x="128" y="17" type="qcurve" smooth="yes"/>
      <point x="128" y="26"/>
      <point x="131" y="39" type="qcurve"/>
      <point x="136" y="68"/>
      <point x="169" y="68" type="qcurve" smooth="yes"/>
      <point x="200" y="68"/>
      <point x="200" y="44" type="qcurve" smooth="yes"/>
      <point x="200" y="36"/>
      <point x="197" y="22" type="qcurve"/>
      <point x="192" y="-6"/>
    </contour>
  </outline>
</glyph>
<glyph name="at" format="2">
  <advance width="876"/>
  <unicode hex="0040"/>
  <outline>
    <contour>
      <point x="400" y="98" type="qcurve" smooth="yes"/>
      <point x="454" y="98"/>
      <point x="498" y="134" type="qcurve" smooth="yes"/>
      <point x="542" y="170"/>
      <point x="554" y="220" type="qcurve"/>
      <point x="583" y="362" type="line" smooth="yes"/>
      <point x="585" y="371"/>
      <point x="585" y="379" type="qcurve" smooth="yes"/>
      <point x="585" y="381" type="line"/>
      <point x="585" y="381"/>
      <point x="585" y="381" type="qcurve"/>
      <point x="585" y="382" type="line"/>
      <point x="585" y="382"/>
      <point x="585" y="382" type="qcurve"/>
      <point x="585" y="385" type="line"/>
      <point x="585" y="385"/>
      <point x="585" y="385" type="qcurve"/>
      <point x="585" y="385"/>
      <point x="585" y="385" type="qcurve"/>
      <point x="585" y="386" type="line"/>
      <point x="585" y="386"/>
      <point x="585" y="386" type="qcurve"/>
      <point x="585" y="386"/>
      <point x="585" y="386" type="qcurve"/>
      <point x="585" y="388" type="line" smooth="yes"/>
      <point x="585" y="423"/>
      <point x="562" y="446" type="qcurve" smooth="yes"/>
      <point x="530" y="479"/>
      <point x="476" y="479" type="qcurve"/>
      <point x="476" y="479"/>
      <point x="476" y="479" type="qcurve"/>
      <point x="476" y="479"/>
      <point x="476" y="479" type="qcurve"/>
      <point x="473" y="479" type="line" smooth="yes"/>
      <point x="409" y="479"/>
      <point x="365" y="435" type="qcurve" smooth="yes"/>
      <point x="320" y="392"/>
      <point x="305" y="314" type="qcurve" smooth="yes"/>
      <point x="301" y="290"/>
      <point x="295" y="263" type="qcurve"/>
      <point x="290" y="236"/>
      <point x="290" y="212" type="qcurve"/>
      <point x="292" y="98"/>
    </contour>
    <contour>
      <point x="362" y="-121" type="qcurve"/>
      <point x="362" y="-121"/>
      <point x="362" y="-121" type="qcurve"/>
      <point x="362" y="-121"/>
      <point x="362" y="-121" type="qcurve"/>
      <point x="362" y="-121"/>
      <point x="362" y="-121" type="qcurve"/>
      <point x="362" y="-121"/>
      <point x="361" y="-121" type="qcurve"/>
      <point x="361" y="-121"/>
      <point x="361" y="-121" type="qcurve"/>
      <point x="360" y="-121" type="line" smooth="yes"/>
      <point x="225" y="-121"/>
      <point x="146" y="-41" type="qcurve" smooth="yes"/>
      <point x="66" y="40"/>
      <point x="66" y="188" type="qcurve" smooth="yes"/>
      <point x="66" y="238"/>
      <point x="78" y="301" type="qcurve" smooth="yes"/>
      <point x="116" y="487"/>
      <point x="238" y="598" type="qcurve" smooth="yes"/>
      <point x="360" y="710"/>
      <point x="528" y="710" type="qcurve" smooth="yes"/>
      <point x="660" y="710"/>
      <point x="745" y="633" type="qcurve"/>
      <point x="830" y="552"/>
      <point x="830" y="413" type="qcurve" smooth="yes"/>
      <point x="830" y="329"/>
      <point x="794" y="221" type="qcurve"/>
      <point x="761" y="129"/>
      <point x="695" y="89" type="qcurve" smooth="yes"/>
      <point x="663" y="69"/>
      <point x="624" y="69" type="qcurve"/>
      <point x="543" y="74"/>
      <point x="543" y="143" type="qcurve" smooth="yes"/>
      <point x="543" y="155" type="line"/>
      <point x="540" y="155" type="line"/>
      <point x="522" y="122"/>
      <point x="484" y="96" type="qcurve" smooth="yes"/>
      <point x="446" y="69"/>
      <point x="392" y="69" type="qcurve" smooth="yes"/>
      <point x="329" y="69"/>
      <point x="293" y="107" type="qcurve" smooth="yes"/>
      <point x="257" y="146"/>
      <point x="257" y="214" type="qcurve" smooth="yes"/>
      <point x="257" y="246"/>
      <point x="265" y="291" type="qcurve" smooth="yes"/>
      <point x="286" y="400"/>
      <point x="340" y="454" type="qcurve" smooth="yes"/>
      <point x="396" y="508"/>
      <point x="476" y="508" type="qcurve" smooth="yes"/>
      <point x="524" y="508"/>
      <point x="553" y="485" type="qcurve" smooth="yes"/>
      <point x="584" y="461"/>
      <point x="593" y="425" type="qcurve"/>
      <point x="596" y="425" type="line"/>
      <point x="610" y="497" type="line"/>
      <point x="641" y="497" type="line"/>
      <point x="577" y="172" type="line" smooth="yes"/>
      <point x="574" y="158"/>
      <point x="574" y="143" type="qcurve" smooth="yes"/>
      <point x="574" y="98"/>
      <point x="628" y="97" type="qcurve"/>
      <point x="680" y="97"/>
      <point x="722" y="149" type="qcurve" smooth="yes"/>
      <point x="766" y="203"/>
      <point x="784" y="297" type="qcurve" smooth="yes"/>
      <point x="793" y="345" type="line" smooth="yes"/>
      <point x="800" y="381"/>
      <point x="800" y="414" type="qcurve" smooth="yes"/>
      <point x="800" y="540"/>
      <point x="725" y="611" type="qcurve" smooth="yes"/>
      <point x="650" y="682"/>
      <point x="524" y="682" type="qcurve" smooth="yes"/>
      <point x="450" y="682"/>
      <point x="383" y="656" type="qcurve" smooth="yes"/>
      <point x="316" y="629"/>
      <point x="262" y="581" type="qcurve" smooth="yes"/>
      <point x="152" y="482"/>
      <point x="116" y="325" type="qcurve" smooth="yes"/>
      <point x="104" y="271" type="line" smooth="yes"/>
      <point x="95" y="226"/>
      <point x="95" y="188" type="qcurve" smooth="yes"/>
      <point x="95" y="56"/>
      <point x="167" y="-18" type="qcurve" smooth="yes"/>
      <point x="240" y="-93"/>
      <point x="366" y="-93" type="qcurve" smooth="yes"/>
      <point x="601" y="-93" type="line"/>
      <point x="595" y="-121" type="line"/>
      <point x="363" y="-121" type="line"/>
      <point x="363" y="-121"/>
      <point x="363" y="-121" type="qcurve"/>
      <point x="363" y="-121"/>
      <point x="363" y="-121" type="qcurve"/>
      <point x="363" y="-121"/>
      <point x="363" y="-121" type="qcurve"/>
      <point x="363" y="-121"/>
      <point x="362" y="-121" type="qcurve"/>
      <point x="362" y="-121"/>
    </contour>
  </outline>
</glyph>
<glyph name="B" format="2">
  <advance width="611"/>
  <unicode hex="0042"/>
  <outline>
    <contour>
      <point x="325" y="32" type="line" smooth="yes"/>
      <point x="396" y="32"/>
      <point x="438" y="68" type="qcurve" smooth="yes"/>
      <point x="480" y="104"/>
      <point x="492" y="165" type="qcurve" smooth="yes"/>
      <point x="501" y="207"/>
      <point x="501" y="231" type="qcurve" smooth="yes"/>
      <point x="501" y="282"/>
      <point x="471" y="315" type="qcurve" smooth="yes"/>
      <point x="438" y="350"/>
      <point x="376" y="350" type="qcurve" smooth="yes"/>
      <point x="156" y="350" type="line"/>
      <point x="94" y="32" type="line"/>
    </contour>
    <contour>
      <point x="367" y="382" type="line" smooth="yes"/>
      <point x="502" y="382"/>
      <point x="528" y="495" type="qcurve"/>
      <point x="532" y="520" type="line"/>
      <point x="536" y="541"/>
      <point x="536" y="559" type="qcurve" smooth="yes"/>
      <point x="536" y="562" type="line" smooth="yes"/>
      <point x="536" y="610"/>
      <point x="508" y="637" type="qcurve"/>
      <point x="480" y="666"/>
      <point x="416" y="666" type="qcurve" smooth="yes"/>
      <point x="219" y="666" type="line"/>
      <point x="163" y="382" type="line"/>
    </contour>
    <contour>
      <point x="52" y="0" type="line"/>
      <point x="190" y="698" type="line"/>
      <point x="423" y="698" type="line" smooth="yes"/>
      <point x="495" y="698"/>
      <point x="533" y="662" type="qcurve" smooth="yes"/>
      <point x="573" y="626"/>
      <point x="573" y="558" type="qcurve" smooth="yes"/>
      <point x="573" y="498"/>
      <point x="543" y="443" type="qcurve" smooth="yes"/>
      <point x="513" y="389"/>
      <point x="437" y="369" type="qcurve"/>
      <point x="436" y="366" type="line"/>
      <point x="486" y="354"/>
      <point x="512" y="318" type="qcurve" smooth="yes"/>
      <point x="538" y="282"/>
      <point x="538" y="230" type="qcurve" smooth="yes"/>
      <point x="538" y="125"/>
      <point x="480" y="62" type="qcurve" smooth="yes"/>
      <point x="423" y="0"/>
      <point x="324" y="0" type="qcurve" smooth="yes"/>
    </contour>
  </outline>
</glyph>
<glyph name="F" format="2">
  <advance width="531"/>
  <unicode hex="0046"/>
  <outline>
    <contour>
      <point x="50" y="0" type="line"/>
      <point x="190" y="698" type="line"/>
      <point x="568" y="698" type="line"/>
      <point x="561" y="666" type="line"/>
      <point x="219" y="666" type="line"/>
      <point x="159" y="370" type="line"/>
      <point x="484" y="370" type="line"/>
      <point x="478" y="338" type="line"/>
      <point x="153" y="338" type="line"/>
      <point x="86" y="0" type="line"/>
    </contour>
  </outline>
</glyph>
<glyph name="P" format="2">
  <advance width="583"/>
  <unicode hex="0050"/>
  <outline>
    <contour>
      <point x="385" y="348" type="line" smooth="yes"/>
      <point x="456" y="348"/>
      <point x="497" y="384" type="qcurve" smooth="yes"/>
      <point x="539" y="420"/>
      <point x="551" y="479" type="qcurve" smooth="yes"/>
      <point x="560" y="522"/>
      <point x="560" y="549" type="qcurve" smooth="yes"/>
      <point x="560" y="552" type="line" smooth="yes"/>
      <point x="560" y="600"/>
      <point x="532" y="632" type="qcurve"/>
      <point x="504" y="666"/>
      <point x="438" y="666" type="qcurve" smooth="yes"/>
      <point x="219" y="666" type="line"/>
      <point x="156" y="348" type="line"/>
    </contour>
    <contour>
      <point x="50" y="0" type="line"/>
      <point x="190" y="698" type="line"/>
      <point x="444" y="698" type="line" smooth="yes"/>
      <point x="519" y="698"/>
      <point x="557" y="655" type="qcurve" smooth="yes"/>
      <point x="596" y="611"/>
      <point x="596" y="545" type="qcurve" smooth="yes"/>
      <point x="596" y="440"/>
      <point x="539" y="378" type="qcurve" smooth="yes"/>
      <point x="482" y="316"/>
      <point x="381" y="316" type="qcurve" smooth="yes"/>
      <point x="150" y="316" type="line"/>
      <point x="86" y="0" type="line"/>
    </contour>
  </outline>
</glyph>
<glyph name="Q" format="2">
  <advance width="663"/>
  <unicode hex="0051"/>
  <outline>
    <contour>
      <point x="482" y="109" type="qcurve"/>
      <point x="346" y="267" type="line"/>
      <point x="389" y="267" type="line"/>
      <point x="502" y="135" type="line"/>
      <point x="552" y="205"/>
      <point x="572" y="309" type="qcurve" smooth="yes"/>
      <point x="585" y="375" type="line"/>
      <point x="594" y="434"/>
      <point x="594" y="473" type="qcurve" smooth="yes"/>
      <point x="594" y="478" type="line" smooth="yes"/>
      <point x="594" y="569"/>
      <point x="496" y="677"/>
      <point x="404" y="677" type="qcurve" smooth="yes"/>
      <point x="395" y="677" type="line"/>
      <point x="298" y="676"/>
      <point x="151" y="524"/>
      <point x="124" y="389" type="qcurve" smooth="yes"/>
      <point x="111" y="323" type="line"/>
      <point x="102" y="266"/>
      <point x="102" y="224" type="qcurve" smooth="yes"/>
      <point x="102" y="132"/>
      <point x="151" y="76" type="qcurve"/>
      <point x="202" y="22"/>
      <point x="295" y="21" type="qcurve"/>
      <point x="298" y="21" type="line" smooth="yes"/>
      <point x="401" y="21"/>
      <point x="472" y="98" type="qcurve"/>
      <point x="477" y="103"/>
    </contour>
    <contour>
      <point x="524" y="110" type="qcurve"/>
      <point x="629" y="-12" type="line"/>
      <point x="586" y="-12" type="line"/>
      <point x="503" y="85" type="line"/>
      <point x="494" y="75"/>
      <point x="484" y="65" type="qcurve" smooth="yes"/>
      <point x="406" y="-12"/>
      <point x="194" y="-12"/>
      <point x="130" y="49" type="qcurve" smooth="yes"/>
      <point x="66" y="112"/>
      <point x="66" y="332"/>
      <point x="135" y="556"/>
      <point x="210" y="631" type="qcurve"/>
      <point x="292" y="710"/>
      <point x="504" y="710"/>
      <point x="567" y="648" type="qcurve" smooth="yes"/>
      <point x="630" y="586"/>
      <point x="630" y="469" type="qcurve" smooth="yes"/>
      <point x="630" y="463" type="line" smooth="yes"/>
      <point x="630" y="365"/>
      <point x="596" y="254" type="qcurve" smooth="yes"/>
      <point x="571" y="173"/>
    </contour>
  </outline>
</glyph>
<glyph name="V" format="2">
  <advance width="572"/>
  <unicode hex="0056"/>
  <outline>
    <contour>
      <point x="212" y="0" type="line"/>
      <point x="116" y="698" type="line"/>
      <point x="152" y="698" type="line"/>
      <point x="240" y="39" type="line"/>
      <point x="243" y="39" type="line"/>
      <point x="596" y="698" type="line"/>
      <point x="635" y="698" type="line"/>
      <point x="258" y="0" type="line"/>
    </contour>
  </outline>
</glyph>
<glyph name="Y" format="2">
  <advance width="549"/>
  <unicode hex="0059"/>
  <outline>
    <contour>
      <point x="205" y="0" type="line"/>
      <point x="263" y="289" type="line"/>
      <point x="108" y="698" type="line"/>
      <point x="145" y="698" type="line"/>
      <point x="285" y="329" type="line"/>
      <point x="289" y="329" type="line"/>
      <point x="577" y="698" type="line"/>
      <point x="619" y="698" type="line"/>
      <point x="299" y="289" type="line"/>
      <point x="241" y="0" type="line"/>
    </contour>
  </outline>
</glyph>
<glyph name="bracketleft" format="2">
  <advance width="306"/>
  <unicode hex="005B"/>
  <outline>
    <contour>
      <point x="27" y="-138" type="line"/>
      <point x="207" y="760" type="line"/>
      <point x="340" y="760" type="line"/>
      <point x="333" y="732" type="line"/>
      <point x="233" y="732" type="line"/>
      <point x="65" y="-110" type="line"/>
      <point x="165" y="-110" type="line"/>
      <point x="159" y="-138" type="line"/>
    </contour>
  </outline>
</glyph>
<glyph name="f" format="2">
  <advance width="288"/>
  <unicode hex="0066"/>
  <outline>
    <contour>
      <point x="-65" y="-200" type="line"/>
      <point x="-59" y="-169" type="line"/>
      <point x="36" y="-169" type="line"/>
      <point x="164" y="477" type="line"/>
      <point x="68" y="477" type="line"/>
      <point x="74" y="508" type="line"/>
      <point x="170" y="508" type="line"/>
      <point x="205" y="688" type="line" smooth="yes"/>
      <point x="210" y="715"/>
      <point x="222" y="727" type="qcurve"/>
      <point x="236" y="740"/>
      <point x="265" y="740" type="qcurve" smooth="yes"/>
      <point x="355" y="740" type="line"/>
      <point x="349" y="709" type="line"/>
      <point x="243" y="709" type="line"/>
      <point x="204" y="508" type="line"/>
      <point x="308" y="508" type="line"/>
      <point x="302" y="477" type="line"/>
      <point x="198" y="477" type="line"/>
      <point x="74" y="-148" type="line"/>
      <point x="70" y="-174"/>
      <point x="57" y="-187" type="qcurve"/>
      <point x="45" y="-200"/>
      <point x="15" y="-200" type="qcurve" smooth="yes"/>
    </contour>
  </outline>
</glyph>
<glyph name="i" format="2">
  <advance width="242"/>
  <unicode hex="0069"/>
  <outline>
    <contour>
      <point x="89" y="0" type="line" smooth="yes"/>
      <point x="56" y="0"/>
      <point x="56" y="28" type="qcurve" smooth="yes"/>
      <point x="56" y="37"/>
      <point x="150" y="508" type="qcurve"/>
      <point x="184" y="508" type="line"/>
      <point x="89" y="31" type="line"/>
      <point x="171" y="31" type="line"/>
      <point x="165" y="0" type="line"/>
    </contour>
    <contour>
      <point x="200" y="664" type="qcurve" smooth="yes"/>
      <point x="176" y="664"/>
      <point x="175" y="685" type="qcurve"/>
      <point x="175" y="694"/>
      <point x="178" y="702" type="qcurve"/>
      <point x="181" y="726"/>
      <point x="211" y="726" type="qcurve" smooth="yes"/>
      <point x="236" y="726"/>
      <point x="236" y="705" type="qcurve" smooth="yes"/>
      <point x="236" y="664"/>
    </contour>
  </outline>
</glyph>
<glyph name="y" format="2">
  <advance width="466"/>
  <unicode hex="0079"/>
  <outline>
    <contour>
      <point x="-23" y="-200" type="line"/>
      <point x="-17" y="-170" type="line"/>
      <point x="69" y="-170" type="line"/>
      <point x="161" y="-6" type="line"/>
      <point x="72" y="508" type="line"/>
      <point x="105" y="508" type="line"/>
      <point x="184" y="38" type="line"/>
      <point x="188" y="38" type="line"/>
      <point x="450" y="508" type="line"/>
      <point x="487" y="508" type="line"/>
      <point x="108" y="-161" type="line"/>
      <point x="98" y="-182"/>
      <point x="85" y="-191" type="qcurve"/>
      <point x="74" y="-200"/>
      <point x="53" y="-200" type="qcurve" smooth="yes"/>
    </contour>
  </outline>
</glyph>
<glyph name="z" format="2">
  <advance width="434"/>
  <unicode hex="007A"/>
  <outline>
    <contour>
      <point x="-2" y="0" type="line"/>
      <point x="4" y="31" type="line"/>
      <point x="391" y="478" type="line"/>
      <point x="90" y="478" type="line"/>
      <point x="96" y="508" type="line"/>
      <point x="436" y="508" type="line"/>
      <point x="430" y="477" type="line"/>
      <point x="44" y="31" type="line"/>
      <point x="357" y="31" type="line"/>
      <point x="351" y="0" type="line"/>
    </contour>
  </outline>
</glyph>
<glyph name="exclamdown" format="2">
  <advance width="253"/>
  <unicode hex="00A1"/>
  <outline>
    <contour>
      <point x="165" y="440" type="qcurve" smooth="yes"/>
      <point x="134" y="440"/>
      <point x="134" y="464" type="qcurve" smooth="yes"/>
      <point x="134" y="472"/>
      <point x="137" y="486" type="qcurve" smooth="yes"/>
      <point x="142" y="515"/>
      <point x="172" y="515" type="qcurve" smooth="yes"/>
      <point x="175" y="515" type="line" smooth="yes"/>
      <point x="206" y="515"/>
      <point x="206" y="491" type="qcurve" smooth="yes"/>
      <point x="206" y="484"/>
      <point x="203" y="469" type="qcurve" smooth="yes"/>
      <point x="198" y="440"/>
    </contour>
    <contour>
      <point x="19" y="-190" type="line"/>
      <point x="71" y="74" type="line"/>
      <point x="132" y="330" type="line"/>
      <point x="150" y="330" type="line"/>
      <point x="108" y="74" type="line"/>
      <point x="56" y="-190" type="line"/>
    </contour>
  </outline>
</glyph>
<glyph name="copyright" format="2">
  <advance width="721"/>
  <unicode hex="00A9"/>
  <outline>
    <contour>
      <point x="348" y="150" type="qcurve" smooth="yes"/>
      <point x="291" y="150"/>
      <point x="253" y="188" type="qcurve"/>
      <point x="216" y="227"/>
      <point x="216" y="301" type="qcurve" smooth="yes"/>
      <point x="216" y="408"/>
      <point x="269" y="475" type="qcurve" smooth="yes"/>
      <point x="321" y="542"/>
      <point x="402" y="543" type="qcurve"/>
      <point x="411" y="543" type="line" smooth="yes"/>
      <point x="456" y="543"/>
      <point x="485" y="519" type="qcurve" smooth="yes"/>
      <point x="516" y="494"/>
      <point x="526" y="460" type="qcurve"/>
      <point x="499" y="450" type="line"/>
      <point x="475" y="516"/>
      <point x="405" y="516" type="qcurve" smooth="yes"/>
      <point x="351" y="516"/>
      <point x="312" y="479" type="qcurve" smooth="yes"/>
      <point x="273" y="443"/>
      <point x="258" y="371" type="qcurve" smooth="yes"/>
      <point x="249" y="326"/>
      <point x="249" y="299" type="qcurve"/>
      <point x="255" y="179"/>
      <point x="351" y="179" type="qcurve" smooth="yes"/>
      <point x="423" y="179"/>
      <point x="463" y="248" type="qcurve"/>
      <point x="486" y="233" type="line"/>
      <point x="466" y="198"/>
      <point x="430" y="174" type="qcurve" smooth="yes"/>
      <point x="394" y="150"/>
    </contour>
    <contour>
      <point x="328" y="15" type="qcurve"/>
      <point x="460" y="16"/>
      <point x="549" y="98" type="qcurve" smooth="yes"/>
      <point x="638" y="178"/>
      <point x="662" y="295" type="qcurve" smooth="yes"/>
      <point x="677" y="373"/>
      <point x="677" y="411" type="qcurve" smooth="yes"/>
      <point x="677" y="415" type="line" smooth="yes"/>
      <point x="677" y="533"/>
      <point x="610" y="607" type="qcurve" smooth="yes"/>
      <point x="542" y="682"/>
      <point x="420" y="682" type="qcurve" smooth="yes"/>
      <point x="291" y="682"/>
      <point x="201" y="602" type="qcurve" smooth="yes"/>
      <point x="113" y="522"/>
      <point x="86" y="402" type="qcurve"/>
      <point x="71" y="327"/>
      <point x="71" y="285" type="qcurve" smooth="yes"/>
      <point x="71" y="165"/>
      <point x="139" y="90" type="qcurve" smooth="yes"/>
      <point x="208" y="15"/>
    </contour>
    <contour>
      <point x="327" y="-12" type="qcurve" smooth="yes"/>
      <point x="198" y="-12"/>
      <point x="119" y="69" type="qcurve" smooth="yes"/>
      <point x="40" y="150"/>
      <point x="40" y="285" type="qcurve" smooth="yes"/>
      <point x="40" y="379"/>
      <point x="69" y="457" type="qcurve"/>
      <point x="100" y="535"/>
      <point x="151" y="592" type="qcurve"/>
      <point x="262" y="710"/>
      <point x="421" y="710" type="qcurve" smooth="yes"/>
      <point x="552" y="710"/>
      <point x="630" y="630" type="qcurve" smooth="yes"/>
      <point x="708" y="550"/>
      <point x="708" y="412" type="qcurve" smooth="yes"/>
      <point x="708" y="319"/>
      <point x="679" y="241" type="qcurve" smooth="yes"/>
      <point x="650" y="163"/>
      <point x="598" y="106" type="qcurve" smooth="yes"/>
      <point x="488" y="-12"/>
    </contour>
  </outline>
</glyph>
<glyph name="ordfeminine" format="2">
  <advance width="363"/>
  <unicode hex="00AA"/>
  <outline>
    <contour>
      <point x="175" y="388" type="qcurve" smooth="yes"/>
      <point x="220" y="388"/>
      <point x="256" y="409" type="qcurve" smooth="yes"/>
      <point x="294" y="432"/>
      <point x="302" y="472" type="qcurve" smooth="yes"/>
      <point x="313" y="525" type="line"/>
      <point x="223" y="525" type="line" smooth="yes"/>
      <point x="107" y="525"/>
      <point x="107" y="441" type="qcurve"/>
      <point x="109" y="388"/>
    </contour>
    <contour>
      <point x="170" y="363" type="qcurve" smooth="yes"/>
      <point x="125" y="363"/>
      <point x="101" y="384" type="qcurve" smooth="yes"/>
      <point x="77" y="406"/>
      <point x="77" y="440" type="qcurve"/>
      <point x="78" y="488"/>
      <point x="111" y="518" type="qcurve" smooth="yes"/>
      <point x="145" y="549"/>
      <point x="222" y="549" type="qcurve" smooth="yes"/>
      <point x="318" y="549" type="line"/>
      <point x="327" y="598" type="line"/>
      <point x="329" y="607"/>
      <point x="329" y="615" type="qcurve" smooth="yes"/>
      <point x="329" y="623" type="line" smooth="yes"/>
      <point x="329" y="657"/>
      <point x="309" y="670" type="qcurve"/>
      <point x="290" y="685"/>
      <point x="251" y="685" type="qcurve" smooth="yes"/>
      <point x="249" y="685" type="line" smooth="yes"/>
      <point x="181" y="685"/>
      <point x="144" y="629" type="qcurve"/>
      <point x="124" y="643" type="line"/>
      <point x="168" y="710"/>
      <point x="254" y="710" type="qcurve" smooth="yes"/>
      <point x="358" y="710"/>
      <point x="358" y="620" type="qcurve" smooth="yes"/>
      <point x="358" y="612"/>
      <point x="316" y="396" type="qcurve"/>
      <point x="361" y="396" type="line"/>
      <point x="355" y="370" type="line"/>
      <point x="311" y="370" type="line" smooth="yes"/>
      <point x="287" y="370"/>
      <point x="287" y="388" type="qcurve"/>
      <point x="293" y="419" type="line"/>
      <point x="291" y="419" type="line"/>
      <point x="252" y="363"/>
    </contour>
  </outline>
</glyph>
<glyph name="guillemotleft" format="2">
  <advance width="472"/>
  <unicode hex="00AB"/>
  <outline>
    <contour>
      <point x="222" y="276" type="line"/>
      <point x="228" y="309" type="line"/>
      <point x="458" y="483" type="line"/>
      <point x="466" y="456" type="line"/>
      <point x="260" y="288" type="line"/>
      <point x="398" y="121" type="line"/>
      <point x="382" y="99" type="line"/>
    </contour>
    <contour>
      <point x="40" y="276" type="line"/>
      <point x="46" y="309" type="line"/>
      <point x="276" y="483" type="line"/>
      <point x="284" y="456" type="line"/>
      <point x="78" y="288" type="line"/>
      <point x="216" y="121" type="line"/>
      <point x="200" y="99" type="line"/>
    </contour>
  </outline>
</glyph>
<glyph name="degree" format="2">
  <advance width="463"/>
  <unicode hex="00B0"/>
  <outline>
    <contour>
      <point x="269" y="372" type="qcurve" smooth="yes"/>
      <point x="210" y="372"/>
      <point x="168" y="414" type="qcurve"/>
      <point x="128" y="456"/>
      <point x="127" y="522" type="qcurve" smooth="yes"/>
      <point x="127" y="606"/>
      <point x="179" y="657" type="qcurve" smooth="yes"/>
      <point x="233" y="710"/>
      <point x="308" y="710" type="qcurve" smooth="yes"/>
      <point x="371" y="710"/>
      <point x="410" y="668" type="qcurve" smooth="yes"/>
      <point x="450" y="626"/>
      <point x="450" y="560" type="qcurve" smooth="yes"/>
      <point x="450" y="479"/>
      <point x="398" y="425" type="qcurve" smooth="yes"/>
      <point x="347" y="372"/>
    </contour>
    <contour>
      <point x="273" y="402" type="qcurve" smooth="yes"/>
      <point x="336" y="402"/>
      <point x="376" y="447" type="qcurve" smooth="yes"/>
      <point x="417" y="491"/>
      <point x="417" y="555" type="qcurve"/>
      <point x="417" y="555"/>
      <point x="417" y="555" type="qcurve"/>
      <point x="417" y="555"/>
      <point x="417" y="555" type="qcurve"/>
      <point x="417" y="555"/>
      <point x="417" y="555" type="qcurve"/>
      <point x="417" y="555"/>
      <point x="417" y="555" type="qcurve"/>
      <point x="417" y="555"/>
      <point x="417" y="555" type="qcurve"/>
      <point x="417" y="555"/>
      <point x="417" y="555" type="qcurve"/>
      <point x="417" y="555"/>
      <point x="417" y="555" type="qcurve"/>
      <point x="417" y="555"/>
      <point x="417" y="556" type="qcurve"/>
      <point x="417" y="556"/>
      <point x="417" y="556" type="qcurve"/>
      <point x="417" y="556"/>
      <point x="417" y="556" type="qcurve"/>
      <point x="417" y="556"/>
      <point x="417" y="556" type="qcurve"/>
      <point x="417" y="556"/>
      <point x="417" y="556" type="qcurve"/>
      <point x="417" y="557" type="line"/>
      <point x="417" y="557"/>
      <point x="417" y="557" type="qcurve"/>
      <point x="417" y="557"/>
      <point x="417" y="557" type="qcurve"/>
      <point x="417" y="557"/>
      <point x="417" y="557" type="qcurve"/>
      <point x="417" y="557"/>
      <point x="417" y="557" type="qcurve"/>
      <point x="417" y="557"/>
      <point x="417" y="558" type="qcurve"/>
      <point x="417" y="558"/>
      <point x="417" y="558" type="qcurve"/>
      <point x="417" y="558"/>
      <point x="417" y="558" type="qcurve"/>
      <point x="417" y="558"/>
      <point x="417" y="558" type="qcurve"/>
      <point x="417" y="558"/>
      <point x="417" y="558" type="qcurve"/>
      <point x="417" y="558"/>
      <point x="417" y="558" type="qcurve"/>
      <point x="417" y="558"/>
      <point x="417" y="558" type="qcurve"/>
      <point x="417" y="558"/>
      <point x="417" y="558" type="qcurve"/>
      <point x="417" y="558"/>
      <point x="417" y="558" type="qcurve"/>
      <point x="417" y="558"/>
      <point x="417" y="559" type="qcurve"/>
      <point x="417" y="559"/>
      <point x="417" y="559" type="qcurve"/>
      <point x="417" y="559"/>
      <point x="417" y="559" type="qcurve"/>
      <point x="417" y="559"/>
      <point x="417" y="559" type="qcurve"/>
      <point x="417" y="559"/>
      <point x="417" y="559" type="qcurve"/>
      <point x="417" y="559"/>
      <point x="417" y="559" type="qcurve"/>
      <point x="417" y="559"/>
      <point x="417" y="559" type="qcurve"/>
      <point x="417" y="559"/>
      <point x="417" y="559" type="qcurve"/>
      <point x="417" y="559"/>
      <point x="417" y="560" type="qcurve"/>
      <point x="417" y="560"/>
      <point x="417" y="560" type="qcurve"/>
      <point x="417" y="560"/>
      <point x="417" y="560" type="qcurve"/>
      <point x="417" y="560"/>
      <point x="417" y="560" type="qcurve"/>
      <point x="417" y="560"/>
      <point x="417" y="560" type="qcurve"/>
      <point x="417" y="561" type="line"/>
      <point x="417" y="561"/>
      <point x="417" y="561" type="qcurve"/>
      <point x="417" y="561"/>
      <point x="417" y="561" type="qcurve"/>
      <point x="417" y="613"/>
      <point x="388" y="645" type="qcurve"/>
      <point x="360" y="680"/>
      <point x="304" y="680" type="qcurve" smooth="yes"/>
      <point x="244" y="680"/>
      <point x="202" y="635" type="qcurve" smooth="yes"/>
      <point x="160" y="590"/>
      <point x="160" y="524" type="qcurve" smooth="yes"/>
      <point x="160" y="472"/>
      <point x="189" y="437" type="qcurve" smooth="yes"/>
      <point x="219" y="402"/>
    </contour>
    <contour>
      <point x="417" y="557" type="qcurve"/>
      <point x="417" y="557"/>
      <point x="417" y="557" type="qcurve"/>
      <point x="417" y="557"/>
      <point x="417" y="557" type="qcurve"/>
      <point x="417" y="557"/>
    </contour>
  </outline>
</glyph>
<glyph name="u00B9" format="2">
  <advance width="304"/>
  <unicode hex="00B9"/>
  <outline>
    <contour>
      <point x="205" y="329" type="line"/>
      <point x="186" y="329" type="line"/>
      <point x="254" y="680" type="line"/>
      <point x="166" y="639" type="line"/>
      <point x="170" y="659" type="line"/>
      <point x="254" y="698" type="line"/>
      <point x="277" y="698" type="line"/>
    </contour>
  </outline>
</glyph>
<glyph name="onequarter" format="2">
  <advance width="789"/>
  <unicode hex="00BC"/>
  <outline>
    <contour>
      <point x="697" y="337" type="line"/>
      <point x="694" y="337" type="line"/>
      <point x="477" y="109" type="line"/>
      <point x="651" y="109" type="line"/>
    </contour>
    <contour>
      <point x="629" y="0" type="line"/>
      <point x="646" y="85" type="line"/>
      <point x="441" y="85" type="line"/>
      <point x="446" y="112" type="line"/>
      <point x="692" y="369" type="line"/>
      <point x="731" y="369" type="line"/>
      <point x="680" y="109" type="line"/>
      <point x="742" y="109" type="line"/>
      <point x="737" y="85" type="line"/>
      <point x="674" y="85" type="line"/>
      <point x="657" y="0" type="line"/>
    </contour>
    <contour>
      <point x="95" y="0" type="line"/>
      <point x="701" y="698" type="line"/>
      <point x="735" y="698" type="line"/>
      <point x="129" y="0" type="line"/>
    </contour>
    <contour>
      <point x="210" y="329" type="line"/>
      <point x="182" y="329" type="line"/>
      <point x="249" y="671" type="line"/>
      <point x="161" y="629" type="line"/>
      <point x="166" y="657" type="line"/>
      <point x="251" y="698" type="line"/>
      <point x="283" y="698" type="line"/>
    </contour>
  </outline>
</glyph>
<glyph name="onehalf" format="2">
  <advance width="806"/>
  <unicode hex="00BD"/>
  <outline>
    <contour>
      <point x="456" y="0" type="line"/>
      <point x="462" y="29" type="line"/>
      <point x="617" y="139" type="line"/>
      <point x="710" y="200"/>
      <point x="722" y="254" type="qcurve"/>
      <point x="725" y="272"/>
      <point x="725" y="278" type="qcurve" smooth="yes"/>
      <point x="724" y="350"/>
      <point x="643" y="350" type="qcurve" smooth="yes"/>
      <point x="566" y="350"/>
      <point x="533" y="276" type="qcurve"/>
      <point x="508" y="286" type="line"/>
      <point x="547" y="374"/>
      <point x="641" y="375" type="qcurve"/>
      <point x="646" y="375" type="line" smooth="yes"/>
      <point x="696" y="375"/>
      <point x="726" y="348" type="qcurve" smooth="yes"/>
      <point x="756" y="321"/>
      <point x="756" y="279" type="qcurve" smooth="yes"/>
      <point x="756" y="232"/>
      <point x="724" y="196" type="qcurve" smooth="yes"/>
      <point x="691" y="160"/>
      <point x="633" y="121" type="qcurve" smooth="yes"/>
      <point x="494" y="25" type="line"/>
      <point x="718" y="25" type="line"/>
      <point x="713" y="0" type="line"/>
    </contour>
    <contour>
      <point x="95" y="0" type="line"/>
      <point x="701" y="698" type="line"/>
      <point x="735" y="698" type="line"/>
      <point x="129" y="0" type="line"/>
    </contour>
    <contour>
      <point x="210" y="329" type="line"/>
      <point x="182" y="329" type="line"/>
      <point x="249" y="671" type="line"/>
      <point x="161" y="629" type="line"/>
      <point x="166" y="657" type="line"/>
      <point x="251" y="698" type="line"/>
      <point x="283" y="698" type="line"/>
    </contour>
  </outline>
</glyph>
<glyph name="threequarters" format="2">
  <advance width="814"/>
  <unicode hex="00BE"/>
  <outline>
    <contour>
      <point x="120" y="0" type="line"/>
      <point x="726" y="698" type="line"/>
      <point x="760" y="698" type="line"/>
      <point x="154" y="0" type="line"/>
    </contour>
    <contour>
      <point x="654" y="0" type="line"/>
      <point x="671" y="85" type="line"/>
      <point x="466" y="85" type="line"/>
      <point x="471" y="112" type="line"/>
      <point x="717" y="369" type="line"/>
      <point x="756" y="369" type="line"/>
      <point x="705" y="109" type="line"/>
      <point x="767" y="109" type="line"/>
      <point x="762" y="85" type="line"/>
      <point x="699" y="85" type="line"/>
      <point x="682" y="0" type="line"/>
    </contour>
    <contour>
      <point x="722" y="337" type="line"/>
      <point x="719" y="337" type="line"/>
      <point x="502" y="109" type="line"/>
      <point x="676" y="109" type="line"/>
    </contour>
    <contour>
      <point x="188" y="323" type="qcurve" smooth="yes"/>
      <point x="96" y="323"/>
      <point x="67" y="383" type="qcurve"/>
      <point x="88" y="398" type="line"/>
      <point x="100" y="376"/>
      <point x="123" y="362" type="qcurve" smooth="yes"/>
      <point x="147" y="348"/>
      <point x="189" y="348" type="qcurve" smooth="yes"/>
      <point x="281" y="348"/>
      <point x="296" y="424" type="qcurve"/>
      <point x="297" y="427" type="line"/>
      <point x="298" y="432"/>
      <point x="298" y="444" type="qcurve" smooth="yes"/>
      <point x="298" y="476"/>
      <point x="279" y="491" type="qcurve"/>
      <point x="260" y="508"/>
      <point x="215" y="508" type="qcurve" smooth="yes"/>
      <point x="165" y="508" type="line"/>
      <point x="169" y="533" type="line"/>
      <point x="215" y="533" type="line"/>
      <point x="314" y="534"/>
      <point x="323" y="598" type="qcurve"/>
      <point x="324" y="601" type="line"/>
      <point x="325" y="605"/>
      <point x="325" y="610" type="qcurve" smooth="yes"/>
      <point x="325" y="611" type="line"/>
      <point x="325" y="611"/>
      <point x="325" y="611" type="qcurve"/>
      <point x="325" y="611"/>
      <point x="325" y="611" type="qcurve"/>
      <point x="325" y="612" type="line"/>
      <point x="325" y="612"/>
      <point x="325" y="612" type="qcurve"/>
      <point x="325" y="612"/>
      <point x="325" y="612" type="qcurve"/>
      <point x="325" y="612"/>
      <point x="325" y="612" type="qcurve"/>
      <point x="325" y="616" type="line"/>
      <point x="325" y="616"/>
      <point x="325" y="616" type="qcurve"/>
      <point x="325" y="616"/>
      <point x="325" y="616" type="qcurve"/>
      <point x="325" y="617" type="line"/>
      <point x="325" y="617"/>
      <point x="325" y="617" type="qcurve"/>
      <point x="325" y="617"/>
      <point x="325" y="617" type="qcurve"/>
      <point x="325" y="619" type="line" smooth="yes"/>
      <point x="325" y="647"/>
      <point x="306" y="662" type="qcurve"/>
      <point x="289" y="679"/>
      <point x="251" y="679" type="qcurve"/>
      <point x="251" y="679"/>
      <point x="251" y="679" type="qcurve"/>
      <point x="251" y="679"/>
      <point x="251" y="679" type="qcurve"/>
      <point x="251" y="679"/>
      <point x="251" y="679" type="qcurve"/>
      <point x="251" y="679"/>
      <point x="251" y="679" type="qcurve"/>
      <point x="251" y="679"/>
      <point x="251" y="679" type="qcurve"/>
      <point x="251" y="679"/>
      <point x="251" y="679" type="qcurve"/>
      <point x="251" y="679"/>
      <point x="251" y="679" type="qcurve"/>
      <point x="251" y="679"/>
      <point x="251" y="679" type="qcurve"/>
      <point x="250" y="679" type="line"/>
      <point x="250" y="679"/>
      <point x="250" y="679" type="qcurve"/>
      <point x="250" y="679"/>
      <point x="250" y="679" type="qcurve"/>
      <point x="250" y="679"/>
      <point x="250" y="679" type="qcurve"/>
      <point x="249" y="679" type="line"/>
      <point x="249" y="679"/>
      <point x="249" y="679" type="qcurve"/>
      <point x="249" y="679"/>
      <point x="249" y="679" type="qcurve"/>
      <point x="249" y="679"/>
      <point x="249" y="679" type="qcurve"/>
      <point x="247" y="679" type="line"/>
      <point x="247" y="679"/>
      <point x="247" y="679" type="qcurve"/>
      <point x="247" y="679"/>
      <point x="247" y="679" type="qcurve"/>
      <point x="246" y="679" type="line"/>
      <point x="246" y="679"/>
      <point x="246" y="679" type="qcurve"/>
      <point x="246" y="679"/>
      <point x="246" y="679" type="qcurve"/>
      <point x="246" y="679"/>
      <point x="246" y="679" type="qcurve"/>
      <point x="245" y="679" type="line"/>
      <point x="245" y="679"/>
      <point x="245" y="679" type="qcurve"/>
      <point x="245" y="679"/>
      <point x="245" y="679" type="qcurve"/>
      <point x="245" y="679"/>
      <point x="245" y="679" type="qcurve"/>
      <point x="242" y="679" type="line" smooth="yes"/>
      <point x="209" y="679"/>
      <point x="187" y="668" type="qcurve" smooth="yes"/>
      <point x="164" y="656"/>
      <point x="143" y="633" type="qcurve"/>
      <point x="124" y="649" type="line"/>
      <point x="166" y="704"/>
      <point x="250" y="704" type="qcurve" smooth="yes"/>
      <point x="302" y="704"/>
      <point x="328" y="680" type="qcurve" smooth="yes"/>
      <point x="355" y="656"/>
      <point x="355" y="616" type="qcurve" smooth="yes"/>
      <point x="355" y="538"/>
      <point x="265" y="521" type="qcurve"/>
      <point x="265" y="519" type="line"/>
      <point x="327" y="510"/>
      <point x="327" y="446" type="qcurve" smooth="yes"/>
      <point x="327" y="444" type="line"/>
      <point x="327" y="444"/>
      <point x="327" y="444" type="qcurve"/>
      <point x="327" y="444"/>
      <point x="327" y="444" type="qcurve"/>
      <point x="327" y="444"/>
      <point x="327" y="444" type="qcurve"/>
      <point x="327" y="444"/>
      <point x="327" y="444" type="qcurve"/>
      <point x="327" y="444"/>
      <point x="327" y="444" type="qcurve"/>
      <point x="327" y="441" type="line" smooth="yes"/>
      <point x="327" y="389"/>
      <point x="290" y="356" type="qcurve" smooth="yes"/>
      <point x="252" y="323"/>
    </contour>
  </outline>
</glyph>
<glyph name="Aacute" format="2">
  <advance width="601"/>
  <unicode hex="00C1"/>
  <outline>
    <contour>
      <point x="372" y="661" type="line"/>
      <point x="368" y="661" type="line"/>
      <point x="158" y="259" type="line"/>
      <point x="444" y="259" type="line"/>
    </contour>
    <contour>
      <point x="349" y="783" type="line"/>
      <point x="483" y="940" type="line"/>
      <point x="512" y="921" type="line"/>
      <point x="371" y="769" type="line"/>
    </contour>
    <contour>
      <point x="489" y="0" type="line"/>
      <point x="449" y="227" type="line"/>
      <point x="142" y="227" type="line"/>
      <point x="23" y="0" type="line"/>
      <point x="-16" y="0" type="line"/>
      <point x="352" y="698" type="line"/>
      <point x="400" y="698" type="line"/>
      <point x="526" y="0" type="line"/>
    </contour>
  </outline>
</glyph>
<glyph name="Acircumflex" format="2">
  <advance width="601"/>
  <unicode hex="00C2"/>
  <outline>
    <contour>
      <point x="372" y="661" type="line"/>
      <point x="368" y="661" type="line"/>
      <point x="158" y="259" type="line"/>
      <point x="444" y="259" type="line"/>
    </contour>
    <contour>
      <point x="417" y="903" type="line"/>
      <point x="272" y="779" type="line"/>
      <point x="252" y="796" type="line"/>
      <point x="400" y="930" type="line"/>
      <point x="440" y="930" type="line"/>
      <point x="541" y="794" type="line"/>
      <point x="519" y="779" type="line"/>
    </contour>
    <contour>
      <point x="489" y="0" type="line"/>
      <point x="449" y="227" type="line"/>
      <point x="142" y="227" type="line"/>
      <point x="23" y="0" type="line"/>
      <point x="-16" y="0" type="line"/>
      <point x="352" y="698" type="line"/>
      <point x="400" y="698" type="line"/>
      <point x="526" y="0" type="line"/>
    </contour>
  </outline>
</glyph>
<glyph name="Atilde" format="2">
  <advance width="601"/>
  <unicode hex="00C3"/>
  <outline>
    <contour>
      <point x="372" y="661" type="line"/>
      <point x="368" y="661" type="line"/>
      <point x="158" y="259" type="line"/>
      <point x="444" y="259" type="line"/>
    </contour>
    <contour>
      <point x="489" y="0" type="line"/>
      <point x="449" y="227" type="line"/>
      <point x="142" y="227" type="line"/>
      <point x="23" y="0" type="line"/>
      <point x="-16" y="0" type="line"/>
      <point x="352" y="698" type="line"/>
      <point x="400" y="698" type="line"/>
      <point x="526" y="0" type="line"/>
    </contour>
    <contour>
      <point x="472" y="806" type="qcurve" smooth="yes"/>
      <point x="451" y="806"/>
      <point x="436" y="813" type="qcurve"/>
      <point x="421" y="822"/>
      <point x="400" y="835" type="qcurve"/>
      <point x="381" y="850"/>
      <point x="366" y="855" type="qcurve"/>
      <point x="353" y="861"/>
      <point x="336" y="861" type="qcurve" smooth="yes"/>
      <point x="333" y="861" type="line" smooth="yes"/>
      <point x="301" y="861"/>
      <point x="269" y="829" type="qcurve"/>
      <point x="254" y="847" type="line"/>
      <point x="297" y="890"/>
      <point x="342" y="890" type="qcurve" smooth="yes"/>
      <point x="347" y="890" type="line" smooth="yes"/>
      <point x="365" y="890"/>
      <point x="378" y="883" type="qcurve"/>
      <point x="394" y="876"/>
      <point x="414" y="861" type="qcurve"/>
      <point x="435" y="847"/>
      <point x="448" y="841" type="qcurve"/>
      <point x="463" y="835"/>
      <point x="479" y="835" type="qcurve" smooth="yes"/>
      <point x="515" y="835"/>
      <point x="545" y="867" type="qcurve"/>
      <point x="560" y="849" type="line"/>
      <point x="520" y="806"/>
    </contour>
  </outline>
</glyph>
<glyph name="Aring" format="2">
  <advance width="601"/>
  <unicode hex="00C5"/>
  <outline>
    <contour>
      <point x="400" y="793" type="qcurve"/>
      <point x="429" y="794"/>
      <point x="449" y="809" type="qcurve" smooth="yes"/>
      <point x="470" y="825"/>
      <point x="476" y="857" type="qcurve"/>
      <point x="479" y="869"/>
      <point x="479" y="873" type="qcurve"/>
      <point x="480" y="877"/>
      <point x="480" y="881" type="qcurve" smooth="yes"/>
      <point x="480" y="885" type="line" smooth="yes"/>
      <point x="480" y="936"/>
      <point x="420" y="936" type="qcurve" smooth="yes"/>
      <point x="392" y="936"/>
      <point x="371" y="920" type="qcurve"/>
      <point x="350" y="905"/>
      <point x="344" y="872" type="qcurve"/>
      <point x="344" y="866" type="line" smooth="yes"/>
      <point x="344" y="859"/>
      <point x="342" y="855" type="qcurve"/>
      <point x="340" y="850"/>
      <point x="340" y="844" type="qcurve"/>
      <point x="343" y="793"/>
    </contour>
    <contour>
      <point x="372" y="661" type="line"/>
      <point x="368" y="661" type="line"/>
      <point x="158" y="259" type="line"/>
      <point x="444" y="259" type="line"/>
    </contour>
    <contour>
      <point x="396" y="768" type="qcurve" smooth="yes"/>
      <point x="351" y="768"/>
      <point x="332" y="793" type="qcurve" smooth="yes"/>
      <point x="313" y="819"/>
      <point x="313" y="846" type="qcurve" smooth="yes"/>
      <point x="313" y="898"/>
      <point x="343" y="929" type="qcurve"/>
      <point x="372" y="961"/>
      <point x="421" y="961" type="qcurve" smooth="yes"/>
      <point x="427" y="961" type="line" smooth="yes"/>
      <point x="469" y="961"/>
      <point x="487" y="937" type="qcurve"/>
      <point x="507" y="913"/>
      <point x="507" y="883" type="qcurve" smooth="yes"/>
      <point x="507" y="832"/>
      <point x="477" y="800" type="qcurve" smooth="yes"/>
      <point x="447" y="768"/>
    </contour>
    <contour>
      <point x="489" y="0" type="line"/>
      <point x="449" y="227" type="line"/>
      <point x="142" y="227" type="line"/>
      <point x="23" y="0" type="line"/>
      <point x="-16" y="0" type="line"/>
      <point x="352" y="698" type="line"/>
      <point x="400" y="698" type="line"/>
      <point x="526" y="0" type="line"/>
    </contour>
  </outline>
</glyph>
<glyph name="Ccedilla" format="2">
  <advance width="597"/>
  <unicode hex="00C7"/>
  <outline>
    <contour>
      <point x="264" y="-203" type="qcurve"/>
      <point x="204" y="-203"/>
      <point x="183" y="-170" type="qcurve"/>
      <point x="203" y="-150" type="line"/>
      <point x="222" y="-177"/>
      <point x="264" y="-177" type="qcurve" smooth="yes"/>
      <point x="294" y="-177"/>
      <point x="312" y="-162" type="qcurve"/>
      <point x="331" y="-147"/>
      <point x="331" y="-126" type="qcurve" smooth="yes"/>
      <point x="331" y="-121" type="line" smooth="yes"/>
      <point x="331" y="-105"/>
      <point x="320" y="-97" type="qcurve"/>
      <point x="308" y="-86"/>
      <point x="278" y="-84" type="qcurve" smooth="yes"/>
      <point x="243" y="-82" type="line"/>
      <point x="272" y="-11" type="line"/>
      <point x="186" y="-6"/>
      <point x="129" y="50" type="qcurve" smooth="yes"/>
      <point x="66" y="114"/>
      <point x="66" y="231" type="qcurve" smooth="yes"/>
      <point x="66" y="309"/>
      <point x="85" y="393" type="qcurve"/>
      <point x="106" y="477"/>
      <point x="145" y="549" type="qcurve" smooth="yes"/>
      <point x="185" y="620"/>
      <point x="247" y="665" type="qcurve" smooth="yes"/>
      <point x="310" y="710"/>
      <point x="396" y="710" type="qcurve" smooth="yes"/>
      <point x="558" y="710"/>
      <point x="595" y="565" type="qcurve"/>
      <point x="562" y="553" type="line"/>
      <point x="547" y="611"/>
      <point x="508" y="644" type="qcurve" smooth="yes"/>
      <point x="469" y="677"/>
      <point x="394" y="677" type="qcurve" smooth="yes"/>
      <point x="388" y="677" type="line"/>
      <point x="293" y="676"/>
      <point x="223" y="601" type="qcurve" smooth="yes"/>
      <point x="152" y="524"/>
      <point x="125" y="394" type="qcurve" smooth="yes"/>
      <point x="111" y="325" type="line"/>
      <point x="102" y="268"/>
      <point x="102" y="226" type="qcurve" smooth="yes"/>
      <point x="102" y="134"/>
      <point x="151" y="77" type="qcurve" smooth="yes"/>
      <point x="200" y="21"/>
      <point x="292" y="21" type="qcurve" smooth="yes"/>
      <point x="364" y="22"/>
      <point x="411" y="56" type="qcurve" smooth="yes"/>
      <point x="461" y="92"/>
      <point x="497" y="160" type="qcurve"/>
      <point x="528" y="145" type="line"/>
      <point x="449" y="-9"/>
      <point x="297" y="-12" type="qcurve"/>
      <point x="273" y="-70" type="line"/>
      <point x="275" y="-72" type="line"/>
      <point x="281" y="-71" type="line"/>
      <point x="291" y="-69"/>
      <point x="299" y="-69" type="qcurve" smooth="yes"/>
      <point x="304" y="-69" type="line" smooth="yes"/>
      <point x="362" y="-69"/>
      <point x="362" y="-123" type="qcurve" smooth="yes"/>
      <point x="362" y="-156"/>
      <point x="336" y="-180" type="qcurve"/>
      <point x="309" y="-202"/>
    </contour>
  </outline>
</glyph>
<glyph name="Ecircumflex" format="2">
  <advance width="556"/>
  <unicode hex="00CA"/>
  <outline>
    <contour>
      <point x="425" y="903" type="line"/>
      <point x="280" y="779" type="line"/>
      <point x="260" y="796" type="line"/>
      <point x="408" y="930" type="line"/>
      <point x="448" y="930" type="line"/>
      <point x="549" y="794" type="line"/>
      <point x="527" y="779" type="line"/>
    </contour>
    <contour>
      <point x="50" y="0" type="line"/>
      <point x="190" y="698" type="line"/>
      <point x="576" y="698" type="line"/>
      <point x="570" y="666" type="line"/>
      <point x="220" y="666" type="line"/>
      <point x="160" y="370" type="line"/>
      <point x="493" y="370" type="line"/>
      <point x="487" y="338" type="line"/>
      <point x="153" y="338" type="line"/>
      <point x="92" y="32" type="line"/>
      <point x="447" y="32" type="line"/>
      <point x="440" y="0" type="line"/>
    </contour>
  </outline>
</glyph>
<glyph name="Edieresis" format="2">
  <advance width="556"/>
  <unicode hex="00CB"/>
  <outline>
    <contour>
      <point x="50" y="0" type="line"/>
      <point x="190" y="698" type="line"/>
      <point x="576" y="698" type="line"/>
      <point x="570" y="666" type="line"/>
      <point x="220" y="666" type="line"/>
      <point x="160" y="370" type="line"/>
      <point x="493" y="370" type="line"/>
      <point x="487" y="338" type="line"/>
      <point x="153" y="338" type="line"/>
      <point x="92" y="32" type="line"/>
      <point x="447" y="32" type="line"/>
      <point x="440" y="0" type="line"/>
    </contour>
    <contour>
      <point x="320" y="818" type="qcurve" smooth="yes"/>
      <point x="295" y="818"/>
      <point x="295" y="839" type="qcurve" smooth="yes"/>
      <point x="295" y="844"/>
      <point x="298" y="855" type="qcurve" smooth="yes"/>
      <point x="301" y="867"/>
      <point x="307" y="873" type="qcurve"/>
      <point x="315" y="880"/>
      <point x="329" y="880" type="qcurve" smooth="yes"/>
      <point x="354" y="880"/>
      <point x="354" y="861" type="qcurve" smooth="yes"/>
      <point x="354" y="859" type="line" smooth="yes"/>
      <point x="354" y="855"/>
      <point x="351" y="843" type="qcurve"/>
      <point x="349" y="833"/>
      <point x="342" y="825" type="qcurve"/>
      <point x="335" y="818"/>
    </contour>
    <contour>
      <point x="502" y="818" type="qcurve" smooth="yes"/>
      <point x="477" y="818"/>
      <point x="477" y="839" type="qcurve" smooth="yes"/>
      <point x="477" y="844"/>
      <point x="480" y="855" type="qcurve" smooth="yes"/>
      <point x="483" y="867"/>
      <point x="489" y="873" type="qcurve"/>
      <point x="497" y="880"/>
      <point x="511" y="880" type="qcurve" smooth="yes"/>
      <point x="536" y="880"/>
      <point x="536" y="861" type="qcurve" smooth="yes"/>
      <point x="536" y="859" type="line" smooth="yes"/>
      <point x="536" y="855"/>
      <point x="533" y="843" type="qcurve"/>
      <point x="531" y="833"/>
      <point x="524" y="825" type="qcurve"/>
      <point x="517" y="818"/>
    </contour>
  </outline>
</glyph>
<glyph name="Igrave" format="2">
  <advance width="238"/>
  <unicode hex="00CC"/>
  <outline>
    <contour>
      <point x="162" y="923" type="line"/>
      <point x="193" y="939" type="line"/>
      <point x="269" y="780" type="line"/>
      <point x="246" y="769" type="line"/>
    </contour>
    <contour>
      <point x="50" y="0" type="line"/>
      <point x="190" y="698" type="line"/>
      <point x="226" y="698" type="line"/>
      <point x="86" y="0" type="line"/>
    </contour>
  </outline>
</glyph>
<glyph name="Iacute" format="2">
  <advance width="238"/>
  <unicode hex="00CD"/>
  <outline>
    <contour>
      <point x="180" y="783" type="line"/>
      <point x="314" y="940" type="line"/>
      <point x="343" y="921" type="line"/>
      <point x="202" y="769" type="line"/>
    </contour>
    <contour>
      <point x="50" y="0" type="line"/>
      <point x="190" y="698" type="line"/>
      <point x="226" y="698" type="line"/>
      <point x="86" y="0" type="line"/>
    </contour>
  </outline>
</glyph>
<glyph name="Icircumflex" format="2">
  <advance width="238"/>
  <unicode hex="00CE"/>
  <outline>
    <contour>
      <point x="248" y="903" type="line"/>
      <point x="103" y="779" type="line"/>
      <point x="83" y="796" type="line"/>
      <point x="231" y="930" type="line"/>
      <point x="271" y="930" type="line"/>
      <point x="372" y="794" type="line"/>
      <point x="350" y="779" type="line"/>
    </contour>
    <contour>
      <point x="50" y="0" type="line"/>
      <point x="190" y="698" type="line"/>
      <point x="226" y="698" type="line"/>
      <point x="86" y="0" type="line"/>
    </contour>
  </outline>
</glyph>
<glyph name="Idieresis" format="2">
  <advance width="238"/>
  <unicode hex="00CF"/>
  <outline>
    <contour>
      <point x="50" y="0" type="line"/>
      <point x="190" y="698" type="line"/>
      <point x="226" y="698" type="line"/>
      <point x="86" y="0" type="line"/>
    </contour>
    <contour>
      <point x="325" y="818" type="qcurve" smooth="yes"/>
      <point x="300" y="818"/>
      <point x="300" y="839" type="qcurve" smooth="yes"/>
      <point x="300" y="844"/>
      <point x="303" y="855" type="qcurve" smooth="yes"/>
      <point x="306" y="867"/>
      <point x="312" y="873" type="qcurve"/>
      <point x="320" y="880"/>
      <point x="334" y="880" type="qcurve" smooth="yes"/>
      <point x="359" y="880"/>
      <point x="359" y="861" type="qcurve" smooth="yes"/>
      <point x="359" y="859" type="line" smooth="yes"/>
      <point x="359" y="855"/>
      <point x="356" y="843" type="qcurve"/>
      <point x="354" y="833"/>
      <point x="347" y="825" type="qcurve"/>
      <point x="340" y="818"/>
    </contour>
    <contour>
      <point x="143" y="818" type="qcurve" smooth="yes"/>
      <point x="118" y="818"/>
      <point x="118" y="839" type="qcurve" smooth="yes"/>
      <point x="118" y="844"/>
      <point x="121" y="855" type="qcurve" smooth="yes"/>
      <point x="124" y="867"/>
      <point x="130" y="873" type="qcurve"/>
      <point x="138" y="880"/>
      <point x="152" y="880" type="qcurve" smooth="yes"/>
      <point x="177" y="880"/>
      <point x="177" y="861" type="qcurve" smooth="yes"/>
      <point x="177" y="859" type="line" smooth="yes"/>
      <point x="177" y="855"/>
      <point x="174" y="843" type="qcurve"/>
      <point x="172" y="833"/>
      <point x="165" y="825" type="qcurve"/>
      <point x="158" y="818"/>
    </contour>
  </outline>
</glyph>
<glyph name="Ntilde" format="2">
  <advance width="681"/>
  <unicode hex="00D1"/>
  <outline>
    <contour>
      <point x="483" y="0" type="line"/>
      <point x="217" y="649" type="line"/>
      <point x="214" y="649" type="line"/>
      <point x="85" y="0" type="line"/>
      <point x="50" y="0" type="line"/>
      <point x="190" y="698" type="line"/>
      <point x="235" y="698" type="line"/>
      <point x="501" y="49" type="line"/>
      <point x="504" y="49" type="line"/>
      <point x="633" y="698" type="line"/>
      <point x="668" y="698" type="line"/>
      <point x="528" y="0" type="line"/>
    </contour>
    <contour>
      <point x="524" y="806" type="qcurve" smooth="yes"/>
      <point x="503" y="806"/>
      <point x="488" y="813" type="qcurve"/>
      <point x="473" y="822"/>
      <point x="452" y="835" type="qcurve"/>
      <point x="433" y="850"/>
      <point x="418" y="855" type="qcurve"/>
      <point x="405" y="861"/>
      <point x="388" y="861" type="qcurve" smooth="yes"/>
      <point x="385" y="861" type="line" smooth="yes"/>
      <point x="353" y="861"/>
      <point x="321" y="829" type="qcurve"/>
      <point x="306" y="847" type="line"/>
      <point x="349" y="890"/>
      <point x="394" y="890" type="qcurve" smooth="yes"/>
      <point x="399" y="890" type="line" smooth="yes"/>
      <point x="417" y="890"/>
      <point x="430" y="883" type="qcurve"/>
      <point x="446" y="876"/>
      <point x="466" y="861" type="qcurve"/>
      <point x="487" y="847"/>
      <point x="500" y="841" type="qcurve"/>
      <point x="515" y="835"/>
      <point x="531" y="835" type="qcurve" smooth="yes"/>
      <point x="567" y="835"/>
      <point x="597" y="867" type="qcurve"/>
      <point x="612" y="849" type="line"/>
      <point x="572" y="806"/>
    </contour>
  </outline>
</glyph>
<glyph name="Odieresis" format="2">
  <advance width="663"/>
  <unicode hex="00D6"/>
  <outline>
    <contour>
      <point x="404" y="677" type="qcurve" smooth="yes"/>
      <point x="395" y="677" type="line"/>
      <point x="298" y="676"/>
      <point x="151" y="524"/>
      <point x="124" y="389" type="qcurve" smooth="yes"/>
      <point x="111" y="323" type="line"/>
      <point x="102" y="266"/>
      <point x="102" y="224" type="qcurve" smooth="yes"/>
      <point x="102" y="132"/>
      <point x="151" y="76" type="qcurve"/>
      <point x="202" y="22"/>
      <point x="295" y="21" type="qcurve"/>
      <point x="298" y="21" type="line" smooth="yes"/>
      <point x="401" y="21"/>
      <point x="472" y="98" type="qcurve" smooth="yes"/>
      <point x="546" y="176"/>
      <point x="572" y="309" type="qcurve" smooth="yes"/>
      <point x="585" y="375" type="line"/>
      <point x="594" y="434"/>
      <point x="594" y="473" type="qcurve" smooth="yes"/>
      <point x="594" y="478" type="line" smooth="yes"/>
      <point x="594" y="569"/>
      <point x="496" y="677"/>
    </contour>
    <contour>
      <point x="630" y="463" type="line" smooth="yes"/>
      <point x="630" y="365"/>
      <point x="562" y="142"/>
      <point x="406" y="-12"/>
      <point x="194" y="-12"/>
      <point x="130" y="49" type="qcurve" smooth="yes"/>
      <point x="66" y="112"/>
      <point x="66" y="332"/>
      <point x="135" y="556"/>
      <point x="210" y="631" type="qcurve"/>
      <point x="292" y="710"/>
      <point x="504" y="710"/>
      <point x="567" y="648" type="qcurve" smooth="yes"/>
      <point x="630" y="586"/>
      <point x="630" y="469" type="qcurve" smooth="yes"/>
    </contour>
    <contour>
      <point x="337" y="818" type="qcurve" smooth="yes"/>
      <point x="312" y="818"/>
      <point x="312" y="839" type="qcurve" smooth="yes"/>
      <point x="312" y="844"/>
      <point x="315" y="855" type="qcurve" smooth="yes"/>
      <point x="318" y="867"/>
      <point x="324" y="873" type="qcurve"/>
      <point x="332" y="880"/>
      <point x="346" y="880" type="qcurve" smooth="yes"/>
      <point x="371" y="880"/>
      <point x="371" y="861" type="qcurve" smooth="yes"/>
      <point x="371" y="859" type="line" smooth="yes"/>
      <point x="371" y="855"/>
      <point x="368" y="843" type="qcurve"/>
      <point x="366" y="833"/>
      <point x="359" y="825" type="qcurve"/>
      <point x="352" y="818"/>
    </contour>
    <contour>
      <point x="519" y="818" type="qcurve" smooth="yes"/>
      <point x="494" y="818"/>
      <point x="494" y="839" type="qcurve" smooth="yes"/>
      <point x="494" y="844"/>
      <point x="497" y="855" type="qcurve" smooth="yes"/>
      <point x="500" y="867"/>
      <point x="506" y="873" type="qcurve"/>
      <point x="514" y="880"/>
      <point x="528" y="880" type="qcurve" smooth="yes"/>
      <point x="553" y="880"/>
      <point x="553" y="861" type="qcurve" smooth="yes"/>
      <point x="553" y="859" type="line" smooth="yes"/>
      <point x="553" y="855"/>
      <point x="550" y="843" type="qcurve"/>
      <point x="548" y="833"/>
      <point x="541" y="825" type="qcurve"/>
      <point x="534" y="818"/>
    </contour>
  </outline>
</glyph>
<glyph name="Ucircumflex" format="2">
  <advance width="643"/>
  <unicode hex="00DB"/>
  <outline>
    <contour>
      <point x="275" y="-12" type="qcurve" smooth="yes"/>
      <point x="184" y="-12"/>
      <point x="133" y="31" type="qcurve" smooth="yes"/>
      <point x="82" y="74"/>
      <point x="82" y="158" type="qcurve" smooth="yes"/>
      <point x="82" y="212"/>
      <point x="99" y="280" type="qcurve"/>
      <point x="182" y="698" type="line"/>
      <point x="218" y="698" type="line"/>
      <point x="133" y="271" type="line"/>
      <point x="118" y="202"/>
      <point x="118" y="160" type="qcurve" smooth="yes"/>
      <point x="118" y="95"/>
      <point x="157" y="58" type="qcurve" smooth="yes"/>
      <point x="196" y="22"/>
      <point x="277" y="21" type="qcurve"/>
      <point x="281" y="21" type="line" smooth="yes"/>
      <point x="385" y="21"/>
      <point x="436" y="77" type="qcurve"/>
      <point x="490" y="134"/>
      <point x="516" y="274" type="qcurve" smooth="yes"/>
      <point x="601" y="698" type="line"/>
      <point x="637" y="698" type="line"/>
      <point x="552" y="272" type="line"/>
      <point x="524" y="114"/>
      <point x="462" y="51" type="qcurve" smooth="yes"/>
      <point x="400" y="-12"/>
    </contour>
    <contour>
      <point x="450" y="903" type="line"/>
      <point x="305" y="779" type="line"/>
      <point x="285" y="796" type="line"/>
      <point x="433" y="930" type="line"/>
      <point x="473" y="930" type="line"/>
      <point x="574" y="794" type="line"/>
      <point x="552" y="779" type="line"/>
    </contour>
  </outline>
</glyph>
<glyph name="Udieresis" format="2">
  <advance width="643"/>
  <unicode hex="00DC"/>
  <outline>
    <contour>
      <point x="275" y="-12" type="qcurve" smooth="yes"/>
      <point x="184" y="-12"/>
      <point x="133" y="31" type="qcurve" smooth="yes"/>
      <point x="82" y="74"/>
      <point x="82" y="158" type="qcurve" smooth="yes"/>
      <point x="82" y="212"/>
      <point x="99" y="280" type="qcurve"/>
      <point x="182" y="698" type="line"/>
      <point x="218" y="698" type="line"/>
      <point x="133" y="271" type="line"/>
      <point x="118" y="202"/>
      <point x="118" y="160" type="qcurve" smooth="yes"/>
      <point x="118" y="95"/>
      <point x="157" y="58" type="qcurve" smooth="yes"/>
      <point x="196" y="22"/>
      <point x="277" y="21" type="qcurve"/>
      <point x="281" y="21" type="line" smooth="yes"/>
      <point x="385" y="21"/>
      <point x="436" y="77" type="qcurve"/>
      <point x="490" y="134"/>
      <point x="516" y="274" type="qcurve" smooth="yes"/>
      <point x="601" y="698" type="line"/>
      <point x="637" y="698" type="line"/>
      <point x="552" y="272" type="line"/>
      <point x="524" y="114"/>
      <point x="462" y="51" type="qcurve" smooth="yes"/>
      <point x="400" y="-12"/>
    </contour>
    <contour>
      <point x="345" y="818" type="qcurve" smooth="yes"/>
      <point x="320" y="818"/>
      <point x="320" y="839" type="qcurve" smooth="yes"/>
      <point x="320" y="844"/>
      <point x="323" y="855" type="qcurve" smooth="yes"/>
      <point x="326" y="867"/>
      <point x="332" y="873" type="qcurve"/>
      <point x="340" y="880"/>
      <point x="354" y="880" type="qcurve" smooth="yes"/>
      <point x="379" y="880"/>
      <point x="379" y="861" type="qcurve" smooth="yes"/>
      <point x="379" y="859" type="line" smooth="yes"/>
      <point x="379" y="855"/>
      <point x="376" y="843" type="qcurve"/>
      <point x="374" y="833"/>
      <point x="367" y="825" type="qcurve"/>
      <point x="360" y="818"/>
    </contour>
    <contour>
      <point x="527" y="818" type="qcurve" smooth="yes"/>
      <point x="502" y="818"/>
      <point x="502" y="839" type="qcurve" smooth="yes"/>
      <point x="502" y="844"/>
      <point x="505" y="855" type="qcurve" smooth="yes"/>
      <point x="508" y="867"/>
      <point x="514" y="873" type="qcurve"/>
      <point x="522" y="880"/>
      <point x="536" y="880" type="qcurve" smooth="yes"/>
      <point x="561" y="880"/>
      <point x="561" y="861" type="qcurve" smooth="yes"/>
      <point x="561" y="859" type="line" smooth="yes"/>
      <point x="561" y="855"/>
      <point x="558" y="843" type="qcurve"/>
      <point x="556" y="833"/>
      <point x="549" y="825" type="qcurve"/>
      <point x="542" y="818"/>
    </contour>
  </outline>
</glyph>
<glyph name="Thorn" format="2">
  <advance width="591"/>
  <unicode hex="00DE"/>
  <outline>
    <contour>
      <point x="50" y="0" type="line"/>
      <point x="190" y="698" type="line"/>
      <point x="226" y="698" type="line"/>
      <point x="195" y="545" type="line"/>
      <point x="410" y="545" type="line"/>
      <point x="410" y="545"/>
      <point x="410" y="545" type="qcurve"/>
      <point x="410" y="545"/>
      <point x="410" y="545" type="qcurve"/>
      <point x="411" y="545" type="line"/>
      <point x="411" y="545"/>
      <point x="411" y="545" type="qcurve"/>
      <point x="411" y="545"/>
      <point x="411" y="545" type="qcurve"/>
      <point x="411" y="545"/>
      <point x="411" y="545" type="qcurve"/>
      <point x="412" y="545" type="line"/>
      <point x="412" y="545"/>
      <point x="412" y="545" type="qcurve"/>
      <point x="412" y="545"/>
      <point x="412" y="545" type="qcurve"/>
      <point x="413" y="545" type="line" smooth="yes"/>
      <point x="489" y="545"/>
      <point x="527" y="502" type="qcurve"/>
      <point x="567" y="460"/>
      <point x="567" y="393" type="qcurve"/>
      <point x="567" y="393"/>
      <point x="567" y="393" type="qcurve"/>
      <point x="567" y="393"/>
      <point x="567" y="393" type="qcurve"/>
      <point x="567" y="393"/>
      <point x="567" y="393" type="qcurve"/>
      <point x="567" y="393"/>
      <point x="567" y="393" type="qcurve"/>
      <point x="567" y="393"/>
      <point x="567" y="393" type="qcurve"/>
      <point x="567" y="392" type="line"/>
      <point x="567" y="392"/>
      <point x="567" y="392" type="qcurve"/>
      <point x="567" y="392"/>
      <point x="567" y="392" type="qcurve"/>
      <point x="567" y="392"/>
      <point x="567" y="392" type="qcurve"/>
      <point x="567" y="392"/>
      <point x="567" y="392" type="qcurve"/>
      <point x="567" y="392"/>
      <point x="567" y="392" type="qcurve"/>
      <point x="567" y="391" type="line"/>
      <point x="567" y="391"/>
      <point x="567" y="391" type="qcurve"/>
      <point x="567" y="391"/>
      <point x="567" y="391" type="qcurve"/>
      <point x="567" y="389" type="line" smooth="yes"/>
      <point x="567" y="287"/>
      <point x="510" y="225" type="qcurve" smooth="yes"/>
      <point x="453" y="163"/>
      <point x="351" y="163" type="qcurve" smooth="yes"/>
      <point x="119" y="163" type="line"/>
      <point x="86" y="0" type="line"/>
    </contour>
    <contour>
      <point x="355" y="195" type="line" smooth="yes"/>
      <point x="428" y="195"/>
      <point x="468" y="231" type="qcurve" smooth="yes"/>
      <point x="510" y="268"/>
      <point x="520" y="326" type="qcurve"/>
      <point x="526" y="356"/>
      <point x="528" y="372" type="qcurve"/>
      <point x="530" y="396" type="line"/>
      <point x="530" y="446"/>
      <point x="501" y="479" type="qcurve"/>
      <point x="473" y="513"/>
      <point x="407" y="513" type="qcurve" smooth="yes"/>
      <point x="189" y="513" type="line"/>
      <point x="125" y="195" type="line"/>
    </contour>
  </outline>
</glyph>
<glyph name="germandbls" format="2">
  <advance width="631"/>
  <unicode hex="00DF"/>
  <outline>
    <contour>
      <point x="391" y="-12" type="qcurve" smooth="yes"/>
      <point x="266" y="-12"/>
      <point x="203" y="85" type="qcurve"/>
      <point x="229" y="105" type="line"/>
      <point x="286" y="18"/>
      <point x="391" y="18" type="qcurve" smooth="yes"/>
      <point x="455" y="18"/>
      <point x="494" y="50" type="qcurve" smooth="yes"/>
      <point x="534" y="82"/>
      <point x="534" y="142" type="qcurve" smooth="yes"/>
      <point x="534" y="146" type="line" smooth="yes"/>
      <point x="534" y="181"/>
      <point x="516" y="200" type="qcurve" smooth="yes"/>
      <point x="498" y="220"/>
      <point x="458" y="232" type="qcurve"/>
      <point x="411" y="249" type="line"/>
      <point x="366" y="263"/>
      <point x="337" y="287" type="qcurve"/>
      <point x="310" y="313"/>
      <point x="309" y="367" type="qcurve"/>
      <point x="310" y="438"/>
      <point x="370" y="474" type="qcurve" smooth="yes"/>
      <point x="432" y="510"/>
      <point x="528" y="510" type="qcurve"/>
      <point x="538" y="550"/>
      <point x="538" y="589" type="qcurve" smooth="yes"/>
      <point x="538" y="652"/>
      <point x="506" y="687" type="qcurve" smooth="yes"/>
      <point x="473" y="722"/>
      <point x="407" y="722" type="qcurve" smooth="yes"/>
      <point x="245" y="722"/>
      <point x="206" y="522" type="qcurve" smooth="yes"/>
      <point x="102" y="0" type="line"/>
      <point x="69" y="0" type="line"/>
      <point x="163" y="478" type="line"/>
      <point x="70" y="478" type="line"/>
      <point x="76" y="508" type="line"/>
      <point x="169" y="508" type="line"/>
      <point x="172" y="523" type="line" smooth="yes"/>
      <point x="193" y="628"/>
      <point x="253" y="690" type="qcurve" smooth="yes"/>
      <point x="311" y="751"/>
      <point x="408" y="752" type="qcurve"/>
      <point x="414" y="752" type="line" smooth="yes"/>
      <point x="488" y="752"/>
      <point x="529" y="709" type="qcurve" smooth="yes"/>
      <point x="571" y="665"/>
      <point x="571" y="589" type="qcurve" smooth="yes"/>
      <point x="571" y="556"/>
      <point x="565" y="521" type="qcurve"/>
      <point x="557" y="481" type="line"/>
      <point x="531" y="481" type="line" smooth="yes"/>
      <point x="344" y="481"/>
      <point x="343" y="368" type="qcurve" smooth="yes"/>
      <point x="343" y="330"/>
      <point x="361" y="311" type="qcurve"/>
      <point x="379" y="293"/>
      <point x="418" y="279" type="qcurve" smooth="yes"/>
      <point x="465" y="263" type="line"/>
      <point x="510" y="250"/>
      <point x="539" y="224" type="qcurve"/>
      <point x="568" y="200"/>
      <point x="568" y="143" type="qcurve" smooth="yes"/>
      <point x="568" y="70"/>
      <point x="517" y="28" type="qcurve"/>
      <point x="466" y="-12"/>
    </contour>
  </outline>
</glyph>
<glyph name="atilde" format="2">
  <advance width="571"/>
  <unicode hex="00E3"/>
  <outline>
    <contour>
      <point x="225" y="19" type="qcurve" smooth="yes"/>
      <point x="290" y="19"/>
      <point x="334" y="61" type="qcurve"/>
      <point x="398" y="112"/>
      <point x="420" y="211" type="qcurve"/>
      <point x="447" y="344" type="line" smooth="yes"/>
      <point x="450" y="358"/>
      <point x="450" y="370" type="qcurve" smooth="yes"/>
      <point x="450" y="408"/>
      <point x="426" y="441" type="qcurve" smooth="yes"/>
      <point x="411" y="462"/>
      <point x="381" y="475" type="qcurve"/>
      <point x="353" y="489"/>
      <point x="314" y="489" type="qcurve" smooth="yes"/>
      <point x="309" y="489" type="line" smooth="yes"/>
      <point x="228" y="489"/>
      <point x="177" y="435" type="qcurve" smooth="yes"/>
      <point x="126" y="382"/>
      <point x="107" y="286" type="qcurve" smooth="yes"/>
      <point x="99" y="242" type="line"/>
      <point x="93" y="216"/>
      <point x="93" y="175" type="qcurve" smooth="yes"/>
      <point x="93" y="112"/>
      <point x="125" y="65" type="qcurve"/>
      <point x="161" y="20"/>
    </contour>
    <contour>
      <point x="220" y="-12" type="qcurve" smooth="yes"/>
      <point x="142" y="-12"/>
      <point x="101" y="42" type="qcurve"/>
      <point x="58" y="94"/>
      <point x="58" y="178" type="qcurve" smooth="yes"/>
      <point x="58" y="310"/>
      <point x="122" y="415" type="qcurve"/>
      <point x="154" y="465"/>
      <point x="200" y="492" type="qcurve" smooth="yes"/>
      <point x="248" y="520"/>
      <point x="308" y="520" type="qcurve" smooth="yes"/>
      <point x="368" y="520"/>
      <point x="406" y="493" type="qcurve" smooth="yes"/>
      <point x="445" y="466"/>
      <point x="459" y="417" type="qcurve"/>
      <point x="462" y="417" type="line"/>
      <point x="480" y="508" type="line"/>
      <point x="514" y="508" type="line"/>
      <point x="419" y="31" type="line"/>
      <point x="501" y="31" type="line"/>
      <point x="495" y="0" type="line"/>
      <point x="419" y="0" type="line"/>
      <point x="386" y="2"/>
      <point x="385" y="29" type="qcurve"/>
      <point x="386" y="38"/>
      <point x="386" y="43" type="qcurve"/>
      <point x="388" y="48"/>
      <point x="400" y="111" type="qcurve"/>
      <point x="397" y="111" type="line"/>
      <point x="366" y="54"/>
      <point x="324" y="21" type="qcurve" smooth="yes"/>
      <point x="282" y="-12"/>
    </contour>
    <contour>
      <point x="403" y="624" type="qcurve" smooth="yes"/>
      <point x="382" y="624"/>
      <point x="367" y="631" type="qcurve"/>
      <point x="352" y="640"/>
      <point x="331" y="653" type="qcurve"/>
      <point x="312" y="668"/>
      <point x="297" y="673" type="qcurve"/>
      <point x="284" y="679"/>
      <point x="267" y="679" type="qcurve" smooth="yes"/>
      <point x="264" y="679" type="line" smooth="yes"/>
      <point x="232" y="679"/>
      <point x="200" y="647" type="qcurve"/>
      <point x="185" y="665" type="line"/>
      <point x="228" y="708"/>
      <point x="273" y="708" type="qcurve" smooth="yes"/>
      <point x="278" y="708" type="line" smooth="yes"/>
      <point x="296" y="708"/>
      <point x="309" y="701" type="qcurve"/>
      <point x="325" y="694"/>
      <point x="345" y="679" type="qcurve"/>
      <point x="366" y="665"/>
      <point x="379" y="659" type="qcurve"/>
      <point x="394" y="653"/>
      <point x="410" y="653" type="qcurve" smooth="yes"/>
      <point x="446" y="653"/>
      <point x="476" y="685" type="qcurve"/>
      <point x="491" y="667" type="line"/>
      <point x="451" y="624"/>
    </contour>
  </outline>
</glyph>
<glyph name="adieresis" format="2">
  <advance width="571"/>
  <unicode hex="00E4"/>
  <outline>
    <contour>
      <point x="225" y="19" type="qcurve" smooth="yes"/>
      <point x="290" y="19"/>
      <point x="334" y="61" type="qcurve"/>
      <point x="398" y="112"/>
      <point x="420" y="211" type="qcurve"/>
      <point x="447" y="344" type="line" smooth="yes"/>
      <point x="450" y="358"/>
      <point x="450" y="370" type="qcurve" smooth="yes"/>
      <point x="450" y="408"/>
      <point x="426" y="441" type="qcurve" smooth="yes"/>
      <point x="411" y="462"/>
      <point x="381" y="475" type="qcurve"/>
      <point x="353" y="489"/>
      <point x="314" y="489" type="qcurve" smooth="yes"/>
      <point x="309" y="489" type="line" smooth="yes"/>
      <point x="228" y="489"/>
      <point x="177" y="435" type="qcurve" smooth="yes"/>
      <point x="126" y="382"/>
      <point x="107" y="286" type="qcurve" smooth="yes"/>
      <point x="99" y="242" type="line"/>
      <point x="93" y="216"/>
      <point x="93" y="175" type="qcurve" smooth="yes"/>
      <point x="93" y="112"/>
      <point x="125" y="65" type="qcurve"/>
      <point x="161" y="20"/>
    </contour>
    <contour>
      <point x="220" y="-12" type="qcurve" smooth="yes"/>
      <point x="142" y="-12"/>
      <point x="101" y="42" type="qcurve"/>
      <point x="58" y="94"/>
      <point x="58" y="178" type="qcurve" smooth="yes"/>
      <point x="58" y="310"/>
      <point x="122" y="415" type="qcurve"/>
      <point x="154" y="465"/>
      <point x="200" y="492" type="qcurve" smooth="yes"/>
      <point x="248" y="520"/>
      <point x="308" y="520" type="qcurve" smooth="yes"/>
      <point x="368" y="520"/>
      <point x="406" y="493" type="qcurve" smooth="yes"/>
      <point x="445" y="466"/>
      <point x="459" y="417" type="qcurve"/>
      <point x="462" y="417" type="line"/>
      <point x="480" y="508" type="line"/>
      <point x="514" y="508" type="line"/>
      <point x="419" y="31" type="line"/>
      <point x="501" y="31" type="line"/>
      <point x="495" y="0" type="line"/>
      <point x="419" y="0" type="line"/>
      <point x="386" y="2"/>
      <point x="385" y="29" type="qcurve"/>
      <point x="386" y="38"/>
      <point x="386" y="43" type="qcurve"/>
      <point x="388" y="48"/>
      <point x="400" y="111" type="qcurve"/>
      <point x="397" y="111" type="line"/>
      <point x="366" y="54"/>
      <point x="324" y="21" type="qcurve" smooth="yes"/>
      <point x="282" y="-12"/>
    </contour>
    <contour>
      <point x="425" y="636" type="qcurve" smooth="yes"/>
      <point x="400" y="636"/>
      <point x="400" y="657" type="qcurve" smooth="yes"/>
      <point x="400" y="662"/>
      <point x="403" y="673" type="qcurve" smooth="yes"/>
      <point x="406" y="685"/>
      <point x="412" y="691" type="qcurve"/>
      <point x="420" y="698"/>
      <point x="434" y="698" type="qcurve" smooth="yes"/>
      <point x="459" y="698"/>
      <point x="459" y="679" type="qcurve" smooth="yes"/>
      <point x="459" y="677" type="line" smooth="yes"/>
      <point x="459" y="673"/>
      <point x="456" y="661" type="qcurve"/>
      <point x="454" y="651"/>
      <point x="447" y="643" type="qcurve"/>
      <point x="440" y="636"/>
    </contour>
    <contour>
      <point x="243" y="636" type="qcurve" smooth="yes"/>
      <point x="218" y="636"/>
      <point x="218" y="657" type="qcurve" smooth="yes"/>
      <point x="218" y="662"/>
      <point x="221" y="673" type="qcurve" smooth="yes"/>
      <point x="224" y="685"/>
      <point x="230" y="691" type="qcurve"/>
      <point x="238" y="698"/>
      <point x="252" y="698" type="qcurve" smooth="yes"/>
      <point x="277" y="698"/>
      <point x="277" y="679" type="qcurve" smooth="yes"/>
      <point x="277" y="677" type="line" smooth="yes"/>
      <point x="277" y="673"/>
      <point x="274" y="661" type="qcurve"/>
      <point x="272" y="651"/>
      <point x="265" y="643" type="qcurve"/>
      <point x="258" y="636"/>
    </contour>
  </outline>
</glyph>
<glyph name="aring" format="2">
  <advance width="571"/>
  <unicode hex="00E5"/>
  <outline>
    <contour>
      <point x="225" y="19" type="qcurve" smooth="yes"/>
      <point x="290" y="19"/>
      <point x="334" y="61" type="qcurve"/>
      <point x="398" y="112"/>
      <point x="420" y="211" type="qcurve"/>
      <point x="447" y="344" type="line" smooth="yes"/>
      <point x="450" y="358"/>
      <point x="450" y="370" type="qcurve" smooth="yes"/>
      <point x="450" y="408"/>
      <point x="426" y="441" type="qcurve" smooth="yes"/>
      <point x="411" y="462"/>
      <point x="381" y="475" type="qcurve"/>
      <point x="353" y="489"/>
      <point x="314" y="489" type="qcurve" smooth="yes"/>
      <point x="309" y="489" type="line" smooth="yes"/>
      <point x="228" y="489"/>
      <point x="177" y="435" type="qcurve" smooth="yes"/>
      <point x="126" y="382"/>
      <point x="107" y="286" type="qcurve" smooth="yes"/>
      <point x="99" y="242" type="line"/>
      <point x="93" y="216"/>
      <point x="93" y="175" type="qcurve" smooth="yes"/>
      <point x="93" y="112"/>
      <point x="125" y="65" type="qcurve"/>
      <point x="161" y="20"/>
    </contour>
    <contour>
      <point x="331" y="611" type="qcurve"/>
      <point x="360" y="612"/>
      <point x="380" y="627" type="qcurve" smooth="yes"/>
      <point x="401" y="643"/>
      <point x="407" y="675" type="qcurve"/>
      <point x="410" y="687"/>
      <point x="410" y="691" type="qcurve"/>
      <point x="411" y="695"/>
      <point x="411" y="699" type="qcurve" smooth="yes"/>
      <point x="411" y="703" type="line" smooth="yes"/>
      <point x="411" y="754"/>
      <point x="351" y="754" type="qcurve" smooth="yes"/>
      <point x="323" y="754"/>
      <point x="302" y="738" type="qcurve"/>
      <point x="281" y="723"/>
      <point x="275" y="690" type="qcurve"/>
      <point x="275" y="684" type="line" smooth="yes"/>
      <point x="275" y="677"/>
      <point x="273" y="673" type="qcurve"/>
      <point x="271" y="668"/>
      <point x="271" y="662" type="qcurve"/>
      <point x="274" y="611"/>
    </contour>
    <contour>
      <point x="220" y="-12" type="qcurve" smooth="yes"/>
      <point x="142" y="-12"/>
      <point x="101" y="42" type="qcurve"/>
      <point x="58" y="94"/>
      <point x="58" y="178" type="qcurve" smooth="yes"/>
      <point x="58" y="310"/>
      <point x="122" y="415" type="qcurve"/>
      <point x="154" y="465"/>
      <point x="200" y="492" type="qcurve" smooth="yes"/>
      <point x="248" y="520"/>
      <point x="308" y="520" type="qcurve" smooth="yes"/>
      <point x="368" y="520"/>
      <point x="406" y="493" type="qcurve" smooth="yes"/>
      <point x="445" y="466"/>
      <point x="459" y="417" type="qcurve"/>
      <point x="462" y="417" type="line"/>
      <point x="480" y="508" type="line"/>
      <point x="514" y="508" type="line"/>
      <point x="419" y="31" type="line"/>
      <point x="501" y="31" type="line"/>
      <point x="495" y="0" type="line"/>
      <point x="419" y="0" type="line"/>
      <point x="386" y="2"/>
      <point x="385" y="29" type="qcurve"/>
      <point x="386" y="38"/>
      <point x="386" y="43" type="qcurve"/>
      <point x="388" y="48"/>
      <point x="400" y="111" type="qcurve"/>
      <point x="397" y="111" type="line"/>
      <point x="366" y="54"/>
      <point x="324" y="21" type="qcurve" smooth="yes"/>
      <point x="282" y="-12"/>
    </contour>
    <contour>
      <point x="327" y="586" type="qcurve" smooth="yes"/>
      <point x="282" y="586"/>
      <point x="263" y="611" type="qcurve" smooth="yes"/>
      <point x="244" y="637"/>
      <point x="244" y="664" type="qcurve" smooth="yes"/>
      <point x="244" y="716"/>
      <point x="274" y="747" type="qcurve"/>
      <point x="303" y="779"/>
      <point x="350" y="779" type="qcurve" smooth="yes"/>
      <point x="358" y="779" type="line" smooth="yes"/>
      <point x="400" y="779"/>
      <point x="418" y="755" type="qcurve"/>
      <point x="438" y="731"/>
      <point x="438" y="701" type="qcurve" smooth="yes"/>
      <point x="438" y="650"/>
      <point x="408" y="618" type="qcurve" smooth="yes"/>
      <point x="378" y="586"/>
    </contour>
  </outline>
</glyph>
<glyph name="icircumflex" format="2">
  <advance width="242"/>
  <unicode hex="00EE"/>
  <outline>
    <contour>
      <point x="89" y="0" type="line" smooth="yes"/>
      <point x="56" y="0"/>
      <point x="56" y="28" type="qcurve" smooth="yes"/>
      <point x="56" y="37"/>
      <point x="150" y="508" type="qcurve"/>
      <point x="184" y="508" type="line"/>
      <point x="89" y="31" type="line"/>
      <point x="171" y="31" type="line"/>
      <point x="165" y="0" type="line"/>
    </contour>
    <contour>
      <point x="208" y="721" type="line"/>
      <point x="63" y="597" type="line"/>
      <point x="43" y="614" type="line"/>
      <point x="191" y="748" type="line"/>
      <point x="231" y="748" type="line"/>
      <point x="332" y="612" type="line"/>
      <point x="310" y="597" type="line"/>
    </contour>
  </outline>
</glyph>
<glyph name="idieresis" format="2">
  <advance width="242"/>
  <unicode hex="00EF"/>
  <outline>
    <contour>
      <point x="89" y="0" type="line" smooth="yes"/>
      <point x="56" y="0"/>
      <point x="56" y="28" type="qcurve" smooth="yes"/>
      <point x="56" y="37"/>
      <point x="150" y="508" type="qcurve"/>
      <point x="184" y="508" type="line"/>
      <point x="89" y="31" type="line"/>
      <point x="171" y="31" type="line"/>
      <point x="165" y="0" type="line"/>
    </contour>
    <contour>
      <point x="103" y="636" type="qcurve" smooth="yes"/>
      <point x="78" y="636"/>
      <point x="78" y="657" type="qcurve" smooth="yes"/>
      <point x="78" y="662"/>
      <point x="81" y="673" type="qcurve" smooth="yes"/>
      <point x="84" y="685"/>
      <point x="90" y="691" type="qcurve"/>
      <point x="98" y="698"/>
      <point x="112" y="698" type="qcurve" smooth="yes"/>
      <point x="137" y="698"/>
      <point x="137" y="679" type="qcurve" smooth="yes"/>
      <point x="137" y="677" type="line" smooth="yes"/>
      <point x="137" y="673"/>
      <point x="134" y="661" type="qcurve"/>
      <point x="132" y="651"/>
      <point x="125" y="643" type="qcurve"/>
      <point x="118" y="636"/>
    </contour>
    <contour>
      <point x="285" y="636" type="qcurve" smooth="yes"/>
      <point x="260" y="636"/>
      <point x="260" y="657" type="qcurve" smooth="yes"/>
      <point x="260" y="662"/>
      <point x="263" y="673" type="qcurve" smooth="yes"/>
      <point x="266" y="685"/>
      <point x="272" y="691" type="qcurve"/>
      <point x="280" y="698"/>
      <point x="294" y="698" type="qcurve" smooth="yes"/>
      <point x="319" y="698"/>
      <point x="319" y="679" type="qcurve" smooth="yes"/>
      <point x="319" y="677" type="line" smooth="yes"/>
      <point x="319" y="673"/>
      <point x="316" y="661" type="qcurve"/>
      <point x="314" y="651"/>
      <point x="307" y="643" type="qcurve"/>
      <point x="300" y="636"/>
    </contour>
  </outline>
</glyph>
<glyph name="eth" format="2">
  <advance width="561"/>
  <unicode hex="00F0"/>
  <outline>
    <contour>
      <point x="243" y="19" type="qcurve" smooth="yes"/>
      <point x="321" y="19"/>
      <point x="375" y="70" type="qcurve" smooth="yes"/>
      <point x="430" y="121"/>
      <point x="448" y="213" type="qcurve" smooth="yes"/>
      <point x="458" y="262" type="line"/>
      <point x="462" y="292"/>
      <point x="462" y="315" type="qcurve" smooth="yes"/>
      <point x="462" y="390"/>
      <point x="421" y="431" type="qcurve" smooth="yes"/>
      <point x="379" y="473"/>
      <point x="310" y="473" type="qcurve" smooth="yes"/>
      <point x="232" y="473"/>
      <point x="178" y="422" type="qcurve" smooth="yes"/>
      <point x="124" y="372"/>
      <point x="105" y="279" type="qcurve" smooth="yes"/>
      <point x="95" y="230" type="line"/>
      <point x="92" y="202"/>
      <point x="91" y="177" type="qcurve"/>
      <point x="91" y="174" type="line" smooth="yes"/>
      <point x="91" y="101"/>
      <point x="132" y="61" type="qcurve" smooth="yes"/>
      <point x="174" y="19"/>
    </contour>
    <contour>
      <point x="238" y="-12" type="qcurve" smooth="yes"/>
      <point x="155" y="-12"/>
      <point x="106" y="40" type="qcurve" smooth="yes"/>
      <point x="58" y="92"/>
      <point x="57" y="183" type="qcurve"/>
      <point x="58" y="327"/>
      <point x="127" y="415" type="qcurve" smooth="yes"/>
      <point x="197" y="504"/>
      <point x="305" y="504" type="qcurve" smooth="yes"/>
      <point x="413" y="504"/>
      <point x="455" y="415" type="qcurve"/>
      <point x="459" y="417" type="line"/>
      <point x="436" y="550"/>
      <point x="338" y="640" type="qcurve"/>
      <point x="224" y="568" type="line"/>
      <point x="210" y="590" type="line"/>
      <point x="318" y="659" type="line"/>
      <point x="264" y="707"/>
      <point x="196" y="740" type="qcurve"/>
      <point x="248" y="740" type="line"/>
      <point x="296" y="718"/>
      <point x="344" y="675" type="qcurve"/>
      <point x="465" y="752" type="line"/>
      <point x="480" y="730" type="line"/>
      <point x="365" y="657" type="line"/>
      <point x="498" y="533"/>
      <point x="498" y="335" type="qcurve" smooth="yes"/>
      <point x="498" y="172"/>
      <point x="425" y="80" type="qcurve" smooth="yes"/>
      <point x="352" y="-12"/>
    </contour>
  </outline>
</glyph>
<glyph name="ntilde" format="2">
  <advance width="552"/>
  <unicode hex="00F1"/>
  <outline>
    <contour>
      <point x="407" y="0" type="line" smooth="yes"/>
      <point x="375" y="0"/>
      <point x="375" y="28" type="qcurve" smooth="yes"/>
      <point x="375" y="36"/>
      <point x="432" y="320" type="qcurve" smooth="yes"/>
      <point x="438" y="352"/>
      <point x="438" y="382" type="qcurve" smooth="yes"/>
      <point x="438" y="489"/>
      <point x="334" y="489" type="qcurve" smooth="yes"/>
      <point x="332" y="489" type="line" smooth="yes"/>
      <point x="260" y="489"/>
      <point x="208" y="432" type="qcurve" smooth="yes"/>
      <point x="160" y="378"/>
      <point x="144" y="306" type="qcurve"/>
      <point x="83" y="0" type="line"/>
      <point x="49" y="0" type="line"/>
      <point x="151" y="508" type="line"/>
      <point x="185" y="508" type="line"/>
      <point x="164" y="404" type="line"/>
      <point x="167" y="404" type="line"/>
      <point x="196" y="460"/>
      <point x="238" y="490" type="qcurve" smooth="yes"/>
      <point x="280" y="520"/>
      <point x="341" y="520" type="qcurve" smooth="yes"/>
      <point x="406" y="520"/>
      <point x="439" y="485" type="qcurve" smooth="yes"/>
      <point x="473" y="449"/>
      <point x="473" y="386" type="qcurve" smooth="yes"/>
      <point x="473" y="379" type="line" smooth="yes"/>
      <point x="473" y="352"/>
      <point x="466" y="320" type="qcurve" smooth="yes"/>
      <point x="408" y="31" type="line"/>
      <point x="490" y="31" type="line"/>
      <point x="484" y="0" type="line"/>
    </contour>
    <contour>
      <point x="464" y="624" type="qcurve" smooth="yes"/>
      <point x="443" y="624"/>
      <point x="428" y="631" type="qcurve"/>
      <point x="413" y="640"/>
      <point x="392" y="653" type="qcurve"/>
      <point x="373" y="668"/>
      <point x="358" y="673" type="qcurve"/>
      <point x="345" y="679"/>
      <point x="328" y="679" type="qcurve" smooth="yes"/>
      <point x="325" y="679" type="line" smooth="yes"/>
      <point x="293" y="679"/>
      <point x="261" y="647" type="qcurve"/>
      <point x="246" y="665" type="line"/>
      <point x="288" y="707"/>
      <point x="333" y="708" type="qcurve"/>
      <point x="339" y="708" type="line" smooth="yes"/>
      <point x="357" y="708"/>
      <point x="370" y="701" type="qcurve"/>
      <point x="386" y="694"/>
      <point x="406" y="679" type="qcurve"/>
      <point x="427" y="665"/>
      <point x="440" y="659" type="qcurve"/>
      <point x="455" y="653"/>
      <point x="471" y="653" type="qcurve" smooth="yes"/>
      <point x="507" y="653"/>
      <point x="537" y="685" type="qcurve"/>
      <point x="552" y="667" type="line"/>
      <point x="512" y="624"/>
    </contour>
  </outline>
</glyph>
<glyph name="oacute" format="2">
  <advance width="538"/>
  <unicode hex="00F3"/>
  <outline>
    <contour>
      <point x="231" y="19" type="qcurve" smooth="yes"/>
      <point x="388" y="19"/>
      <point x="433" y="223" type="qcurve"/>
      <point x="442" y="271" type="line" smooth="yes"/>
      <point x="447" y="297"/>
      <point x="447" y="327" type="qcurve" smooth="yes"/>
      <point x="447" y="337" type="line" smooth="yes"/>
      <point x="447" y="400"/>
      <point x="413" y="444" type="qcurve" smooth="yes"/>
      <point x="380" y="489"/>
      <point x="307" y="489" type="qcurve" smooth="yes"/>
      <point x="151" y="489"/>
      <point x="105" y="285" type="qcurve"/>
      <point x="96" y="237" type="line"/>
      <point x="92" y="207"/>
      <point x="91" y="171" type="qcurve"/>
      <point x="92" y="108"/>
      <point x="125" y="63" type="qcurve" smooth="yes"/>
      <point x="159" y="19"/>
    </contour>
    <contour>
      <point x="227" y="-12" type="qcurve" smooth="yes"/>
      <point x="149" y="-12"/>
      <point x="103" y="41" type="qcurve" smooth="yes"/>
      <point x="58" y="95"/>
      <point x="57" y="176" type="qcurve" smooth="yes"/>
      <point x="57" y="314"/>
      <point x="123" y="417" type="qcurve"/>
      <point x="192" y="520"/>
      <point x="311" y="520" type="qcurve" smooth="yes"/>
      <point x="314" y="520" type="line" smooth="yes"/>
      <point x="393" y="520"/>
      <point x="436" y="468" type="qcurve"/>
      <point x="481" y="416"/>
      <point x="481" y="332" type="qcurve" smooth="yes"/>
      <point x="481" y="324" type="line"/>
      <point x="480" y="190"/>
      <point x="416" y="91" type="qcurve"/>
      <point x="384" y="44"/>
      <point x="336" y="16" type="qcurve" smooth="yes"/>
      <point x="288" y="-12"/>
    </contour>
    <contour>
      <point x="293" y="601" type="line"/>
      <point x="427" y="758" type="line"/>
      <point x="456" y="739" type="line"/>
      <point x="315" y="587" type="line"/>
    </contour>
  </outline>
</glyph>
<glyph name="otilde" format="2">
  <advance width="538"/>
  <unicode hex="00F5"/>
  <outline>
    <contour>
      <point x="231" y="19" type="qcurve" smooth="yes"/>
      <point x="388" y="19"/>
      <point x="433" y="223" type="qcurve"/>
      <point x="442" y="271" type="line" smooth="yes"/>
      <point x="447" y="297"/>
      <point x="447" y="327" type="qcurve" smooth="yes"/>
      <point x="447" y="337" type="line" smooth="yes"/>
      <point x="447" y="400"/>
      <point x="413" y="444" type="qcurve" smooth="yes"/>
      <point x="380" y="489"/>
      <point x="307" y="489" type="qcurve" smooth="yes"/>
      <point x="151" y="489"/>
      <point x="105" y="285" type="qcurve"/>
      <point x="96" y="237" type="line"/>
      <point x="92" y="207"/>
      <point x="91" y="171" type="qcurve"/>
      <point x="92" y="108"/>
      <point x="125" y="63" type="qcurve" smooth="yes"/>
      <point x="159" y="19"/>
    </contour>
    <contour>
      <point x="227" y="-12" type="qcurve" smooth="yes"/>
      <point x="149" y="-12"/>
      <point x="103" y="41" type="qcurve" smooth="yes"/>
      <point x="58" y="95"/>
      <point x="57" y="176" type="qcurve" smooth="yes"/>
      <point x="57" y="314"/>
      <point x="123" y="417" type="qcurve"/>
      <point x="192" y="520"/>
      <point x="311" y="520" type="qcurve" smooth="yes"/>
      <point x="314" y="520" type="line" smooth="yes"/>
      <point x="393" y="520"/>
      <point x="436" y="468" type="qcurve"/>
      <point x="481" y="416"/>
      <point x="481" y="332" type="qcurve" smooth="yes"/>
      <point x="481" y="324" type="line"/>
      <point x="480" y="190"/>
      <point x="416" y="91" type="qcurve"/>
      <point x="384" y="44"/>
      <point x="336" y="16" type="qcurve" smooth="yes"/>
      <point x="288" y="-12"/>
    </contour>
    <contour>
      <point x="416" y="624" type="qcurve" smooth="yes"/>
      <point x="395" y="624"/>
      <point x="380" y="631" type="qcurve"/>
      <point x="365" y="640"/>
      <point x="344" y="653" type="qcurve"/>
      <point x="325" y="668"/>
      <point x="310" y="673" type="qcurve"/>
      <point x="297" y="679"/>
      <point x="280" y="679" type="qcurve" smooth="yes"/>
      <point x="277" y="679" type="line" smooth="yes"/>
      <point x="245" y="679"/>
      <point x="213" y="647" type="qcurve"/>
      <point x="198" y="665" type="line"/>
      <point x="241" y="708"/>
      <point x="286" y="708" type="qcurve" smooth="yes"/>
      <point x="291" y="708" type="line" smooth="yes"/>
      <point x="309" y="708"/>
      <point x="322" y="701" type="qcurve"/>
      <point x="338" y="694"/>
      <point x="358" y="679" type="qcurve"/>
      <point x="379" y="665"/>
      <point x="392" y="659" type="qcurve"/>
      <point x="407" y="653"/>
      <point x="423" y="653" type="qcurve" smooth="yes"/>
      <point x="459" y="653"/>
      <point x="489" y="685" type="qcurve"/>
      <point x="504" y="667" type="line"/>
      <point x="464" y="624"/>
    </contour>
  </outline>
</glyph>
<glyph name="odieresis" format="2">
  <advance width="538"/>
  <unicode hex="00F6"/>
  <outline>
    <contour>
      <point x="231" y="19" type="qcurve" smooth="yes"/>
      <point x="388" y="19"/>
      <point x="433" y="223" type="qcurve"/>
      <point x="442" y="271" type="line" smooth="yes"/>
      <point x="447" y="297"/>
      <point x="447" y="327" type="qcurve" smooth="yes"/>
      <point x="447" y="337" type="line" smooth="yes"/>
      <point x="447" y="400"/>
      <point x="413" y="444" type="qcurve" smooth="yes"/>
      <point x="380" y="489"/>
      <point x="307" y="489" type="qcurve" smooth="yes"/>
      <point x="151" y="489"/>
      <point x="105" y="285" type="qcurve"/>
      <point x="96" y="237" type="line"/>
      <point x="92" y="207"/>
      <point x="91" y="171" type="qcurve"/>
      <point x="92" y="108"/>
      <point x="125" y="63" type="qcurve" smooth="yes"/>
      <point x="159" y="19"/>
    </contour>
    <contour>
      <point x="227" y="-12" type="qcurve" smooth="yes"/>
      <point x="149" y="-12"/>
      <point x="103" y="41" type="qcurve" smooth="yes"/>
      <point x="58" y="95"/>
      <point x="57" y="176" type="qcurve" smooth="yes"/>
      <point x="57" y="314"/>
      <point x="123" y="417" type="qcurve"/>
      <point x="192" y="520"/>
      <point x="311" y="520" type="qcurve" smooth="yes"/>
      <point x="314" y="520" type="line" smooth="yes"/>
      <point x="393" y="520"/>
      <point x="436" y="468" type="qcurve"/>
      <point x="481" y="416"/>
      <point x="481" y="332" type="qcurve" smooth="yes"/>
      <point x="481" y="324" type="line"/>
      <point x="480" y="190"/>
      <point x="416" y="91" type="qcurve"/>
      <point x="384" y="44"/>
      <point x="336" y="16" type="qcurve" smooth="yes"/>
      <point x="288" y="-12"/>
    </contour>
    <contour>
      <point x="438" y="636" type="qcurve" smooth="yes"/>
      <point x="413" y="636"/>
      <point x="413" y="657" type="qcurve" smooth="yes"/>
      <point x="413" y="662"/>
      <point x="416" y="673" type="qcurve" smooth="yes"/>
      <point x="419" y="685"/>
      <point x="425" y="691" type="qcurve"/>
      <point x="433" y="698"/>
      <point x="447" y="698" type="qcurve" smooth="yes"/>
      <point x="472" y="698"/>
      <point x="472" y="679" type="qcurve" smooth="yes"/>
      <point x="472" y="677" type="line" smooth="yes"/>
      <point x="472" y="673"/>
      <point x="469" y="661" type="qcurve"/>
      <point x="467" y="651"/>
      <point x="460" y="643" type="qcurve"/>
      <point x="453" y="636"/>
    </contour>
    <contour>
      <point x="256" y="636" type="qcurve" smooth="yes"/>
      <point x="231" y="636"/>
      <point x="231" y="657" type="qcurve" smooth="yes"/>
      <point x="231" y="662"/>
      <point x="234" y="673" type="qcurve" smooth="yes"/>
      <point x="237" y="685"/>
      <point x="243" y="691" type="qcurve"/>
      <point x="251" y="698"/>
      <point x="265" y="698" type="qcurve" smooth="yes"/>
      <point x="290" y="698"/>
      <point x="290" y="679" type="qcurve" smooth="yes"/>
      <point x="290" y="677" type="line" smooth="yes"/>
      <point x="290" y="673"/>
      <point x="287" y="661" type="qcurve"/>
      <point x="285" y="651"/>
      <point x="278" y="643" type="qcurve"/>
      <point x="271" y="636"/>
    </contour>
  </outline>
</glyph>
<glyph name="oslash" format="2">
  <advance width="538"/>
  <unicode hex="00F8"/>
  <outline>
    <contour>
      <point x="416" y="441" type="line"/>
      <point x="384" y="489"/>
      <point x="307" y="489" type="qcurve" smooth="yes"/>
      <point x="151" y="489"/>
      <point x="105" y="285" type="qcurve"/>
      <point x="96" y="237" type="line"/>
      <point x="92" y="207"/>
      <point x="91" y="171" type="qcurve"/>
      <point x="92" y="126"/>
      <point x="108" y="90" type="qcurve"/>
    </contour>
    <contour>
      <point x="231" y="19" type="qcurve" smooth="yes"/>
      <point x="388" y="19"/>
      <point x="433" y="223" type="qcurve"/>
      <point x="442" y="271" type="line" smooth="yes"/>
      <point x="447" y="297"/>
      <point x="447" y="327" type="qcurve" smooth="yes"/>
      <point x="447" y="328" type="line"/>
      <point x="447" y="328"/>
      <point x="447" y="328" type="qcurve"/>
      <point x="447" y="328"/>
      <point x="447" y="328" type="qcurve"/>
      <point x="447" y="329" type="line"/>
      <point x="447" y="329"/>
      <point x="447" y="329" type="qcurve"/>
      <point x="447" y="329"/>
      <point x="447" y="329" type="qcurve"/>
      <point x="447" y="329"/>
      <point x="447" y="330" type="qcurve"/>
      <point x="447" y="330"/>
      <point x="447" y="330" type="qcurve"/>
      <point x="447" y="330"/>
      <point x="447" y="330" type="qcurve"/>
      <point x="447" y="330"/>
      <point x="447" y="330" type="qcurve"/>
      <point x="447" y="330"/>
      <point x="447" y="330" type="qcurve"/>
      <point x="447" y="331"/>
      <point x="447" y="331" type="qcurve"/>
      <point x="447" y="331"/>
      <point x="447" y="331" type="qcurve"/>
      <point x="447" y="331"/>
      <point x="447" y="331" type="qcurve"/>
      <point x="447" y="332" type="line"/>
      <point x="447" y="332"/>
      <point x="447" y="332" type="qcurve"/>
      <point x="447" y="332"/>
      <point x="447" y="332" type="qcurve"/>
      <point x="447" y="337" type="line"/>
      <point x="447" y="337"/>
      <point x="447" y="337" type="qcurve"/>
      <point x="447" y="337"/>
      <point x="447" y="337" type="qcurve"/>
      <point x="447" y="337"/>
      <point x="447" y="337" type="qcurve"/>
      <point x="447" y="337"/>
      <point x="447" y="337" type="qcurve"/>
      <point x="447" y="337"/>
      <point x="447" y="337" type="qcurve"/>
      <point x="447" y="338" type="line"/>
      <point x="447" y="338"/>
      <point x="447" y="338" type="qcurve"/>
      <point x="447" y="338"/>
      <point x="447" y="338" type="qcurve"/>
      <point x="447" y="338"/>
      <point x="447" y="339" type="qcurve"/>
      <point x="447" y="339"/>
      <point x="447" y="339" type="qcurve"/>
      <point x="447" y="339"/>
      <point x="447" y="339" type="qcurve"/>
      <point x="447" y="342" type="line" smooth="yes"/>
      <point x="447" y="384"/>
      <point x="430" y="418" type="qcurve"/>
      <point x="122" y="67" type="line"/>
      <point x="160" y="19"/>
    </contour>
    <contour>
      <point x="447" y="339" type="qcurve"/>
      <point x="447" y="339"/>
      <point x="447" y="339" type="qcurve"/>
      <point x="447" y="339"/>
      <point x="447" y="339" type="qcurve"/>
      <point x="447" y="339"/>
    </contour>
    <contour>
      <point x="447" y="338" type="qcurve"/>
      <point x="447" y="338"/>
      <point x="447" y="338" type="qcurve"/>
      <point x="447" y="338"/>
      <point x="447" y="338" type="qcurve"/>
      <point x="447" y="338"/>
    </contour>
    <contour>
      <point x="18" y="-13" type="line"/>
      <point x="85" y="64" type="line"/>
      <point x="58" y="112"/>
      <point x="57" y="176" type="qcurve" smooth="yes"/>
      <point x="57" y="314"/>
      <point x="123" y="417" type="qcurve" smooth="yes"/>
      <point x="192" y="520"/>
      <point x="311" y="520" type="qcurve" smooth="yes"/>
      <point x="395" y="520"/>
      <point x="437" y="466" type="qcurve"/>
      <point x="500" y="538" type="line"/>
      <point x="520" y="521" type="line"/>
      <point x="453" y="444" type="line"/>
      <point x="481" y="398"/>
      <point x="481" y="332" type="qcurve"/>
      <point x="481" y="332"/>
      <point x="481" y="332" type="qcurve"/>
      <point x="481" y="332"/>
      <point x="481" y="332" type="qcurve"/>
      <point x="481" y="332"/>
      <point x="481" y="332" type="qcurve"/>
      <point x="481" y="332"/>
      <point x="481" y="332" type="qcurve"/>
      <point x="481" y="332"/>
      <point x="481" y="332" type="qcurve"/>
      <point x="481" y="332"/>
      <point x="481" y="331" type="qcurve"/>
      <point x="481" y="331"/>
      <point x="481" y="331" type="qcurve"/>
      <point x="481" y="331"/>
      <point x="481" y="331" type="qcurve"/>
      <point x="481" y="331"/>
      <point x="481" y="331" type="qcurve"/>
      <point x="481" y="331"/>
      <point x="481" y="331" type="qcurve"/>
      <point x="481" y="331"/>
      <point x="481" y="331" type="qcurve"/>
      <point x="481" y="331"/>
      <point x="481" y="331" type="qcurve"/>
      <point x="481" y="331"/>
      <point x="481" y="330" type="qcurve"/>
      <point x="481" y="330"/>
      <point x="481" y="330" type="qcurve"/>
      <point x="481" y="329" type="line"/>
      <point x="481" y="329"/>
      <point x="481" y="329" type="qcurve"/>
      <point x="481" y="329"/>
      <point x="481" y="329" type="qcurve"/>
      <point x="481" y="329"/>
      <point x="481" y="329" type="qcurve"/>
      <point x="481" y="329"/>
      <point x="481" y="329" type="qcurve"/>
      <point x="481" y="329"/>
      <point x="481" y="329" type="qcurve"/>
      <point x="481" y="329"/>
      <point x="481" y="328" type="qcurve"/>
      <point x="481" y="328"/>
      <point x="481" y="328" type="qcurve"/>
      <point x="481" y="192"/>
      <point x="416" y="91" type="qcurve" smooth="yes"/>
      <point x="384" y="44"/>
      <point x="336" y="16" type="qcurve" smooth="yes"/>
      <point x="288" y="-12"/>
      <point x="227" y="-12" type="qcurve" smooth="yes"/>
      <point x="146" y="-12"/>
      <point x="101" y="42" type="qcurve"/>
      <point x="38" y="-30" type="line"/>
    </contour>
  </outline>
</glyph>
<glyph name="udieresis" format="2">
  <advance width="551"/>
  <unicode hex="00FC"/>
  <outline>
    <contour>
      <point x="203" y="-12" type="qcurve" smooth="yes"/>
      <point x="140" y="-12"/>
      <point x="105" y="23" type="qcurve"/>
      <point x="72" y="60"/>
      <point x="71" y="123" type="qcurve"/>
      <point x="72" y="152"/>
      <point x="78" y="188" type="qcurve"/>
      <point x="142" y="508" type="line"/>
      <point x="176" y="508" type="line"/>
      <point x="110" y="178"/>
      <point x="107" y="155" type="qcurve" smooth="yes"/>
      <point x="105" y="138"/>
      <point x="105" y="128" type="qcurve" smooth="yes"/>
      <point x="106" y="20"/>
      <point x="211" y="19" type="qcurve" smooth="yes"/>
      <point x="286" y="19"/>
      <point x="335" y="76" type="qcurve"/>
      <point x="378" y="120"/>
      <point x="399" y="202" type="qcurve"/>
      <point x="460" y="508" type="line"/>
      <point x="494" y="508" type="line"/>
      <point x="399" y="31" type="line"/>
      <point x="481" y="31" type="line"/>
      <point x="475" y="0" type="line"/>
      <point x="399" y="0" type="line"/>
      <point x="366" y="2"/>
      <point x="366" y="29" type="qcurve" smooth="yes"/>
      <point x="366" y="38"/>
      <point x="367" y="43" type="qcurve"/>
      <point x="369" y="50"/>
      <point x="379" y="104" type="qcurve"/>
      <point x="376" y="104" type="line"/>
      <point x="348" y="48"/>
      <point x="306" y="18" type="qcurve" smooth="yes"/>
      <point x="264" y="-12"/>
    </contour>
    <contour>
      <point x="478" y="636" type="qcurve" smooth="yes"/>
      <point x="453" y="636"/>
      <point x="453" y="657" type="qcurve" smooth="yes"/>
      <point x="453" y="662"/>
      <point x="456" y="673" type="qcurve" smooth="yes"/>
      <point x="459" y="685"/>
      <point x="465" y="691" type="qcurve"/>
      <point x="473" y="698"/>
      <point x="487" y="698" type="qcurve" smooth="yes"/>
      <point x="512" y="698"/>
      <point x="512" y="679" type="qcurve" smooth="yes"/>
      <point x="512" y="677" type="line" smooth="yes"/>
      <point x="512" y="673"/>
      <point x="509" y="661" type="qcurve"/>
      <point x="507" y="651"/>
      <point x="500" y="643" type="qcurve"/>
      <point x="493" y="636"/>
    </contour>
    <contour>
      <point x="296" y="636" type="qcurve" smooth="yes"/>
      <point x="271" y="636"/>
      <point x="271" y="657" type="qcurve" smooth="yes"/>
      <point x="271" y="662"/>
      <point x="274" y="673" type="qcurve" smooth="yes"/>
      <point x="277" y="685"/>
      <point x="283" y="691" type="qcurve"/>
      <point x="291" y="698"/>
      <point x="305" y="698" type="qcurve" smooth="yes"/>
      <point x="330" y="698"/>
      <point x="330" y="679" type="qcurve" smooth="yes"/>
      <point x="330" y="677" type="line" smooth="yes"/>
      <point x="330" y="673"/>
      <point x="327" y="661" type="qcurve"/>
      <point x="325" y="651"/>
      <point x="318" y="643" type="qcurve"/>
      <point x="311" y="636"/>
    </contour>
  </outline>
</glyph>
<glyph name="thorn" format="2">
  <advance width="563"/>
  <unicode hex="00FE"/>
  <outline>
    <contour>
      <point x="9" y="-200" type="line"/>
      <point x="197" y="740" type="line"/>
      <point x="231" y="740" type="line"/>
      <point x="163" y="397" type="line"/>
      <point x="166" y="397" type="line"/>
      <point x="198" y="454"/>
      <point x="239" y="487" type="qcurve" smooth="yes"/>
      <point x="281" y="520"/>
      <point x="343" y="520" type="qcurve" smooth="yes"/>
      <point x="421" y="520"/>
      <point x="463" y="467" type="qcurve" smooth="yes"/>
      <point x="505" y="414"/>
      <point x="505" y="330" type="qcurve" smooth="yes"/>
      <point x="505" y="198"/>
      <point x="442" y="93" type="qcurve"/>
      <point x="410" y="44"/>
      <point x="363" y="16" type="qcurve" smooth="yes"/>
      <point x="317" y="-12"/>
      <point x="255" y="-12" type="qcurve" smooth="yes"/>
      <point x="196" y="-12"/>
      <point x="157" y="15" type="qcurve" smooth="yes"/>
      <point x="118" y="43"/>
      <point x="104" y="91" type="qcurve"/>
      <point x="101" y="91" type="line"/>
      <point x="43" y="-200" type="line"/>
    </contour>
    <contour>
      <point x="470" y="337" type="qcurve"/>
      <point x="470" y="337"/>
      <point x="470" y="337" type="qcurve"/>
      <point x="470" y="337"/>
    </contour>
    <contour>
      <point x="470" y="335" type="qcurve"/>
      <point x="470" y="335"/>
      <point x="470" y="335" type="qcurve"/>
      <point x="470" y="335"/>
    </contour>
    <contour>
      <point x="470" y="333" type="qcurve"/>
      <point x="470" y="333"/>
      <point x="470" y="333" type="qcurve"/>
      <point x="470" y="333"/>
    </contour>
    <contour>
      <point x="254" y="19" type="qcurve" smooth="yes"/>
      <point x="335" y="19"/>
      <point x="386" y="73" type="qcurve" smooth="yes"/>
      <point x="438" y="128"/>
      <point x="456" y="222" type="qcurve" smooth="yes"/>
      <point x="464" y="266" type="line"/>
      <point x="470" y="294"/>
      <point x="470" y="333" type="qcurve"/>
      <point x="470" y="333"/>
      <point x="470" y="333" type="qcurve"/>
      <point x="470" y="333"/>
      <point x="470" y="333" type="qcurve"/>
      <point x="470" y="333"/>
      <point x="470" y="333" type="qcurve"/>
      <point x="470" y="333"/>
      <point x="470" y="333" type="qcurve"/>
      <point x="470" y="333"/>
      <point x="470" y="333" type="qcurve"/>
      <point x="470" y="333"/>
      <point x="470" y="334" type="qcurve"/>
      <point x="470" y="334"/>
      <point x="470" y="334" type="qcurve"/>
      <point x="470" y="334"/>
      <point x="470" y="334" type="qcurve"/>
      <point x="470" y="334"/>
      <point x="470" y="334" type="qcurve"/>
      <point x="470" y="334"/>
      <point x="470" y="334" type="qcurve"/>
      <point x="470" y="334"/>
      <point x="470" y="334" type="qcurve"/>
      <point x="470" y="334"/>
      <point x="470" y="334" type="qcurve"/>
      <point x="470" y="334"/>
      <point x="470" y="334" type="qcurve"/>
      <point x="470" y="334"/>
      <point x="470" y="334" type="qcurve"/>
      <point x="470" y="334"/>
      <point x="470" y="334" type="qcurve"/>
      <point x="470" y="334"/>
      <point x="470" y="334" type="qcurve"/>
      <point x="470" y="334"/>
      <point x="470" y="335" type="qcurve"/>
      <point x="470" y="335"/>
      <point x="470" y="335" type="qcurve"/>
      <point x="470" y="335"/>
      <point x="470" y="335" type="qcurve"/>
      <point x="470" y="335"/>
      <point x="470" y="335" type="qcurve"/>
      <point x="470" y="335"/>
      <point x="470" y="335" type="qcurve"/>
      <point x="470" y="336" type="line"/>
      <point x="470" y="336"/>
      <point x="470" y="336" type="qcurve"/>
      <point x="470" y="336"/>
      <point x="470" y="336" type="qcurve"/>
      <point x="470" y="336"/>
      <point x="470" y="336" type="qcurve"/>
      <point x="470" y="336"/>
      <point x="470" y="336" type="qcurve"/>
      <point x="470" y="336"/>
      <point x="470" y="336" type="qcurve"/>
      <point x="470" y="336"/>
      <point x="470" y="337" type="qcurve"/>
      <point x="470" y="337"/>
      <point x="470" y="337" type="qcurve"/>
      <point x="470" y="337"/>
      <point x="470" y="337" type="qcurve"/>
      <point x="470" y="399"/>
      <point x="439" y="443" type="qcurve" smooth="yes"/>
      <point x="408" y="489"/>
      <point x="339" y="489" type="qcurve" smooth="yes"/>
      <point x="274" y="489"/>
      <point x="229" y="447" type="qcurve"/>
      <point x="167" y="399"/>
      <point x="143" y="297" type="qcurve"/>
      <point x="116" y="164" type="line"/>
      <point x="113" y="152"/>
      <point x="113" y="138" type="qcurve"/>
      <point x="114" y="102"/>
      <point x="138" y="67" type="qcurve"/>
      <point x="176" y="19"/>
    </contour>
  </outline>
</glyph>
<glyph name="ydieresis" format="2">
  <advance width="466"/>
  <unicode hex="00FF"/>
  <outline>
    <contour>
      <point x="-23" y="-200" type="line"/>
      <point x="-17" y="-170" type="line"/>
      <point x="69" y="-170" type="line"/>
      <point x="161" y="-6" type="line"/>
      <point x="72" y="508" type="line"/>
      <point x="105" y="508" type="line"/>
      <point x="184" y="38" type="line"/>
      <point x="188" y="38" type="line"/>
      <point x="450" y="508" type="line"/>
      <point x="487" y="508" type="line"/>
      <point x="108" y="-161" type="line"/>
      <point x="98" y="-182"/>
      <point x="85" y="-191" type="qcurve"/>
      <point x="74" y="-200"/>
      <point x="53" y="-200" type="qcurve" smooth="yes"/>
    </contour>
    <contour>
      <point x="216" y="636" type="qcurve" smooth="yes"/>
      <point x="191" y="636"/>
      <point x="191" y="657" type="qcurve" smooth="yes"/>
      <point x="191" y="662"/>
      <point x="194" y="673" type="qcurve" smooth="yes"/>
      <point x="197" y="685"/>
      <point x="203" y="691" type="qcurve"/>
      <point x="211" y="698"/>
      <point x="225" y="698" type="qcurve" smooth="yes"/>
      <point x="250" y="698"/>
      <point x="250" y="679" type="qcurve" smooth="yes"/>
      <point x="250" y="677" type="line" smooth="yes"/>
      <point x="250" y="673"/>
      <point x="247" y="661" type="qcurve"/>
      <point x="245" y="651"/>
      <point x="238" y="643" type="qcurve"/>
      <point x="231" y="636"/>
    </contour>
    <contour>
      <point x="398" y="636" type="qcurve" smooth="yes"/>
      <point x="373" y="636"/>
      <point x="373" y="657" type="qcurve" smooth="yes"/>
      <point x="373" y="662"/>
      <point x="376" y="673" type="qcurve" smooth="yes"/>
      <point x="379" y="685"/>
      <point x="385" y="691" type="qcurve"/>
      <point x="393" y="698"/>
      <point x="407" y="698" type="qcurve" smooth="yes"/>
      <point x="432" y="698"/>
      <point x="432" y="679" type="qcurve" smooth="yes"/>
      <point x="432" y="677" type="line" smooth="yes"/>
      <point x="432" y="673"/>
      <point x="429" y="661" type="qcurve"/>
      <point x="427" y="651"/>
      <point x="420" y="643" type="qcurve"/>
      <point x="413" y="636"/>
    </contour>
  </outline>
</glyph>
<glyph name="Amacron" format="2">
  <advance width="601"/>
  <unicode hex="0100"/>
  <outline>
    <contour>
      <point x="372" y="661" type="line"/>
      <point x="368" y="661" type="line"/>
      <point x="158" y="259" type="line"/>
      <point x="444" y="259" type="line"/>
    </contour>
    <contour>
      <point x="273" y="835" type="line"/>
      <point x="279" y="865" type="line"/>
      <point x="540" y="865" type="line"/>
      <point x="534" y="835" type="line"/>
    </contour>
    <contour>
      <point x="489" y="0" type="line"/>
      <point x="449" y="227" type="line"/>
      <point x="142" y="227" type="line"/>
      <point x="23" y="0" type="line"/>
      <point x="-16" y="0" type="line"/>
      <point x="352" y="698" type="line"/>
      <point x="400" y="698" type="line"/>
      <point x="526" y="0" type="line"/>
    </contour>
  </outline>
</glyph>
<glyph name="Abreve" format="2">
  <advance width="601"/>
  <unicode hex="0102"/>
  <outline>
    <contour>
      <point x="372" y="661" type="line"/>
      <point x="368" y="661" type="line"/>
      <point x="158" y="259" type="line"/>
      <point x="444" y="259" type="line"/>
    </contour>
    <contour>
      <point x="489" y="0" type="line"/>
      <point x="449" y="227" type="line"/>
      <point x="142" y="227" type="line"/>
      <point x="23" y="0" type="line"/>
      <point x="-16" y="0" type="line"/>
      <point x="352" y="698" type="line"/>
      <point x="400" y="698" type="line"/>
      <point x="526" y="0" type="line"/>
    </contour>
    <contour>
      <point x="403" y="786" type="qcurve" smooth="yes"/>
      <point x="353" y="786"/>
      <point x="325" y="819" type="qcurve"/>
      <point x="298" y="853"/>
      <point x="284" y="907" type="qcurve"/>
      <point x="307" y="917" type="line"/>
      <point x="321" y="883" type="line" smooth="yes"/>
      <point x="336" y="847"/>
      <point x="354" y="831" type="qcurve"/>
      <point x="373" y="816"/>
      <point x="403" y="815" type="qcurve"/>
      <point x="437" y="815"/>
      <point x="459" y="830" type="qcurve" smooth="yes"/>
      <point x="483" y="846"/>
      <point x="509" y="884" type="qcurve" smooth="yes"/>
      <point x="532" y="917" type="line"/>
      <point x="555" y="907" type="line"/>
      <point x="507" y="820"/>
      <point x="452" y="796" type="qcurve"/>
      <point x="431" y="786"/>
    </contour>
  </outline>
</glyph>
<glyph name="ccircumflex" format="2">
  <advance width="481"/>
  <unicode hex="0109"/>
  <outline>
    <contour>
      <point x="226" y="-12" type="qcurve" smooth="yes"/>
      <point x="145" y="-12"/>
      <point x="101" y="43" type="qcurve"/>
      <point x="58" y="100"/>
      <point x="58" y="189" type="qcurve" smooth="yes"/>
      <point x="58" y="327"/>
      <point x="122" y="423" type="qcurve" smooth="yes"/>
      <point x="186" y="520"/>
      <point x="301" y="520" type="qcurve" smooth="yes"/>
      <point x="364" y="520"/>
      <point x="403" y="488" type="qcurve" smooth="yes"/>
      <point x="444" y="456"/>
      <point x="456" y="404" type="qcurve"/>
      <point x="427" y="393" type="line"/>
      <point x="416" y="441"/>
      <point x="382" y="465" type="qcurve"/>
      <point x="349" y="490"/>
      <point x="299" y="490" type="qcurve" smooth="yes"/>
      <point x="227" y="490"/>
      <point x="176" y="440" type="qcurve" smooth="yes"/>
      <point x="126" y="390"/>
      <point x="108" y="301" type="qcurve" smooth="yes"/>
      <point x="94" y="230"/>
      <point x="93" y="216" type="qcurve" smooth="yes"/>
      <point x="92" y="204"/>
      <point x="92" y="186" type="qcurve" smooth="yes"/>
      <point x="92" y="116"/>
      <point x="125" y="68" type="qcurve"/>
      <point x="162" y="20"/>
      <point x="228" y="19" type="qcurve"/>
      <point x="282" y="20"/>
      <point x="323" y="48" type="qcurve" smooth="yes"/>
      <point x="365" y="78"/>
      <point x="398" y="131" type="qcurve"/>
      <point x="426" y="117" type="line"/>
      <point x="350" y="-12"/>
    </contour>
    <contour>
      <point x="340" y="721" type="line"/>
      <point x="195" y="597" type="line"/>
      <point x="175" y="614" type="line"/>
      <point x="323" y="748" type="line"/>
      <point x="363" y="748" type="line"/>
      <point x="464" y="612" type="line"/>
      <point x="442" y="597" type="line"/>
    </contour>
  </outline>
</glyph>
<glyph name="Ebreve" format="2">
  <advance width="556"/>
  <unicode hex="0114"/>
  <outline>
    <contour>
      <point x="50" y="0" type="line"/>
      <point x="190" y="698" type="line"/>
      <point x="576" y="698" type="line"/>
      <point x="570" y="666" type="line"/>
      <point x="220" y="666" type="line"/>
      <point x="160" y="370" type="line"/>
      <point x="493" y="370" type="line"/>
      <point x="487" y="338" type="line"/>
      <point x="153" y="338" type="line"/>
      <point x="92" y="32" type="line"/>
      <point x="447" y="32" type="line"/>
      <point x="440" y="0" type="line"/>
    </contour>
    <contour>
      <point x="411" y="786" type="qcurve" smooth="yes"/>
      <point x="361" y="786"/>
      <point x="333" y="819" type="qcurve"/>
      <point x="306" y="853"/>
      <point x="292" y="907" type="qcurve"/>
      <point x="315" y="917" type="line"/>
      <point x="329" y="883" type="line" smooth="yes"/>
      <point x="344" y="847"/>
      <point x="362" y="831" type="qcurve"/>
      <point x="381" y="816"/>
      <point x="411" y="815" type="qcurve"/>
      <point x="445" y="815"/>
      <point x="467" y="830" type="qcurve" smooth="yes"/>
      <point x="491" y="846"/>
      <point x="517" y="884" type="qcurve" smooth="yes"/>
      <point x="540" y="917" type="line"/>
      <point x="563" y="907" type="line"/>
      <point x="515" y="820"/>
      <point x="460" y="796" type="qcurve"/>
      <point x="439" y="786"/>
    </contour>
  </outline>
</glyph>
<glyph name="ebreve" format="2">
  <advance width="506"/>
  <unicode hex="0115"/>
  <outline>
    <contour>
      <point x="99" y="259" type="line"/>
      <point x="306" y="265"/>
      <point x="373" y="304" type="qcurve"/>
      <point x="408" y="322"/>
      <point x="421" y="345" type="qcurve"/>
      <point x="435" y="367"/>
      <point x="435" y="391" type="qcurve" smooth="yes"/>
      <point x="435" y="397" type="line" smooth="yes"/>
      <point x="435" y="439"/>
      <point x="404" y="464" type="qcurve" smooth="yes"/>
      <point x="372" y="490"/>
      <point x="307" y="490" type="qcurve" smooth="yes"/>
      <point x="304" y="490" type="line" smooth="yes"/>
      <point x="229" y="490"/>
      <point x="175" y="432" type="qcurve" smooth="yes"/>
      <point x="121" y="374"/>
      <point x="103" y="279" type="qcurve" smooth="yes"/>
    </contour>
    <contour>
      <point x="239" y="-12" type="qcurve" smooth="yes"/>
      <point x="152" y="-12"/>
      <point x="105" y="38" type="qcurve" smooth="yes"/>
      <point x="58" y="89"/>
      <point x="58" y="191" type="qcurve" smooth="yes"/>
      <point x="58" y="328"/>
      <point x="129" y="424" type="qcurve" smooth="yes"/>
      <point x="162" y="468"/>
      <point x="208" y="494" type="qcurve" smooth="yes"/>
      <point x="256" y="520"/>
      <point x="311" y="520" type="qcurve" smooth="yes"/>
      <point x="381" y="520"/>
      <point x="426" y="487" type="qcurve" smooth="yes"/>
      <point x="471" y="454"/>
      <point x="471" y="394" type="qcurve" smooth="yes"/>
      <point x="471" y="328"/>
      <point x="402" y="286" type="qcurve" smooth="yes"/>
      <point x="326" y="238"/>
      <point x="95" y="230" type="qcurve"/>
      <point x="92" y="198"/>
      <point x="92" y="187" type="qcurve" smooth="yes"/>
      <point x="92" y="19"/>
      <point x="240" y="19" type="qcurve" smooth="yes"/>
      <point x="300" y="19"/>
      <point x="345" y="49" type="qcurve" smooth="yes"/>
      <point x="391" y="80"/>
      <point x="421" y="134" type="qcurve"/>
      <point x="448" y="117" type="line"/>
      <point x="370" y="-12"/>
    </contour>
    <contour>
      <point x="340" y="604" type="qcurve" smooth="yes"/>
      <point x="290" y="604"/>
      <point x="262" y="637" type="qcurve"/>
      <point x="235" y="671"/>
      <point x="221" y="725" type="qcurve"/>
      <point x="244" y="735" type="line"/>
      <point x="258" y="701" type="line" smooth="yes"/>
      <point x="273" y="665"/>
      <point x="291" y="649" type="qcurve"/>
      <point x="310" y="634"/>
      <point x="340" y="633" type="qcurve"/>
      <point x="374" y="633"/>
      <point x="396" y="648" type="qcurve" smooth="yes"/>
      <point x="420" y="664"/>
      <point x="446" y="702" type="qcurve" smooth="yes"/>
      <point x="469" y="735" type="line"/>
      <point x="492" y="725" type="line"/>
      <point x="444" y="638"/>
      <point x="389" y="614" type="qcurve"/>
      <point x="368" y="604"/>
    </contour>
  </outline>
</glyph>
<glyph name="Ecaron" format="2">
  <advance width="556"/>
  <unicode hex="011A"/>
  <outline>
    <contour>
      <point x="385" y="784" type="line"/>
      <point x="284" y="920" type="line"/>
      <point x="306" y="935" type="line"/>
      <point x="408" y="811" type="line"/>
      <point x="553" y="935" type="line"/>
      <point x="573" y="918" type="line"/>
      <point x="425" y="784" type="line"/>
    </contour>
    <contour>
      <point x="50" y="0" type="line"/>
      <point x="190" y="698" type="line"/>
      <point x="576" y="698" type="line"/>
      <point x="570" y="666" type="line"/>
      <point x="220" y="666" type="line"/>
      <point x="160" y="370" type="line"/>
      <point x="493" y="370" type="line"/>
      <point x="487" y="338" type="line"/>
      <point x="153" y="338" type="line"/>
      <point x="92" y="32" type="line"/>
      <point x="447" y="32" type="line"/>
      <point x="440" y="0" type="line"/>
    </contour>
  </outline>
</glyph>
<glyph name="Gcircumflex" format="2">
  <advance width="597"/>
  <unicode hex="011C"/>
  <outline>
    <contour>
      <point x="562" y="339" type="line"/>
      <point x="536" y="211" type="line" smooth="yes"/>
      <point x="524" y="154"/>
      <point x="475" y="70"/>
      <point x="405" y="15"/>
      <point x="320" y="-12"/>
      <point x="272" y="-12" type="qcurve" smooth="yes"/>
      <point x="163" y="-12"/>
      <point x="37" y="112"/>
      <point x="37" y="230" type="qcurve" smooth="yes"/>
      <point x="37" y="284"/>
      <point x="53" y="397"/>
      <point x="88" y="503"/>
      <point x="142" y="598"/>
      <point x="218" y="669"/>
      <point x="316" y="710"/>
      <point x="377" y="710" type="qcurve" smooth="yes"/>
      <point x="424" y="710"/>
      <point x="496" y="687"/>
      <point x="548" y="647"/>
      <point x="581" y="593"/>
      <point x="589" y="561" type="qcurve"/>
      <point x="555" y="547" type="line"/>
      <point x="541" y="607"/>
      <point x="454" y="676"/>
      <point x="372" y="676" type="qcurve" smooth="yes"/>
      <point x="270" y="676"/>
      <point x="128" y="539"/>
      <point x="99" y="403" type="qcurve" smooth="yes"/>
      <point x="84" y="330" type="line"/>
      <point x="77" y="301"/>
      <point x="74" y="247"/>
      <point x="74" y="225" type="qcurve" smooth="yes"/>
      <point x="74" y="131"/>
      <point x="177" y="22"/>
      <point x="274" y="22" type="qcurve" smooth="yes"/>
      <point x="313" y="22"/>
      <point x="386" y="44"/>
      <point x="445" y="89"/>
      <point x="488" y="158"/>
      <point x="497" y="206" type="qcurve"/>
      <point x="518" y="304" type="line"/>
      <point x="300" y="304" type="line"/>
      <point x="307" y="339" type="line"/>
    </contour>
    <contour>
      <point x="415" y="903" type="line"/>
      <point x="270" y="779" type="line"/>
      <point x="250" y="796" type="line"/>
      <point x="398" y="930" type="line"/>
      <point x="438" y="930" type="line"/>
      <point x="539" y="794" type="line"/>
      <point x="517" y="779" type="line"/>
    </contour>
  </outline>
</glyph>
<glyph name="Gbreve" format="2">
  <advance width="597"/>
  <unicode hex="011E"/>
  <outline>
    <contour>
      <point x="562" y="339" type="line"/>
      <point x="536" y="211" type="line" smooth="yes"/>
      <point x="524" y="154"/>
      <point x="475" y="70"/>
      <point x="405" y="15"/>
      <point x="320" y="-12"/>
      <point x="272" y="-12" type="qcurve" smooth="yes"/>
      <point x="163" y="-12"/>
      <point x="37" y="112"/>
      <point x="37" y="230" type="qcurve" smooth="yes"/>
      <point x="37" y="284"/>
      <point x="53" y="397"/>
      <point x="88" y="503"/>
      <point x="142" y="598"/>
      <point x="218" y="669"/>
      <point x="316" y="710"/>
      <point x="377" y="710" type="qcurve" smooth="yes"/>
      <point x="424" y="710"/>
      <point x="496" y="687"/>
      <point x="548" y="647"/>
      <point x="581" y="593"/>
      <point x="589" y="561" type="qcurve"/>
      <point x="555" y="547" type="line"/>
      <point x="541" y="607"/>
      <point x="454" y="676"/>
      <point x="372" y="676" type="qcurve" smooth="yes"/>
      <point x="270" y="676"/>
      <point x="128" y="539"/>
      <point x="99" y="403" type="qcurve" smooth="yes"/>
      <point x="84" y="330" type="line"/>
      <point x="77" y="301"/>
      <point x="74" y="247"/>
      <point x="74" y="225" type="qcurve" smooth="yes"/>
      <point x="74" y="131"/>
      <point x="177" y="22"/>
      <point x="274" y="22" type="qcurve" smooth="yes"/>
      <point x="313" y="22"/>
      <point x="386" y="44"/>
      <point x="445" y="89"/>
      <point x="488" y="158"/>
      <point x="497" y="206" type="qcurve"/>
      <point x="518" y="304" type="line"/>
      <point x="300" y="304" type="line"/>
      <point x="307" y="339" type="line"/>
    </contour>
    <contour>
      <point x="401" y="786" type="qcurve" smooth="yes"/>
      <point x="351" y="786"/>
      <point x="323" y="819" type="qcurve"/>
      <point x="296" y="853"/>
      <point x="282" y="907" type="qcurve"/>
      <point x="305" y="917" type="line"/>
      <point x="319" y="883" type="line" smooth="yes"/>
      <point x="334" y="847"/>
      <point x="352" y="831" type="qcurve"/>
      <point x="371" y="816"/>
      <point x="401" y="815" type="qcurve"/>
      <point x="435" y="815"/>
      <point x="457" y="830" type="qcurve" smooth="yes"/>
      <point x="481" y="846"/>
      <point x="507" y="884" type="qcurve" smooth="yes"/>
      <point x="530" y="917" type="line"/>
      <point x="553" y="907" type="line"/>
      <point x="505" y="820"/>
      <point x="450" y="796" type="qcurve"/>
      <point x="429" y="786"/>
    </contour>
  </outline>
</glyph>
<glyph name="u0123" format="2">
  <advance width="551"/>
  <unicode hex="0123"/>
  <outline>
    <contour>
      <point x="223" y="7" type="qcurve" smooth="yes"/>
      <point x="321" y="7"/>
      <point x="389" y="111" type="qcurve" smooth="yes"/>
      <point x="415" y="151"/>
      <point x="426" y="204" type="qcurve" smooth="yes"/>
      <point x="454" y="346" type="line"/>
      <point x="457" y="359"/>
      <point x="457" y="371" type="qcurve" smooth="yes"/>
      <point x="457" y="393"/>
      <point x="437" y="450"/>
      <point x="369" y="499"/>
      <point x="309" y="499" type="qcurve" smooth="yes"/>
      <point x="223" y="499"/>
      <point x="114" y="382"/>
      <point x="94" y="282" type="qcurve" smooth="yes"/>
      <point x="87" y="247" type="line" smooth="yes"/>
      <point x="81" y="218"/>
      <point x="81" y="176" type="qcurve" smooth="yes"/>
      <point x="81" y="130"/>
      <point x="111" y="53"/>
      <point x="174" y="7"/>
    </contour>
    <contour>
      <point x="174" y="-212" type="qcurve" smooth="yes"/>
      <point x="69" y="-212"/>
      <point x="18" y="-145" type="qcurve"/>
      <point x="34" y="-131" type="line"/>
      <point x="78" y="-193"/>
      <point x="174" y="-193" type="qcurve" smooth="yes"/>
      <point x="347" y="-193"/>
      <point x="383" y="-13" type="qcurve" smooth="yes"/>
      <point x="407" y="111" type="line"/>
      <point x="404" y="111" type="line"/>
      <point x="373" y="55"/>
      <point x="287" y="-12"/>
      <point x="223" y="-12" type="qcurve" smooth="yes"/>
      <point x="144" y="-12"/>
      <point x="60" y="96"/>
      <point x="60" y="176" type="qcurve" smooth="yes"/>
      <point x="60" y="268"/>
      <point x="118" y="424"/>
      <point x="229" y="518"/>
      <point x="309" y="518" type="qcurve" smooth="yes"/>
      <point x="373" y="518"/>
      <point x="451" y="460"/>
      <point x="465" y="413" type="qcurve"/>
      <point x="468" y="413" type="line"/>
      <point x="487" y="506" type="line"/>
      <point x="508" y="506" type="line"/>
      <point x="403" y="-18" type="line" smooth="yes"/>
      <point x="364" y="-212"/>
    </contour>
    <contour>
      <point x="338" y="599" type="qcurve" smooth="yes"/>
      <point x="317" y="599"/>
      <point x="317" y="615" type="qcurve" smooth="yes"/>
      <point x="317" y="644"/>
      <point x="340" y="688" type="qcurve" smooth="yes"/>
      <point x="356" y="719"/>
      <point x="379" y="745" type="qcurve"/>
      <point x="397" y="745" type="line"/>
      <point x="351" y="688"/>
      <point x="341" y="648" type="qcurve"/>
      <point x="366" y="648"/>
      <point x="366" y="632" type="qcurve" smooth="yes"/>
      <point x="366" y="626"/>
      <point x="364" y="616" type="qcurve" smooth="yes"/>
      <point x="361" y="599"/>
    </contour>
  </outline>
</glyph>
<glyph name="hbar" format="2">
  <advance width="555"/>
  <unicode hex="0127"/>
  <outline>
    <contour>
      <point x="411" y="0" type="line" smooth="yes"/>
      <point x="379" y="0"/>
      <point x="379" y="28" type="qcurve" smooth="yes"/>
      <point x="379" y="36"/>
      <point x="436" y="320" type="qcurve" smooth="yes"/>
      <point x="443" y="353"/>
      <point x="443" y="374" type="qcurve" smooth="yes"/>
      <point x="443" y="382" type="line" smooth="yes"/>
      <point x="443" y="489"/>
      <point x="338" y="489" type="qcurve" smooth="yes"/>
      <point x="336" y="489" type="line" smooth="yes"/>
      <point x="262" y="489"/>
      <point x="212" y="432" type="qcurve"/>
      <point x="170" y="390"/>
      <point x="147" y="306" type="qcurve"/>
      <point x="86" y="0" type="line"/>
      <point x="52" y="0" type="line"/>
      <point x="177" y="623" type="line"/>
      <point x="111" y="623" type="line"/>
      <point x="117" y="652" type="line"/>
      <point x="182" y="652" type="line"/>
      <point x="199" y="740" type="line"/>
      <point x="234" y="740" type="line"/>
      <point x="217" y="652" type="line"/>
      <point x="374" y="652" type="line"/>
      <point x="369" y="623" type="line"/>
      <point x="211" y="623" type="line"/>
      <point x="167" y="404" type="line"/>
      <point x="170" y="404" type="line"/>
      <point x="200" y="460"/>
      <point x="241" y="490" type="qcurve" smooth="yes"/>
      <point x="284" y="520"/>
      <point x="344" y="520" type="qcurve" smooth="yes"/>
      <point x="410" y="520"/>
      <point x="443" y="485" type="qcurve" smooth="yes"/>
      <point x="477" y="449"/>
      <point x="477" y="386" type="qcurve" smooth="yes"/>
      <point x="477" y="379" type="line" smooth="yes"/>
      <point x="477" y="352"/>
      <point x="470" y="320" type="qcurve" smooth="yes"/>
      <point x="412" y="31" type="line"/>
      <point x="494" y="31" type="line"/>
      <point x="488" y="0" type="line"/>
    </contour>
  </outline>
</glyph>
<glyph name="Itilde" format="2">
  <advance width="238"/>
  <unicode hex="0128"/>
  <outline>
    <contour>
      <point x="50" y="0" type="line"/>
      <point x="190" y="698" type="line"/>
      <point x="226" y="698" type="line"/>
      <point x="86" y="0" type="line"/>
    </contour>
    <contour>
      <point x="303" y="806" type="qcurve" smooth="yes"/>
      <point x="282" y="806"/>
      <point x="267" y="813" type="qcurve"/>
      <point x="252" y="822"/>
      <point x="231" y="835" type="qcurve"/>
      <point x="212" y="850"/>
      <point x="197" y="855" type="qcurve"/>
      <point x="184" y="861"/>
      <point x="167" y="861" type="qcurve" smooth="yes"/>
      <point x="164" y="861" type="line" smooth="yes"/>
      <point x="132" y="861"/>
      <point x="100" y="829" type="qcurve"/>
      <point x="85" y="847" type="line"/>
      <point x="127" y="889"/>
      <point x="172" y="890" type="qcurve"/>
      <point x="178" y="890" type="line" smooth="yes"/>
      <point x="196" y="890"/>
      <point x="209" y="883" type="qcurve"/>
      <point x="225" y="876"/>
      <point x="245" y="861" type="qcurve"/>
      <point x="266" y="847"/>
      <point x="279" y="841" type="qcurve"/>
      <point x="294" y="835"/>
      <point x="310" y="835" type="qcurve" smooth="yes"/>
      <point x="346" y="835"/>
      <point x="376" y="867" type="qcurve"/>
      <point x="391" y="849" type="line"/>
      <point x="351" y="806"/>
    </contour>
  </outline>
</glyph>
<glyph name="Imacron" format="2">
  <advance width="238"/>
  <unicode hex="012A"/>
  <outline>
    <contour>
      <point x="104" y="835" type="line"/>
      <point x="110" y="865" type="line"/>
      <point x="371" y="865" type="line"/>
      <point x="365" y="835" type="line"/>
    </contour>
    <contour>
      <point x="50" y="0" type="line"/>
      <point x="190" y="698" type="line"/>
      <point x="226" y="698" type="line"/>
      <point x="86" y="0" type="line"/>
    </contour>
  </outline>
</glyph>
<glyph name="Ibreve" format="2">
  <advance width="238"/>
  <unicode hex="012C"/>
  <outline>
    <contour>
      <point x="50" y="0" type="line"/>
      <point x="190" y="698" type="line"/>
      <point x="226" y="698" type="line"/>
      <point x="86" y="0" type="line"/>
    </contour>
    <contour>
      <point x="234" y="786" type="qcurve" smooth="yes"/>
      <point x="184" y="786"/>
      <point x="156" y="819" type="qcurve"/>
      <point x="129" y="853"/>
      <point x="115" y="907" type="qcurve"/>
      <point x="138" y="917" type="line"/>
      <point x="152" y="883" type="line" smooth="yes"/>
      <point x="167" y="847"/>
      <point x="185" y="831" type="qcurve"/>
      <point x="204" y="816"/>
      <point x="234" y="815" type="qcurve"/>
      <point x="268" y="815"/>
      <point x="290" y="830" type="qcurve" smooth="yes"/>
      <point x="314" y="846"/>
      <point x="340" y="884" type="qcurve" smooth="yes"/>
      <point x="363" y="917" type="line"/>
      <point x="386" y="907" type="line"/>
      <point x="338" y="820"/>
      <point x="283" y="796" type="qcurve"/>
      <point x="262" y="786"/>
    </contour>
  </outline>
</glyph>
<glyph name="ibreve" format="2">
  <advance width="242"/>
  <unicode hex="012D"/>
  <outline>
    <contour>
      <point x="89" y="0" type="line" smooth="yes"/>
      <point x="56" y="0"/>
      <point x="56" y="28" type="qcurve" smooth="yes"/>
      <point x="56" y="37"/>
      <point x="150" y="508" type="qcurve"/>
      <point x="184" y="508" type="line"/>
      <point x="89" y="31" type="line"/>
      <point x="171" y="31" type="line"/>
      <point x="165" y="0" type="line"/>
    </contour>
    <contour>
      <point x="194" y="604" type="qcurve" smooth="yes"/>
      <point x="144" y="604"/>
      <point x="116" y="637" type="qcurve"/>
      <point x="89" y="671"/>
      <point x="75" y="725" type="qcurve"/>
      <point x="98" y="735" type="line"/>
      <point x="112" y="701" type="line" smooth="yes"/>
      <point x="127" y="665"/>
      <point x="145" y="649" type="qcurve"/>
      <point x="164" y="634"/>
      <point x="194" y="633" type="qcurve"/>
      <point x="228" y="633"/>
      <point x="250" y="648" type="qcurve" smooth="yes"/>
      <point x="274" y="664"/>
      <point x="300" y="702" type="qcurve" smooth="yes"/>
      <point x="323" y="735" type="line"/>
      <point x="346" y="725" type="line"/>
      <point x="298" y="638"/>
      <point x="243" y="614" type="qcurve"/>
      <point x="222" y="604"/>
    </contour>
  </outline>
</glyph>
<glyph name="Idotaccent" format="2">
  <advance width="238"/>
  <unicode hex="0130"/>
  <outline>
    <contour>
      <point x="50" y="0" type="line"/>
      <point x="190" y="698" type="line"/>
      <point x="226" y="698" type="line"/>
      <point x="86" y="0" type="line"/>
    </contour>
    <contour>
      <point x="234" y="818" type="qcurve" smooth="yes"/>
      <point x="210" y="818"/>
      <point x="209" y="839" type="qcurve"/>
      <point x="209" y="844"/>
      <point x="212" y="855" type="qcurve" smooth="yes"/>
      <point x="215" y="867"/>
      <point x="221" y="873" type="qcurve" smooth="yes"/>
      <point x="228" y="880"/>
      <point x="243" y="880" type="qcurve" smooth="yes"/>
      <point x="268" y="880"/>
      <point x="268" y="859" type="qcurve" smooth="yes"/>
      <point x="268" y="855"/>
      <point x="265" y="843" type="qcurve"/>
      <point x="263" y="833"/>
      <point x="256" y="825" type="qcurve" smooth="yes"/>
      <point x="250" y="818"/>
    </contour>
  </outline>
</glyph>
<glyph name="Jcircumflex" format="2">
  <advance width="465"/>
  <unicode hex="0134"/>
  <outline>
    <contour>
      <point x="149" y="-12" type="qcurve" smooth="yes"/>
      <point x="77" y="-12"/>
      <point x="35" y="26" type="qcurve" smooth="yes"/>
      <point x="-6" y="64"/>
      <point x="-10" y="126" type="qcurve"/>
      <point x="23" y="134" type="line"/>
      <point x="38" y="22"/>
      <point x="150" y="21" type="qcurve" smooth="yes"/>
      <point x="288" y="22"/>
      <point x="320" y="187" type="qcurve" smooth="yes"/>
      <point x="422" y="698" type="line"/>
      <point x="458" y="698" type="line"/>
      <point x="355" y="180" type="line" smooth="yes"/>
      <point x="337" y="88"/>
      <point x="283" y="38" type="qcurve" smooth="yes"/>
      <point x="230" y="-12"/>
    </contour>
    <contour>
      <point x="480" y="903" type="line"/>
      <point x="335" y="779" type="line"/>
      <point x="315" y="796" type="line"/>
      <point x="463" y="930" type="line"/>
      <point x="503" y="930" type="line"/>
      <point x="604" y="794" type="line"/>
      <point x="582" y="779" type="line"/>
    </contour>
  </outline>
</glyph>
<glyph name="kgreenlandic" format="2">
  <advance width="486"/>
  <unicode hex="0138"/>
  <outline>
    <contour>
      <point x="384" y="0" type="line" smooth="yes"/>
      <point x="368" y="0"/>
      <point x="359" y="6" type="qcurve"/>
      <point x="350" y="14"/>
      <point x="342" y="29" type="qcurve"/>
      <point x="225" y="263" type="line"/>
      <point x="118" y="172" type="line"/>
      <point x="83" y="0" type="line"/>
      <point x="49" y="0" type="line"/>
      <point x="151" y="508" type="line"/>
      <point x="185" y="508" type="line"/>
      <point x="127" y="219" type="line"/>
      <point x="131" y="219" type="line"/>
      <point x="297" y="364"/>
      <point x="461" y="508" type="qcurve"/>
      <point x="504" y="508" type="line"/>
      <point x="253" y="284" type="line"/>
      <point x="379" y="31" type="line"/>
      <point x="438" y="31" type="line"/>
      <point x="432" y="0" type="line"/>
    </contour>
  </outline>
</glyph>
<glyph name="Lacute" format="2">
  <advance width="473"/>
  <unicode hex="0139"/>
  <outline>
    <contour>
      <point x="180" y="783" type="line"/>
      <point x="314" y="940" type="line"/>
      <point x="343" y="921" type="line"/>
      <point x="202" y="769" type="line"/>
    </contour>
    <contour>
      <point x="50" y="0" type="line"/>
      <point x="190" y="698" type="line"/>
      <point x="226" y="698" type="line"/>
      <point x="93" y="32" type="line"/>
      <point x="409" y="32" type="line"/>
      <point x="403" y="0" type="line"/>
    </contour>
  </outline>
</glyph>
<glyph name="lacute" format="2">
  <advance width="242"/>
  <unicode hex="013A"/>
  <outline>
    <contour>
      <point x="90" y="0" type="line" smooth="yes"/>
      <point x="57" y="0"/>
      <point x="57" y="28" type="qcurve" smooth="yes"/>
      <point x="57" y="36"/>
      <point x="197" y="740" type="qcurve"/>
      <point x="231" y="740" type="line"/>
      <point x="90" y="31" type="line"/>
      <point x="173" y="31" type="line"/>
      <point x="167" y="0" type="line"/>
    </contour>
    <contour>
      <point x="186" y="825" type="line"/>
      <point x="320" y="982" type="line"/>
      <point x="349" y="963" type="line"/>
      <point x="208" y="811" type="line"/>
    </contour>
  </outline>
</glyph>
<glyph name="Ldot" format="2">
  <advance width="473"/>
  <unicode hex="013F"/>
  <outline>
    <contour>
      <point x="50" y="0" type="line"/>
      <point x="190" y="698" type="line"/>
      <point x="226" y="698" type="line"/>
      <point x="93" y="32" type="line"/>
      <point x="409" y="32" type="line"/>
      <point x="403" y="0" type="line"/>
    </contour>
    <contour>
      <point x="354" y="278" type="qcurve" smooth="yes"/>
      <point x="330" y="278"/>
      <point x="329" y="299" type="qcurve"/>
      <point x="329" y="304"/>
      <point x="332" y="315" type="qcurve" smooth="yes"/>
      <point x="335" y="327"/>
      <point x="341" y="333" type="qcurve" smooth="yes"/>
      <point x="348" y="340"/>
      <point x="363" y="340" type="qcurve" smooth="yes"/>
      <point x="388" y="340"/>
      <point x="388" y="319" type="qcurve" smooth="yes"/>
      <point x="388" y="315"/>
      <point x="385" y="303" type="qcurve"/>
      <point x="383" y="293"/>
      <point x="376" y="285" type="qcurve" smooth="yes"/>
      <point x="370" y="278"/>
    </contour>
  </outline>
</glyph>
<glyph name="Ncaron" format="2">
  <advance width="681"/>
  <unicode hex="0147"/>
  <outline>
    <contour>
      <point x="429" y="784" type="line"/>
      <point x="328" y="920" type="line"/>
      <point x="350" y="935" type="line"/>
      <point x="452" y="811" type="line"/>
      <point x="597" y="935" type="line"/>
      <point x="617" y="918" type="line"/>
      <point x="469" y="784" type="line"/>
    </contour>
    <contour>
      <point x="483" y="0" type="line"/>
      <point x="217" y="649" type="line"/>
      <point x="214" y="649" type="line"/>
      <point x="85" y="0" type="line"/>
      <point x="50" y="0" type="line"/>
      <point x="190" y="698" type="line"/>
      <point x="235" y="698" type="line"/>
      <point x="501" y="49" type="line"/>
      <point x="504" y="49" type="line"/>
      <point x="633" y="698" type="line"/>
      <point x="668" y="698" type="line"/>
      <point x="528" y="0" type="line"/>
    </contour>
  </outline>
</glyph>
<glyph name="eng" format="2">
  <advance width="551"/>
  <unicode hex="014B"/>
  <outline>
    <contour>
      <point x="243" y="-200" type="line"/>
      <point x="249" y="-169" type="line"/>
      <point x="334" y="-169" type="line"/>
      <point x="432" y="320" type="line" smooth="yes"/>
      <point x="438" y="352"/>
      <point x="438" y="382" type="qcurve" smooth="yes"/>
      <point x="438" y="489"/>
      <point x="334" y="489" type="qcurve"/>
      <point x="334" y="489"/>
      <point x="334" y="489" type="qcurve"/>
      <point x="334" y="489"/>
      <point x="334" y="489" type="qcurve"/>
      <point x="334" y="489"/>
      <point x="334" y="489" type="qcurve"/>
      <point x="333" y="489" type="line"/>
      <point x="333" y="489"/>
      <point x="333" y="489" type="qcurve"/>
      <point x="333" y="489"/>
      <point x="333" y="489" type="qcurve"/>
      <point x="333" y="489"/>
      <point x="333" y="489" type="qcurve"/>
      <point x="332" y="489" type="line" smooth="yes"/>
      <point x="260" y="489"/>
      <point x="208" y="432" type="qcurve" smooth="yes"/>
      <point x="160" y="378"/>
      <point x="144" y="306" type="qcurve" smooth="yes"/>
      <point x="83" y="0" type="line"/>
      <point x="49" y="0" type="line"/>
      <point x="151" y="508" type="line"/>
      <point x="185" y="508" type="line"/>
      <point x="164" y="404" type="line"/>
      <point x="167" y="404" type="line"/>
      <point x="196" y="460"/>
      <point x="238" y="490" type="qcurve" smooth="yes"/>
      <point x="280" y="520"/>
      <point x="341" y="520" type="qcurve" smooth="yes"/>
      <point x="406" y="520"/>
      <point x="439" y="485" type="qcurve" smooth="yes"/>
      <point x="473" y="449"/>
      <point x="473" y="386" type="qcurve" smooth="yes"/>
      <point x="473" y="385" type="line"/>
      <point x="473" y="385"/>
      <point x="473" y="385" type="qcurve"/>
      <point x="473" y="385"/>
      <point x="473" y="384" type="qcurve"/>
      <point x="473" y="384"/>
      <point x="473" y="384" type="qcurve"/>
      <point x="473" y="384"/>
      <point x="473" y="384" type="qcurve"/>
      <point x="473" y="384"/>
      <point x="473" y="384" type="qcurve"/>
      <point x="473" y="384"/>
      <point x="473" y="384" type="qcurve"/>
      <point x="473" y="384"/>
      <point x="473" y="384" type="qcurve"/>
      <point x="473" y="384"/>
      <point x="473" y="384" type="qcurve"/>
      <point x="473" y="383" type="line"/>
      <point x="473" y="383"/>
      <point x="473" y="383" type="qcurve"/>
      <point x="473" y="383"/>
      <point x="473" y="383" type="qcurve"/>
      <point x="473" y="379" type="line" smooth="yes"/>
      <point x="473" y="352"/>
      <point x="466" y="320" type="qcurve" smooth="yes"/>
      <point x="372" y="-151" type="line"/>
      <point x="368" y="-178"/>
      <point x="354" y="-189" type="qcurve"/>
      <point x="342" y="-200"/>
      <point x="312" y="-200" type="qcurve" smooth="yes"/>
    </contour>
  </outline>
</glyph>
<glyph name="Omacron" format="2">
  <advance width="663"/>
  <unicode hex="014C"/>
  <outline>
    <contour>
      <point x="404" y="677" type="qcurve" smooth="yes"/>
      <point x="395" y="677" type="line"/>
      <point x="298" y="676"/>
      <point x="151" y="524"/>
      <point x="124" y="389" type="qcurve" smooth="yes"/>
      <point x="111" y="323" type="line"/>
      <point x="102" y="266"/>
      <point x="102" y="224" type="qcurve" smooth="yes"/>
      <point x="102" y="132"/>
      <point x="151" y="76" type="qcurve"/>
      <point x="202" y="22"/>
      <point x="295" y="21" type="qcurve"/>
      <point x="298" y="21" type="line" smooth="yes"/>
      <point x="401" y="21"/>
      <point x="472" y="98" type="qcurve" smooth="yes"/>
      <point x="546" y="176"/>
      <point x="572" y="309" type="qcurve" smooth="yes"/>
      <point x="585" y="375" type="line"/>
      <point x="594" y="434"/>
      <point x="594" y="473" type="qcurve" smooth="yes"/>
      <point x="594" y="478" type="line" smooth="yes"/>
      <point x="594" y="569"/>
      <point x="496" y="677"/>
    </contour>
    <contour>
      <point x="630" y="463" type="line" smooth="yes"/>
      <point x="630" y="365"/>
      <point x="562" y="142"/>
      <point x="406" y="-12"/>
      <point x="194" y="-12"/>
      <point x="130" y="49" type="qcurve" smooth="yes"/>
      <point x="66" y="112"/>
      <point x="66" y="332"/>
      <point x="135" y="556"/>
      <point x="210" y="631" type="qcurve"/>
      <point x="292" y="710"/>
      <point x="504" y="710"/>
      <point x="567" y="648" type="qcurve" smooth="yes"/>
      <point x="630" y="586"/>
      <point x="630" y="469" type="qcurve" smooth="yes"/>
    </contour>
    <contour>
      <point x="298" y="835" type="line"/>
      <point x="304" y="865" type="line"/>
      <point x="565" y="865" type="line"/>
      <point x="559" y="835" type="line"/>
    </contour>
  </outline>
</glyph>
<glyph name="Obreve" format="2">
  <advance width="663"/>
  <unicode hex="014E"/>
  <outline>
    <contour>
      <point x="404" y="677" type="qcurve" smooth="yes"/>
      <point x="395" y="677" type="line"/>
      <point x="298" y="676"/>
      <point x="151" y="524"/>
      <point x="124" y="389" type="qcurve" smooth="yes"/>
      <point x="111" y="323" type="line"/>
      <point x="102" y="266"/>
      <point x="102" y="224" type="qcurve" smooth="yes"/>
      <point x="102" y="132"/>
      <point x="151" y="76" type="qcurve"/>
      <point x="202" y="22"/>
      <point x="295" y="21" type="qcurve"/>
      <point x="298" y="21" type="line" smooth="yes"/>
      <point x="401" y="21"/>
      <point x="472" y="98" type="qcurve" smooth="yes"/>
      <point x="546" y="176"/>
      <point x="572" y="309" type="qcurve" smooth="yes"/>
      <point x="585" y="375" type="line"/>
      <point x="594" y="434"/>
      <point x="594" y="473" type="qcurve" smooth="yes"/>
      <point x="594" y="478" type="line" smooth="yes"/>
      <point x="594" y="569"/>
      <point x="496" y="677"/>
    </contour>
    <contour>
      <point x="630" y="463" type="line" smooth="yes"/>
      <point x="630" y="365"/>
      <point x="562" y="142"/>
      <point x="406" y="-12"/>
      <point x="194" y="-12"/>
      <point x="130" y="49" type="qcurve" smooth="yes"/>
      <point x="66" y="112"/>
      <point x="66" y="332"/>
      <point x="135" y="556"/>
      <point x="210" y="631" type="qcurve"/>
      <point x="292" y="710"/>
      <point x="504" y="710"/>
      <point x="567" y="648" type="qcurve" smooth="yes"/>
      <point x="630" y="586"/>
      <point x="630" y="469" type="qcurve" smooth="yes"/>
    </contour>
    <contour>
      <point x="428" y="786" type="qcurve" smooth="yes"/>
      <point x="378" y="786"/>
      <point x="350" y="819" type="qcurve"/>
      <point x="323" y="853"/>
      <point x="309" y="907" type="qcurve"/>
      <point x="332" y="917" type="line"/>
      <point x="346" y="883" type="line" smooth="yes"/>
      <point x="361" y="847"/>
      <point x="379" y="831" type="qcurve"/>
      <point x="398" y="816"/>
      <point x="428" y="815" type="qcurve"/>
      <point x="462" y="815"/>
      <point x="484" y="830" type="qcurve" smooth="yes"/>
      <point x="508" y="846"/>
      <point x="534" y="884" type="qcurve" smooth="yes"/>
      <point x="557" y="917" type="line"/>
      <point x="580" y="907" type="line"/>
      <point x="532" y="820"/>
      <point x="477" y="796" type="qcurve"/>
      <point x="456" y="786"/>
    </contour>
  </outline>
</glyph>
<glyph name="obreve" format="2">
  <advance width="538"/>
  <unicode hex="014F"/>
  <outline>
    <contour>
      <point x="231" y="19" type="qcurve" smooth="yes"/>
      <point x="388" y="19"/>
      <point x="433" y="223" type="qcurve"/>
      <point x="442" y="271" type="line" smooth="yes"/>
      <point x="447" y="297"/>
      <point x="447" y="327" type="qcurve" smooth="yes"/>
      <point x="447" y="337" type="line" smooth="yes"/>
      <point x="447" y="400"/>
      <point x="413" y="444" type="qcurve" smooth="yes"/>
      <point x="380" y="489"/>
      <point x="307" y="489" type="qcurve" smooth="yes"/>
      <point x="151" y="489"/>
      <point x="105" y="285" type="qcurve"/>
      <point x="96" y="237" type="line"/>
      <point x="92" y="207"/>
      <point x="91" y="171" type="qcurve"/>
      <point x="92" y="108"/>
      <point x="125" y="63" type="qcurve" smooth="yes"/>
      <point x="159" y="19"/>
    </contour>
    <contour>
      <point x="227" y="-12" type="qcurve" smooth="yes"/>
      <point x="149" y="-12"/>
      <point x="103" y="41" type="qcurve" smooth="yes"/>
      <point x="58" y="95"/>
      <point x="57" y="176" type="qcurve" smooth="yes"/>
      <point x="57" y="314"/>
      <point x="123" y="417" type="qcurve"/>
      <point x="192" y="520"/>
      <point x="311" y="520" type="qcurve" smooth="yes"/>
      <point x="314" y="520" type="line" smooth="yes"/>
      <point x="393" y="520"/>
      <point x="436" y="468" type="qcurve"/>
      <point x="481" y="416"/>
      <point x="481" y="332" type="qcurve" smooth="yes"/>
      <point x="481" y="324" type="line"/>
      <point x="480" y="190"/>
      <point x="416" y="91" type="qcurve"/>
      <point x="384" y="44"/>
      <point x="336" y="16" type="qcurve" smooth="yes"/>
      <point x="288" y="-12"/>
    </contour>
    <contour>
      <point x="347" y="604" type="qcurve" smooth="yes"/>
      <point x="297" y="604"/>
      <point x="269" y="637" type="qcurve"/>
      <point x="242" y="671"/>
      <point x="228" y="725" type="qcurve"/>
      <point x="251" y="735" type="line"/>
      <point x="265" y="701" type="line" smooth="yes"/>
      <point x="280" y="665"/>
      <point x="298" y="649" type="qcurve"/>
      <point x="317" y="634"/>
      <point x="347" y="633" type="qcurve"/>
      <point x="381" y="633"/>
      <point x="403" y="648" type="qcurve" smooth="yes"/>
      <point x="427" y="664"/>
      <point x="453" y="702" type="qcurve" smooth="yes"/>
      <point x="476" y="735" type="line"/>
      <point x="499" y="725" type="line"/>
      <point x="451" y="638"/>
      <point x="396" y="614" type="qcurve"/>
      <point x="375" y="604"/>
    </contour>
  </outline>
</glyph>
<glyph name="oe" format="2">
  <advance width="881"/>
  <unicode hex="0153"/>
  <outline>
    <contour>
      <point x="231" y="19" type="qcurve" smooth="yes"/>
      <point x="388" y="19"/>
      <point x="433" y="223" type="qcurve"/>
      <point x="442" y="271" type="line" smooth="yes"/>
      <point x="447" y="297"/>
      <point x="447" y="327" type="qcurve" smooth="yes"/>
      <point x="447" y="337" type="line" smooth="yes"/>
      <point x="447" y="400"/>
      <point x="413" y="444" type="qcurve" smooth="yes"/>
      <point x="380" y="489"/>
      <point x="307" y="489" type="qcurve" smooth="yes"/>
      <point x="151" y="489"/>
      <point x="105" y="285" type="qcurve"/>
      <point x="96" y="237" type="line"/>
      <point x="92" y="207"/>
      <point x="91" y="171" type="qcurve"/>
      <point x="92" y="108"/>
      <point x="125" y="63" type="qcurve" smooth="yes"/>
      <point x="159" y="19"/>
    </contour>
    <contour>
      <point x="475" y="259" type="line"/>
      <point x="680" y="265"/>
      <point x="748" y="304" type="qcurve"/>
      <point x="783" y="322"/>
      <point x="796" y="345" type="qcurve"/>
      <point x="810" y="368"/>
      <point x="810" y="393" type="qcurve" smooth="yes"/>
      <point x="810" y="397" type="line" smooth="yes"/>
      <point x="810" y="439"/>
      <point x="779" y="464" type="qcurve" smooth="yes"/>
      <point x="748" y="490"/>
      <point x="682" y="490" type="qcurve" smooth="yes"/>
      <point x="677" y="490" type="line"/>
      <point x="603" y="489"/>
      <point x="550" y="432" type="qcurve" smooth="yes"/>
      <point x="496" y="374"/>
      <point x="478" y="279" type="qcurve"/>
    </contour>
    <contour>
      <point x="614" y="-12" type="qcurve" smooth="yes"/>
      <point x="464" y="-12"/>
      <point x="440" y="143" type="qcurve"/>
      <point x="437" y="143" type="line"/>
      <point x="373" y="-12"/>
      <point x="227" y="-12" type="qcurve" smooth="yes"/>
      <point x="149" y="-12"/>
      <point x="103" y="41" type="qcurve" smooth="yes"/>
      <point x="58" y="95"/>
      <point x="57" y="176" type="qcurve" smooth="yes"/>
      <point x="57" y="314"/>
      <point x="123" y="417" type="qcurve"/>
      <point x="193" y="520"/>
      <point x="310" y="520" type="qcurve" smooth="yes"/>
      <point x="313" y="520" type="line" smooth="yes"/>
      <point x="381" y="520"/>
      <point x="422" y="480" type="qcurve" smooth="yes"/>
      <point x="464" y="440"/>
      <point x="474" y="372" type="qcurve"/>
      <point x="477" y="372" type="line"/>
      <point x="507" y="434"/>
      <point x="558" y="476" type="qcurve"/>
      <point x="614" y="520"/>
      <point x="686" y="520" type="qcurve" smooth="yes"/>
      <point x="758" y="520"/>
      <point x="802" y="487" type="qcurve" smooth="yes"/>
      <point x="846" y="454"/>
      <point x="846" y="396" type="qcurve" smooth="yes"/>
      <point x="846" y="327"/>
      <point x="778" y="287" type="qcurve"/>
      <point x="703" y="238"/>
      <point x="471" y="230" type="qcurve"/>
      <point x="468" y="218"/>
      <point x="468" y="189" type="qcurve" smooth="yes"/>
      <point x="468" y="19"/>
      <point x="616" y="19" type="qcurve"/>
      <point x="733" y="20"/>
      <point x="797" y="134" type="qcurve"/>
      <point x="823" y="117" type="line"/>
      <point x="744" y="-12"/>
    </contour>
  </outline>
</glyph>
<glyph name="racute" format="2">
  <advance width="344"/>
  <unicode hex="0155"/>
  <outline>
    <contour>
      <point x="49" y="0" type="line"/>
      <point x="151" y="508" type="line"/>
      <point x="185" y="508" type="line"/>
      <point x="162" y="397" type="line"/>
      <point x="166" y="397" type="line"/>
      <point x="190" y="444"/>
      <point x="228" y="476" type="qcurve" smooth="yes"/>
      <point x="268" y="508"/>
      <point x="334" y="508" type="qcurve" smooth="yes"/>
      <point x="365" y="508" type="line"/>
      <point x="358" y="475" type="line"/>
      <point x="325" y="475" type="line" smooth="yes"/>
      <point x="255" y="475"/>
      <point x="206" y="424" type="qcurve" smooth="yes"/>
      <point x="158" y="372"/>
      <point x="142" y="296" type="qcurve" smooth="yes"/>
      <point x="83" y="0" type="line"/>
    </contour>
    <contour>
      <point x="231" y="601" type="line"/>
      <point x="365" y="758" type="line"/>
      <point x="394" y="739" type="line"/>
      <point x="253" y="587" type="line"/>
    </contour>
  </outline>
</glyph>
<glyph name="rcaron" format="2">
  <advance width="344"/>
  <unicode hex="0159"/>
  <outline>
    <contour>
      <point x="49" y="0" type="line"/>
      <point x="151" y="508" type="line"/>
      <point x="185" y="508" type="line"/>
      <point x="162" y="397" type="line"/>
      <point x="166" y="397" type="line"/>
      <point x="190" y="444"/>
      <point x="228" y="476" type="qcurve" smooth="yes"/>
      <point x="268" y="508"/>
      <point x="334" y="508" type="qcurve" smooth="yes"/>
      <point x="365" y="508" type="line"/>
      <point x="358" y="475" type="line"/>
      <point x="325" y="475" type="line" smooth="yes"/>
      <point x="255" y="475"/>
      <point x="206" y="424" type="qcurve" smooth="yes"/>
      <point x="158" y="372"/>
      <point x="142" y="296" type="qcurve" smooth="yes"/>
      <point x="83" y="0" type="line"/>
    </contour>
    <contour>
      <point x="259" y="602" type="line"/>
      <point x="158" y="738" type="line"/>
      <point x="180" y="753" type="line"/>
      <point x="282" y="629" type="line"/>
      <point x="427" y="753" type="line"/>
      <point x="447" y="736" type="line"/>
      <point x="299" y="602" type="line"/>
    </contour>
  </outline>
</glyph>
<glyph name="Sacute" format="2">
  <advance width="544"/>
  <unicode hex="015A"/>
  <outline>
    <contour>
      <point x="255" y="-12" type="qcurve" smooth="yes"/>
      <point x="104" y="-12"/>
      <point x="18" y="104" type="qcurve"/>
      <point x="46" y="126" type="line"/>
      <point x="82" y="78"/>
      <point x="131" y="49" type="qcurve"/>
      <point x="181" y="22"/>
      <point x="256" y="21" type="qcurve"/>
      <point x="418" y="24"/>
      <point x="437" y="147" type="qcurve"/>
      <point x="439" y="163"/>
      <point x="439" y="176" type="qcurve" smooth="yes"/>
      <point x="439" y="187" type="line"/>
      <point x="438" y="281"/>
      <point x="314" y="330" type="qcurve" smooth="yes"/>
      <point x="251" y="355" type="line"/>
      <point x="104" y="418"/>
      <point x="103" y="532" type="qcurve" smooth="yes"/>
      <point x="103" y="620"/>
      <point x="163" y="665" type="qcurve" smooth="yes"/>
      <point x="225" y="710"/>
      <point x="321" y="710" type="qcurve" smooth="yes"/>
      <point x="468" y="710"/>
      <point x="533" y="610" type="qcurve"/>
      <point x="505" y="590" type="line"/>
      <point x="445" y="677"/>
      <point x="319" y="677" type="qcurve" smooth="yes"/>
      <point x="313" y="677" type="line"/>
      <point x="234" y="676"/>
      <point x="189" y="642" type="qcurve" smooth="yes"/>
      <point x="143" y="606"/>
      <point x="141" y="531" type="qcurve"/>
      <point x="142" y="435"/>
      <point x="266" y="387" type="qcurve"/>
      <point x="329" y="361" type="line" smooth="yes"/>
      <point x="428" y="320"/>
      <point x="457" y="263" type="qcurve"/>
      <point x="477" y="231"/>
      <point x="477" y="189" type="qcurve" smooth="yes"/>
      <point x="477" y="185" type="line" smooth="yes"/>
      <point x="477" y="89"/>
      <point x="417" y="38" type="qcurve" smooth="yes"/>
      <point x="357" y="-12"/>
    </contour>
    <contour>
      <point x="331" y="783" type="line"/>
      <point x="465" y="940" type="line"/>
      <point x="494" y="921" type="line"/>
      <point x="353" y="769" type="line"/>
    </contour>
  </outline>
</glyph>
<glyph name="sacute" format="2">
  <advance width="468"/>
  <unicode hex="015B"/>
  <outline>
    <contour>
      <point x="212" y="-12" type="qcurve" smooth="yes"/>
      <point x="86" y="-12"/>
      <point x="21" y="83" type="qcurve"/>
      <point x="48" y="103" type="line"/>
      <point x="105" y="19"/>
      <point x="213" y="19" type="qcurve"/>
      <point x="351" y="22"/>
      <point x="351" y="131" type="qcurve" smooth="yes"/>
      <point x="351" y="200"/>
      <point x="252" y="236" type="qcurve" smooth="yes"/>
      <point x="211" y="251" type="line" smooth="yes"/>
      <point x="89" y="295"/>
      <point x="89" y="383" type="qcurve" smooth="yes"/>
      <point x="89" y="452"/>
      <point x="137" y="486" type="qcurve" smooth="yes"/>
      <point x="186" y="520"/>
      <point x="255" y="520" type="qcurve" smooth="yes"/>
      <point x="362" y="520"/>
      <point x="425" y="445" type="qcurve"/>
      <point x="400" y="422" type="line"/>
      <point x="379" y="449"/>
      <point x="346" y="469" type="qcurve"/>
      <point x="315" y="489"/>
      <point x="259" y="489" type="qcurve" smooth="yes"/>
      <point x="250" y="489" type="line" smooth="yes"/>
      <point x="193" y="489"/>
      <point x="159" y="463" type="qcurve"/>
      <point x="123" y="437"/>
      <point x="123" y="385" type="qcurve" smooth="yes"/>
      <point x="124" y="320"/>
      <point x="224" y="282" type="qcurve" smooth="yes"/>
      <point x="264" y="267" type="line"/>
      <point x="386" y="226"/>
      <point x="386" y="134" type="qcurve" smooth="yes"/>
      <point x="386" y="131" type="line" smooth="yes"/>
      <point x="386" y="63"/>
      <point x="340" y="26" type="qcurve" smooth="yes"/>
      <point x="294" y="-12"/>
    </contour>
    <contour>
      <point x="259" y="601" type="line"/>
      <point x="393" y="758" type="line"/>
      <point x="422" y="739" type="line"/>
      <point x="281" y="587" type="line"/>
    </contour>
  </outline>
</glyph>
<glyph name="Scedilla" format="2">
  <advance width="544"/>
  <unicode hex="015E"/>
  <outline>
    <contour>
      <point x="227" y="-203" type="qcurve"/>
      <point x="167" y="-203"/>
      <point x="146" y="-170" type="qcurve"/>
      <point x="166" y="-150" type="line"/>
      <point x="185" y="-177"/>
      <point x="227" y="-177" type="qcurve" smooth="yes"/>
      <point x="257" y="-177"/>
      <point x="275" y="-162" type="qcurve"/>
      <point x="294" y="-147"/>
      <point x="294" y="-126" type="qcurve" smooth="yes"/>
      <point x="294" y="-121" type="line" smooth="yes"/>
      <point x="294" y="-105"/>
      <point x="283" y="-97" type="qcurve"/>
      <point x="271" y="-86"/>
      <point x="241" y="-84" type="qcurve" smooth="yes"/>
      <point x="206" y="-82" type="line"/>
      <point x="235" y="-11" type="line"/>
      <point x="98" y="-4"/>
      <point x="18" y="104" type="qcurve"/>
      <point x="46" y="126" type="line"/>
      <point x="82" y="78"/>
      <point x="131" y="49" type="qcurve"/>
      <point x="181" y="22"/>
      <point x="256" y="21" type="qcurve"/>
      <point x="418" y="24"/>
      <point x="437" y="147" type="qcurve"/>
      <point x="439" y="163"/>
      <point x="439" y="176" type="qcurve" smooth="yes"/>
      <point x="439" y="187" type="line"/>
      <point x="438" y="281"/>
      <point x="314" y="330" type="qcurve" smooth="yes"/>
      <point x="251" y="355" type="line"/>
      <point x="104" y="418"/>
      <point x="103" y="532" type="qcurve" smooth="yes"/>
      <point x="103" y="620"/>
      <point x="163" y="665" type="qcurve" smooth="yes"/>
      <point x="225" y="710"/>
      <point x="321" y="710" type="qcurve" smooth="yes"/>
      <point x="468" y="710"/>
      <point x="533" y="610" type="qcurve"/>
      <point x="505" y="590" type="line"/>
      <point x="445" y="677"/>
      <point x="319" y="677" type="qcurve" smooth="yes"/>
      <point x="313" y="677" type="line"/>
      <point x="234" y="676"/>
      <point x="189" y="642" type="qcurve" smooth="yes"/>
      <point x="143" y="606"/>
      <point x="141" y="531" type="qcurve"/>
      <point x="142" y="435"/>
      <point x="266" y="387" type="qcurve"/>
      <point x="329" y="361" type="line" smooth="yes"/>
      <point x="428" y="320"/>
      <point x="457" y="263" type="qcurve"/>
      <point x="477" y="231"/>
      <point x="477" y="189" type="qcurve" smooth="yes"/>
      <point x="477" y="185" type="line" smooth="yes"/>
      <point x="477" y="89"/>
      <point x="417" y="38" type="qcurve" smooth="yes"/>
      <point x="359" y="-11"/>
      <point x="260" y="-12" type="qcurve"/>
      <point x="236" y="-70" type="line"/>
      <point x="238" y="-72" type="line"/>
      <point x="244" y="-71" type="line"/>
      <point x="254" y="-69"/>
      <point x="262" y="-69" type="qcurve" smooth="yes"/>
      <point x="267" y="-69" type="line" smooth="yes"/>
      <point x="325" y="-69"/>
      <point x="325" y="-123" type="qcurve" smooth="yes"/>
      <point x="325" y="-156"/>
      <point x="299" y="-180" type="qcurve"/>
      <point x="272" y="-202"/>
    </contour>
  </outline>
</glyph>
<glyph name="scedilla" format="2">
  <advance width="468"/>
  <unicode hex="015F"/>
  <outline>
    <contour>
      <point x="184" y="-203" type="qcurve"/>
      <point x="124" y="-203"/>
      <point x="103" y="-170" type="qcurve"/>
      <point x="123" y="-150" type="line"/>
      <point x="142" y="-177"/>
      <point x="184" y="-177" type="qcurve" smooth="yes"/>
      <point x="214" y="-177"/>
      <point x="232" y="-162" type="qcurve"/>
      <point x="251" y="-147"/>
      <point x="251" y="-126" type="qcurve" smooth="yes"/>
      <point x="251" y="-121" type="line" smooth="yes"/>
      <point x="251" y="-105"/>
      <point x="240" y="-97" type="qcurve"/>
      <point x="228" y="-86"/>
      <point x="198" y="-84" type="qcurve" smooth="yes"/>
      <point x="163" y="-82" type="line"/>
      <point x="192" y="-11" type="line"/>
      <point x="81" y="-4"/>
      <point x="21" y="83" type="qcurve"/>
      <point x="48" y="103" type="line"/>
      <point x="105" y="19"/>
      <point x="213" y="19" type="qcurve"/>
      <point x="351" y="22"/>
      <point x="351" y="131" type="qcurve" smooth="yes"/>
      <point x="351" y="200"/>
      <point x="252" y="236" type="qcurve" smooth="yes"/>
      <point x="211" y="251" type="line" smooth="yes"/>
      <point x="89" y="295"/>
      <point x="89" y="383" type="qcurve" smooth="yes"/>
      <point x="89" y="452"/>
      <point x="137" y="486" type="qcurve" smooth="yes"/>
      <point x="186" y="520"/>
      <point x="255" y="520" type="qcurve" smooth="yes"/>
      <point x="362" y="520"/>
      <point x="425" y="445" type="qcurve"/>
      <point x="400" y="422" type="line"/>
      <point x="379" y="449"/>
      <point x="346" y="469" type="qcurve"/>
      <point x="315" y="489"/>
      <point x="259" y="489" type="qcurve" smooth="yes"/>
      <point x="250" y="489" type="line" smooth="yes"/>
      <point x="193" y="489"/>
      <point x="159" y="463" type="qcurve"/>
      <point x="123" y="437"/>
      <point x="123" y="385" type="qcurve" smooth="yes"/>
      <point x="124" y="320"/>
      <point x="224" y="282" type="qcurve" smooth="yes"/>
      <point x="264" y="267" type="line"/>
      <point x="386" y="226"/>
      <point x="386" y="134" type="qcurve" smooth="yes"/>
      <point x="386" y="131" type="line" smooth="yes"/>
      <point x="386" y="63"/>
      <point x="340" y="26" type="qcurve" smooth="yes"/>
      <point x="295" y="-11"/>
      <point x="217" y="-12" type="qcurve"/>
      <point x="193" y="-70" type="line"/>
      <point x="195" y="-72" type="line"/>
      <point x="201" y="-71" type="line"/>
      <point x="211" y="-69"/>
      <point x="219" y="-69" type="qcurve" smooth="yes"/>
      <point x="224" y="-69" type="line" smooth="yes"/>
      <point x="282" y="-69"/>
      <point x="282" y="-123" type="qcurve" smooth="yes"/>
      <point x="282" y="-156"/>
      <point x="256" y="-180" type="qcurve"/>
      <point x="229" y="-202"/>
    </contour>
  </outline>
</glyph>
<glyph name="Tcaron" format="2">
  <advance width="550"/>
  <unicode hex="0164"/>
  <outline>
    <contour>
      <point x="364" y="784" type="line"/>
      <point x="263" y="920" type="line"/>
      <point x="285" y="935" type="line"/>
      <point x="387" y="811" type="line"/>
      <point x="532" y="935" type="line"/>
      <point x="552" y="918" type="line"/>
      <point x="404" y="784" type="line"/>
    </contour>
    <contour>
      <point x="206" y="0" type="line"/>
      <point x="339" y="666" type="line"/>
      <point x="99" y="666" type="line"/>
      <point x="105" y="698" type="line"/>
      <point x="622" y="698" type="line"/>
      <point x="616" y="666" type="line"/>
      <point x="375" y="666" type="line"/>
      <point x="242" y="0" type="line"/>
    </contour>
  </outline>
</glyph>
<glyph name="tcaron" format="2">
  <advance width="306"/>
  <unicode hex="0165"/>
  <outline>
    <contour>
      <point x="297" y="565" type="line"/>
      <point x="340" y="743" type="line"/>
      <point x="381" y="743" type="line"/>
      <point x="323" y="565" type="line"/>
    </contour>
    <contour>
      <point x="109" y="0" type="line" smooth="yes"/>
      <point x="76" y="0"/>
      <point x="75" y="30" type="qcurve"/>
      <point x="75" y="38"/>
      <point x="77" y="47" type="qcurve"/>
      <point x="80" y="56"/>
      <point x="163" y="477" type="qcurve"/>
      <point x="72" y="477" type="line"/>
      <point x="78" y="508" type="line"/>
      <point x="141" y="508" type="line" smooth="yes"/>
      <point x="159" y="508"/>
      <point x="165" y="515" type="qcurve" smooth="yes"/>
      <point x="172" y="523"/>
      <point x="175" y="539" type="qcurve" smooth="yes"/>
      <point x="198" y="652" type="line"/>
      <point x="232" y="652" type="line"/>
      <point x="203" y="508" type="line"/>
      <point x="321" y="508" type="line"/>
      <point x="315" y="477" type="line"/>
      <point x="197" y="477" type="line"/>
      <point x="108" y="31" type="line"/>
      <point x="218" y="31" type="line"/>
      <point x="212" y="0" type="line"/>
    </contour>
  </outline>
</glyph>
<glyph name="tbar" format="2">
  <advance width="312"/>
  <unicode hex="0167"/>
  <outline>
    <contour>
      <point x="112" y="0" type="line" smooth="yes"/>
      <point x="78" y="0"/>
      <point x="78" y="30" type="qcurve" smooth="yes"/>
      <point x="78" y="38"/>
      <point x="80" y="47" type="qcurve"/>
      <point x="83" y="56"/>
      <point x="125" y="274" type="qcurve"/>
      <point x="61" y="274" type="line"/>
      <point x="67" y="300" type="line"/>
      <point x="130" y="300" type="line"/>
      <point x="166" y="477" type="line"/>
      <point x="75" y="477" type="line"/>
      <point x="81" y="508" type="line"/>
      <point x="145" y="508" type="line" smooth="yes"/>
      <point x="162" y="508"/>
      <point x="168" y="515" type="qcurve"/>
      <point x="176" y="523"/>
      <point x="178" y="539" type="qcurve"/>
      <point x="201" y="652" type="line"/>
      <point x="235" y="652" type="line"/>
      <point x="206" y="508" type="line"/>
      <point x="324" y="508" type="line"/>
      <point x="318" y="477" type="line"/>
      <point x="200" y="477" type="line"/>
      <point x="164" y="300" type="line"/>
      <point x="263" y="300" type="line"/>
      <point x="257" y="274" type="line"/>
      <point x="159" y="274" type="line"/>
      <point x="111" y="31" type="line"/>
      <point x="221" y="31" type="line"/>
      <point x="215" y="0" type="line"/>
    </contour>
  </outline>
</glyph>
